<?xml version="1.0" encoding="UTF-8" standalone="no"?>
<!-- Created with Inkscape (http://www.inkscape.org/) -->

<svg
   version="1.1"
   id="svg1"
   width="134.03867"
   height="132.16667"
   viewBox="0 0 134.03867 132.16667"
   xmlns="http://www.w3.org/2000/svg"
   xmlns:svg="http://www.w3.org/2000/svg">
  <defs
     id="defs1" />
  <g
     id="g1">
    <path
       id="path1"
       d="m 2.6726953,-3.1293125 h 0.3515625 l 1.5,2.30859375 c 0.09375,0.1640625 0.3398438,0.55078125 0.4453125,0.703125 0.070312,0.1171875 0.1054688,0.1171875 0.328125,0.1171875 h 1.3828125 c 0.1757813,0 0.328125,0 0.328125,-0.17578125 0,-0.0820313 -0.070312,-0.15234375 -0.1523437,-0.17578125 C 6.4812891,-0.434 6.0008203,-1.09025 5.7547266,-1.4066562 c -0.070312,-0.09375 -0.5625,-0.75 -1.2304688,-1.828125 0.890625,-0.1640625 1.7460938,-0.5390625 1.7460938,-1.7226563 0,-1.3828125 -1.4648438,-1.8632812 -2.6484375,-1.8632812 H 0.50472656 c -0.1875,0 -0.33984375,0 -0.33984375,0.1757812 0,0.1640625 0.1875,0.1640625 0.26953125,0.1640625 0.5625,0 0.60937504,0.070312 0.60937504,0.5742188 v 4.99218745 c 0,0.4921875 -0.046875,0.5625 -0.60937504,0.5625 -0.0820313,0 -0.26953125,0 -0.26953125,0.17578125 0,0.17578125 0.15234375,0.17578125 0.33984375,0.17578125 H 3.2234766 c 0.1875,0 0.328125,0 0.328125,-0.17578125 0,-0.17578125 -0.1640625,-0.17578125 -0.2695313,-0.17578125 -0.5742187,0 -0.609375,-0.0820313 -0.609375,-0.5625 z M 4.5945703,-3.6215 c 0.28125,-0.3632812 0.3046875,-0.890625 0.3046875,-1.3242187 0,-0.4804688 -0.058594,-1.0078125 -0.375,-1.4179688 0.4101563,0.082031 1.3945313,0.3984375 1.3945313,1.40625 0,0.6445313 -0.3046875,1.1484375 -1.3242188,1.3359375 z m -1.921875,-2.3203125 c 0,-0.1992187 0,-0.5390625 0.6210938,-0.5390625 0.84375,0 1.2539062,0.3515625 1.2539062,1.5351563 0,1.2773437 -0.3046875,1.4648437 -1.875,1.4648437 z m -1.359375,5.58984375 C 1.3953516,-0.52775 1.3953516,-0.809 1.3953516,-0.90275 v -5.0273437 c 0,-0.09375 0,-0.3632813 -0.082031,-0.5507813 H 2.4500391 C 2.3211328,-6.3168125 2.3211328,-6.1175937 2.3211328,-5.96525 v 5.0625 c 0,0.10546875 0,0.375 0.082031,0.55078125 z M 3.4344141,-3.1293125 c 0.070312,-0.011719 0.1171875,-0.023437 0.1875,-0.023437 0.1523437,0 0.375,-0.011719 0.5273437,-0.035156 0.140625,0.234375 1.21875,2.015625 2.0507813,2.83593745 H 5.2273828 Z m 0,0"
       style="fill:#000000;fill-opacity:1;fill-rule:nonzero;stroke:none"
       aria-label="R"
       transform="matrix(1.3333333,0,0,1.3333333,81.12,13.578667)" />
    <path
       id="path2"
       d="m 3.7265547,-6.0362734 c 0.09375,-0.3632813 0.1171875,-0.4570313 0.9023437,-0.4570313 0.2460938,0 0.3164063,0 0.3164063,-0.1875 0,-0.1289062 -0.1054688,-0.1289062 -0.140625,-0.1289062 -0.2929688,0 -1.03125,0.035156 -1.3125,0.035156 -0.3046875,0 -1.03125,-0.035156 -1.3359375,-0.035156 -0.058594,0 -0.1992188,0 -0.1992188,0.1992187 0,0.1171875 0.09375,0.1171875 0.28125,0.1171875 0.421875,0 0.6914063,0 0.6914063,0.1875 0,0.046875 0,0.070312 -0.023437,0.1640625 l -1.3476563,5.36718751 c -0.082031,0.36328125 -0.1171875,0.46875 -0.90234371,0.46875 -0.22265625,0 -0.31640625,0 -0.31640625,0.19921875 0,0.10546875 0.1171875,0.10546875 0.15234375,0.10546875 0.28125,0 1.00781251,-0.03515625 1.30078121,-0.03515625 0.3046875,0 1.03125,0.03515625 1.3359375,0.03515625 0.082031,0 0.1992188,0 0.1992188,-0.1875 0,-0.1171875 -0.082031,-0.1171875 -0.3046875,-0.1171875 -0.1757813,0 -0.2226563,0 -0.421875,-0.0234375 -0.2109375,-0.0234375 -0.2460938,-0.0585938 -0.2460938,-0.17578125 0,-0.0703125 0.011719,-0.15234375 0.035156,-0.22265625 z m 0,0"
       style="fill:#000000;fill-opacity:1;fill-rule:nonzero;stroke:none"
       aria-label="I"
       transform="matrix(1.3333333,0,0,1.3333333,42.222667,50.341333)" />
    <path
       id="path3"
       d="m 2.3329063,-4.4306641 c 0,-0.1875 -0.011719,-0.1992187 -0.2109375,-0.1992187 -0.4453125,0.4335937 -1.078125,0.4453125 -1.35937505,0.4453125 v 0.2460937 c 0.1640625,0 0.62109375,0 1.00781255,-0.1875 v 3.55078129 c 0,0.234375 0,0.328125 -0.6914063,0.328125 H 0.80946875 V -9.765625e-4 C 0.938375,-0.01269531 1.7938438,-0.02441406 2.0516563,-0.02441406 c 0.2109375,0 1.0898437,0.01171875 1.2421875,0.0234374975 V -0.24707031 H 3.0360313 c -0.703125,0 -0.703125,-0.09375 -0.703125,-0.328125 z m 0,0"
       style="fill:#000000;fill-opacity:1;fill-rule:nonzero;stroke:none"
       aria-label="1"
       transform="matrix(1.3333333,0,0,1.3333333,48.061333,52.333333)" />
    <path
       id="path4"
       d="m 3.7259375,-6.0362734 c 0.09375,-0.3632813 0.1171875,-0.4570313 0.9023438,-0.4570313 0.2460937,0 0.3164062,0 0.3164062,-0.1875 0,-0.1289062 -0.1054687,-0.1289062 -0.140625,-0.1289062 -0.2929687,0 -1.03125,0.035156 -1.3125,0.035156 -0.3046875,0 -1.03125,-0.035156 -1.3359375,-0.035156 -0.058594,0 -0.1992187,0 -0.1992187,0.1992187 0,0.1171875 0.09375,0.1171875 0.28125,0.1171875 0.421875,0 0.6914062,0 0.6914062,0.1875 0,0.046875 0,0.070312 -0.023437,0.1640625 l -1.3476562,5.36718751 c -0.082031,0.36328125 -0.1171875,0.46875 -0.9023438,0.46875 -0.22265625,0 -0.31640625,0 -0.31640625,0.19921875 0,0.10546875 0.1171875,0.10546875 0.15234375,0.10546875 0.28125,0 1.0078125,-0.03515625 1.3007813,-0.03515625 0.3046875,0 1.03125,0.03515625 1.3359375,0.03515625 0.082031,0 0.1992187,0 0.1992187,-0.1875 0,-0.1171875 -0.082031,-0.1171875 -0.3046875,-0.1171875 -0.1757812,0 -0.2226562,0 -0.421875,-0.0234375 C 2.39,-0.35267969 2.3548438,-0.38783594 2.3548438,-0.50502344 c 0,-0.0703125 0.011719,-0.15234375 0.035156,-0.22265625 z m 0,0"
       style="fill:#000000;fill-opacity:1;fill-rule:nonzero;stroke:none"
       aria-label="I"
       transform="matrix(1.3333333,0,0,1.3333333,117.81333,50.341333)" />
    <path
       id="path5"
       d="m 3.5158828,-1.2666016 h -0.234375 c -0.023437,0.1523438 -0.082031,0.56250004 -0.1757812,0.63281254 -0.058594,0.0351563 -0.5976563,0.0351563 -0.6914063,0.0351563 H 1.1252578 C 1.8635391,-1.243164 2.1096328,-1.4423827 2.5197891,-1.7705078 c 0.515625,-0.4101563 0.9960937,-0.84375 0.9960937,-1.5 0,-0.8437499 -0.7382812,-1.3593749 -1.6289062,-1.3593749 -0.8671875,0 -1.45312504,0.609375 -1.45312504,1.2421874 0,0.3632812 0.3046875,0.3984375 0.375,0.3984375 0.1640625,0 0.37500004,-0.1171875 0.37500004,-0.375 0,-0.1289063 -0.058594,-0.3632813 -0.42187504,-0.3632813 0.22265625,-0.5039061 0.69140624,-0.65625 1.01953124,-0.65625 0.703125,0 1.0664063,0.5507813 1.0664063,1.1132813 0,0.609375 -0.4335938,1.0898437 -0.65625,1.3359375 l -1.68750004,1.66406254 c -0.0703125,0.0585938 -0.0703125,0.0703125 -0.0703125,0.2695312475 H 3.3166641 Z m 0,0"
       style="fill:#000000;fill-opacity:1;fill-rule:nonzero;stroke:none"
       aria-label="2"
       transform="matrix(1.3333333,0,0,1.3333333,123.652,52.333333)" />
    <path
       id="path6"
       d="m 3.7262734,-6.0346172 c 0.09375,-0.3632812 0.1171875,-0.4570312 0.9023438,-0.4570312 0.2460937,0 0.3164062,0 0.3164062,-0.1875 0,-0.1289063 -0.1054687,-0.1289063 -0.140625,-0.1289063 -0.2929687,0 -1.03125,0.035156 -1.3125,0.035156 -0.3046875,0 -1.03125,-0.035156 -1.3359375,-0.035156 -0.058594,0 -0.1992187,0 -0.1992187,0.1992188 0,0.1171875 0.09375,0.1171875 0.28125,0.1171875 0.421875,0 0.6914062,0 0.6914062,0.1875 0,0.046875 0,0.070312 -0.023437,0.1640625 l -1.3476562,5.36718746 c -0.082031,0.36328125 -0.1171875,0.46875 -0.90234376,0.46875 -0.22265625,0 -0.31640625,0 -0.31640625,0.19921875 0,0.1054687525 0.1171875,0.1054687525 0.15234375,0.1054687525 0.28125,0 1.00781246,-0.0351562525 1.30078126,-0.0351562525 0.3046875,0 1.03125,0.0351562525 1.3359375,0.0351562525 0.082031,0 0.1992187,0 0.1992187,-0.1875000025 0,-0.1171875 -0.082031,-0.1171875 -0.3046875,-0.1171875 -0.1757812,0 -0.2226562,0 -0.421875,-0.0234375 -0.2109375,-0.0234375 -0.2460937,-0.0585938 -0.2460937,-0.17578125 0,-0.0703125 0.011719,-0.15234375 0.035156,-0.22265625 z m 0,0"
       style="fill:#000000;fill-opacity:1;fill-rule:nonzero;stroke:none"
       aria-label="I"
       transform="matrix(1.3333333,0,0,1.3333333,66.738667,88.136)" />
    <path
       id="path7"
       d="m 2.331625,-4.4290078 c 0,-0.1875 -0.011719,-0.1992188 -0.2109375,-0.1992188 -0.4453125,0.4335938 -1.078125,0.4453125 -1.359375,0.4453125 v 0.2460938 c 0.1640625,0 0.6210938,0 1.0078125,-0.1875 v 3.55078124 c 0,0.234375 0,0.328125 -0.6914062,0.328125 H 0.8081875 V 6.796875e-4 C 0.93709375,-0.01103906 1.7925625,-0.02275781 2.050375,-0.02275781 c 0.2109375,0 1.0898438,0.01171875 1.2421875,0.0234374975 V -0.24541406 H 3.03475 c -0.703125,0 -0.703125,-0.09375 -0.703125,-0.328125 z m 0,0"
       style="fill:#000000;fill-opacity:1;fill-rule:nonzero;stroke:none"
       aria-label="1"
       transform="matrix(1.3333333,0,0,1.3333333,72.578667,90.128)" />
    <path
       id="path8"
       d="m 3.5499922,-5.7416484 c -0.082031,-0.1757813 -0.140625,-0.2109375 -0.234375,-0.2109375 -0.1289063,0 -0.1640625,0.070312 -0.2226563,0.2109375 l -2.47265621,5.56640621 c -0.0585938,0.12890625 -0.0703125,0.140625 -0.0703125,0.19921875 0,0.10546875 0.0820313,0.19921875 0.19921875,0.19921875 0.0703125,0 0.15234375,-0.0234375 0.22265625,-0.2109375 l 2.34375001,-5.28515621 2.34375,5.28515621 c 0.082031,0.2109375 0.1875,0.2109375 0.2226562,0.2109375 0.1171875,0 0.1992188,-0.09375 0.1992188,-0.19921875 0,-0.0234374975 0,-0.046875 -0.058594,-0.1640625 z m 0,0"
       style="fill:#000000;fill-opacity:1;fill-rule:nonzero;stroke:none"
       aria-label="∧"
       transform="matrix(1.3333333,0,0,1.3333333,81.489333,88.136)" />
    <path
       id="path9"
       d="m 3.7262188,-6.0346172 c 0.09375,-0.3632812 0.1171875,-0.4570312 0.9023437,-0.4570312 0.2460938,0 0.3164063,0 0.3164063,-0.1875 0,-0.1289063 -0.1054688,-0.1289063 -0.140625,-0.1289063 -0.2929688,0 -1.03125,0.035156 -1.3125,0.035156 -0.3046875,0 -1.03125,-0.035156 -1.3359375,-0.035156 -0.058594,0 -0.1992188,0 -0.1992188,0.1992188 0,0.1171875 0.09375,0.1171875 0.28125,0.1171875 0.421875,0 0.6914063,0 0.6914063,0.1875 0,0.046875 0,0.070312 -0.023437,0.1640625 L 1.55825,-0.77289844 c -0.082031,0.36328125 -0.1171875,0.46875 -0.90234375,0.46875 -0.22265625,0 -0.31640625,0 -0.31640625,0.19921875 0,0.1054687525 0.1171875,0.1054687525 0.15234375,0.1054687525 0.28125,0 1.00781255,-0.0351562525 1.30078125,-0.0351562525 0.3046875,0 1.03125,0.0351562525 1.3359375,0.0351562525 0.082031,0 0.1992188,0 0.1992188,-0.1875000025 0,-0.1171875 -0.082031,-0.1171875 -0.3046875,-0.1171875 -0.1757813,0 -0.2226563,0 -0.421875,-0.0234375 -0.2109375,-0.0234375 -0.2460938,-0.0585938 -0.2460938,-0.17578125 0,-0.0703125 0.011719,-0.15234375 0.035156,-0.22265625 z m 0,0"
       style="fill:#000000;fill-opacity:1;fill-rule:nonzero;stroke:none"
       aria-label="I"
       transform="matrix(1.3333333,0,0,1.3333333,93.297333,88.136)" />
    <path
       id="path10"
       d="m 3.5161641,-1.2649453 h -0.234375 c -0.023437,0.1523437 -0.082031,0.56249999 -0.1757813,0.63281249 -0.058594,0.0351563 -0.5976562,0.0351563 -0.6914062,0.0351563 H 1.1255391 c 0.7382812,-0.64453119 0.984375,-0.84374999 1.3945312,-1.17187499 0.515625,-0.4101562 0.9960938,-0.8437501 0.9960938,-1.5000001 0,-0.8437499 -0.7382813,-1.3593749 -1.6289063,-1.3593749 -0.8671875,0 -1.45312499,0.609375 -1.45312499,1.2421874 0,0.3632814 0.3046875,0.3984376 0.375,0.3984376 0.1640625,0 0.37499999,-0.1171876 0.37499999,-0.3750001 0,-0.1289061 -0.058594,-0.3632811 -0.42187499,-0.3632811 0.22265625,-0.5039063 0.69140629,-0.65625 1.01953129,-0.65625 0.703125,0 1.0664062,0.5507811 1.0664062,1.1132811 0,0.609375 -0.4335937,1.0898438 -0.65625,1.3359376 l -1.68749999,1.66406249 c -0.0703125,0.0585938 -0.0703125,0.0703125 -0.0703125,0.2695312475 H 3.3169453 Z m 0,0"
       style="fill:#000000;fill-opacity:1;fill-rule:nonzero;stroke:none"
       aria-label="2"
       transform="matrix(1.3333333,0,0,1.3333333,99.136,90.128)" />
    <path
       id="path11"
       d="m 3.8684297,-7.4892812 c 0,-0.1171875 -0.082031,-0.1992188 -0.1992188,-0.1992188 -0.1523437,0 -0.1757812,0.1054688 -0.2460937,0.3164063 -0.1171875,0.3984375 -0.011719,0.046875 -0.1289063,0.4453125 -0.1171875,-0.058594 -0.4335937,-0.2109375 -0.796875,-0.2109375 -0.5742187,0 -1.21875,0.3046875 -1.59374996,1.0664062 -0.38671875,0.8085938 -0.43359375,1.7109375 -0.43359375,2.6367188 0,0.6210937 0,2.4140625 0.86718751,3.1992187 -0.234375,0.76171875 -0.234375,0.78515625 -0.234375,0.80859375 0,0.1171875 0.082031,0.19921875 0.1992187,0.19921875 0.1523438,0 0.1875,-0.09375 0.2460938,-0.31640625 0.1171875,-0.3984375 0.011719,-0.046875 0.1289062,-0.4453125 0.234375,0.12890625 0.5390625,0.2109375 0.8085938,0.2109375 1.1132812,0 1.546875,-0.9375 1.734375,-1.41796875 0.2578125,-0.703125 0.28125,-1.5234375 0.28125,-2.2382812 0,-0.7382813 0,-2.390625 -0.8671875,-3.2226563 z M 1.4660859,-0.704125 c -0.328125,-0.6796875 -0.328125,-1.9101562 -0.328125,-2.8476562 0,-0.8085938 0,-1.5 0.140625,-2.1328125 0.1875,-0.9257813 0.7617188,-1.2304688 1.21875,-1.2304688 0.1992188,0 0.4570313,0.058594 0.7148438,0.28125 z m 2.0390625,-5.53125 c 0.328125,0.5742188 0.328125,1.734375 0.328125,2.6835938 0,0.7265625 0,1.453125 -0.1171875,2.1210937 C 3.5403047,-0.376 3.0129609,-0.001 2.4856172,-0.001 c -0.234375,0 -0.46875,-0.08203125 -0.7148438,-0.29296875 z m 0,0"
       style="fill:#000000;fill-opacity:1;fill-rule:nonzero;stroke:none"
       aria-label="∅"
       transform="matrix(1.3333333,0,0,1.3333333,82.596,127.00133)" />
    <path
       id="path12"
       d="M -6.94983,49.74217 -20.67702,36.01775 M -20.67761,20.67586 -7.66977,7.67094 m 15.33894,0 13.00785,13.00492 m 2.4e-4,15.34189 -13.7269,13.72442"
       style="fill:none;stroke:#000000;stroke-width:0.3985;stroke-linecap:butt;stroke-linejoin:miter;stroke-miterlimit:10;stroke-dasharray:none;stroke-opacity:1"
       transform="matrix(1.3333333,0,0,-1.3333333,85.917333,84.593333)" />
    <path
       id="path13"
       d="M 0,-7.67094 V -20.81421"
       style="fill:none;stroke:#000000;stroke-width:0.3985;stroke-linecap:butt;stroke-linejoin:miter;stroke-miterlimit:10;stroke-dasharray:none;stroke-opacity:1"
       transform="matrix(1.3333333,0,0,-1.3333333,85.917333,84.593333)" />
    <path
       id="path14"
       d="M 0,0 H 8.849"
       style="fill:none;stroke:#000000;stroke-width:0.398;stroke-linecap:butt;stroke-linejoin:miter;stroke-miterlimit:10;stroke-dasharray:none;stroke-opacity:1"
       transform="matrix(1.3333333,0,0,-1.3333333,4.428,40.732)" />
    <path
       id="path15"
       d="m 3.7278281,-6.0361797 c 0.09375,-0.3632812 0.1171875,-0.4570312 0.9023438,-0.4570312 0.2460937,0 0.3164062,0 0.3164062,-0.1875 0,-0.1289063 -0.1054687,-0.1289063 -0.140625,-0.1289063 -0.2929687,0 -1.03125,0.035156 -1.3125,0.035156 -0.3046875,0 -1.03125,-0.035156 -1.3359375,-0.035156 -0.058594,0 -0.1992187,0 -0.1992187,0.1992188 0,0.1171875 0.09375,0.1171875 0.28125,0.1171875 0.421875,0 0.6914062,0 0.6914062,0.1875 0,0.046875 0,0.070312 -0.023437,0.1640625 l -1.3476562,5.36718746 c -0.082031,0.36328125 -0.1171875,0.46875 -0.90234378,0.46875 -0.22265625,0 -0.31640625,0 -0.31640625,0.19921875 0,0.10546875 0.1171875,0.10546875 0.15234375,0.10546875 0.28125,0 1.00781248,-0.03515625 1.30078128,-0.03515625 0.3046875,0 1.03125,0.03515625 1.3359375,0.03515625 0.082031,0 0.1992187,0 0.1992187,-0.1875 0,-0.1171875 -0.082031,-0.1171875 -0.3046875,-0.1171875 -0.1757812,0 -0.2226562,0 -0.421875,-0.0234375 -0.2109375,-0.0234375 -0.2460937,-0.0585938 -0.2460937,-0.17578125 0,-0.0703125 0.011719,-0.15234375 0.035156,-0.22265625 z m 0,0"
       style="fill:#000000;fill-opacity:1;fill-rule:nonzero;stroke:none"
       aria-label="I"
       transform="matrix(1.3333333,0,0,1.3333333,4.428,51.669333)" />
    <path
       id="path16"
       d="m 2.33125,-4.4305703 c 0,-0.1875 -0.011719,-0.1992188 -0.2109375,-0.1992188 -0.4453125,0.4335938 -1.078125,0.4453125 -1.359375,0.4453125 v 0.2460938 c 0.1640625,0 0.6210937,0 1.0078125,-0.1875 v 3.55078124 c 0,0.234375 0,0.328125 -0.6914063,0.328125 H 0.8078125 V -8.828125e-4 C 0.93671875,-0.01260156 1.7921875,-0.02432031 2.05,-0.02432031 c 0.2109375,0 1.0898437,0.01171875 1.2421875,0.0234374975 V -0.24697656 H 3.034375 c -0.703125,0 -0.703125,-0.09375 -0.703125,-0.328125 z m 0,0"
       style="fill:#000000;fill-opacity:1;fill-rule:nonzero;stroke:none"
       aria-label="1"
       transform="matrix(1.3333333,0,0,1.3333333,10.266667,53.661333)" />
    <path
       id="path17"
       d="M -7.11748,53.13695 -56.69362,28.3468 -6.0105,-22.33978"
       style="fill:none;stroke:#000000;stroke-width:0.3985;stroke-linecap:butt;stroke-linejoin:miter;stroke-miterlimit:10;stroke-dasharray:none;stroke-opacity:1"
       transform="matrix(1.3333333,0,0,-1.3333333,85.917333,84.593333)" />
  </g>
</svg>
