<?xml version="1.0" encoding="UTF-8" standalone="no"?>
<!-- Created with Inkscape (http://www.inkscape.org/) -->

<svg
   version="1.1"
   id="svg1"
   width="321.34134"
   height="48.972"
   viewBox="0 0 321.34134 48.972"
   xmlns="http://www.w3.org/2000/svg"
   xmlns:svg="http://www.w3.org/2000/svg">
  <defs
     id="defs1" />
  <g
     id="g1">
    <path
       id="path1"
       d="M -28.3468,0 H 197.96938"
       style="fill:none;stroke:#000000;stroke-width:0.3985;stroke-linecap:butt;stroke-linejoin:miter;stroke-miterlimit:10;stroke-dasharray:none;stroke-opacity:1"
       transform="matrix(1.3333333,0,0,-1.3333333,38.061333,28.634667)" />
    <path
       id="path2"
       d="M -1.19551,1.59401 C -1.09587,0.99626 0,0.09961 0.29886,0 0,-0.09961 -1.09587,-0.99626 -1.19551,-1.59401"
       style="fill:none;stroke:#000000;stroke-width:0.31879;stroke-linecap:round;stroke-linejoin:round;stroke-miterlimit:10;stroke-dasharray:none;stroke-opacity:1"
       transform="matrix(1.3333333,0,0,-1.3333333,302.02051,28.634667)" />
    <path
       id="path3"
       d="m 2.6711094,-3.1277031 h 0.3515625 l 1.5,2.30859372 c 0.09375,0.1640625 0.3398437,0.55078125 0.4453125,0.703125 0.070312,0.1171875 0.1054687,0.1171875 0.328125,0.1171875 h 1.3828125 c 0.1757812,0 0.328125,0 0.328125,-0.17578125 0,-0.0820313 -0.070312,-0.15234375 -0.1523438,-0.17578125 -0.375,-0.0820313 -0.8554687,-0.73828122 -1.1015625,-1.05468752 -0.070312,-0.09375 -0.5625,-0.75 -1.2304687,-1.828125 0.890625,-0.1640625 1.7460937,-0.5390625 1.7460937,-1.7226562 0,-1.3828125 -1.4648437,-1.8632813 -2.6484375,-1.8632813 H 0.50314063 c -0.1875,0 -0.33984375,0 -0.33984375,0.1757813 0,0.1640625 0.1875,0.1640625 0.26953125,0.1640625 0.5625,0 0.60937497,0.070312 0.60937497,0.5742187 v 4.99218752 c 0,0.4921875 -0.046875,0.5625 -0.60937497,0.5625 -0.0820313,0 -0.26953125,0 -0.26953125,0.17578125 0,0.17578125 0.15234375,0.17578125 0.33984375,0.17578125 H 3.2218906 c 0.1875,0 0.328125,0 0.328125,-0.17578125 0,-0.17578125 -0.1640625,-0.17578125 -0.2695312,-0.17578125 -0.5742188,0 -0.609375,-0.0820313 -0.609375,-0.5625 z m 1.921875,-0.4921875 c 0.28125,-0.3632813 0.3046875,-0.890625 0.3046875,-1.3242188 0,-0.4804687 -0.058594,-1.0078125 -0.375,-1.4179687 0.4101562,0.082031 1.3945312,0.3984375 1.3945312,1.40625 0,0.6445312 -0.3046875,1.1484375 -1.3242187,1.3359375 z m -1.921875,-2.3203125 c 0,-0.1992188 0,-0.5390625 0.6210937,-0.5390625 0.84375,0 1.2539063,0.3515625 1.2539063,1.5351562 0,1.2773438 -0.3046875,1.4648438 -1.875,1.4648438 z m -1.359375,5.58984372 c 0.082031,-0.17578125 0.082031,-0.45703125 0.082031,-0.55078125 V -5.9284844 c 0,-0.09375 0,-0.3632812 -0.082031,-0.5507812 h 1.1367187 c -0.1289062,0.1640625 -0.1289062,0.3632812 -0.1289062,0.515625 v 5.06249997 c 0,0.10546875 0,0.375 0.082031,0.55078125 z M 3.4328281,-3.1277031 c 0.070312,-0.011719 0.1171875,-0.023437 0.1875,-0.023437 0.1523438,0 0.375,-0.011719 0.5273438,-0.035156 0.140625,0.234375 1.21875,2.015625 2.0507812,2.83593752 H 5.2257969 Z m 0,0"
       style="fill:#000000;fill-opacity:1;fill-rule:nonzero;stroke:none"
       aria-label="R"
       transform="matrix(1.3333333,0,0,1.3333333,307.32133,33.209333)" />
    <path
       id="path4"
       d="M 28.3468,0 H 85.04042"
       style="fill:none;stroke:#000000;stroke-width:0.79701;stroke-linecap:butt;stroke-linejoin:miter;stroke-miterlimit:10;stroke-dasharray:none;stroke-opacity:1"
       transform="matrix(1.3333333,0,0,-1.3333333,38.061333,28.634667)" />
    <path
       id="path5"
       d="m 30.33936,0 c 0,1.10046 -0.89208,1.99255 -1.99256,1.99255 -1.10046,0 -1.99255,-0.89209 -1.99255,-1.99255 0,-1.10046 0.89209,-1.99255 1.99255,-1.99255 1.10048,0 1.99256,0.89209 1.99256,1.99255 z"
       style="fill:#000000;fill-opacity:1;fill-rule:nonzero;stroke:none"
       transform="matrix(1.3333333,0,0,-1.3333333,38.061333,28.634667)" />
    <path
       id="path6"
       d="m 3.7162344,-3.7615625 c -0.1757813,-0.375 -0.46875,-0.6445313 -0.9140625,-0.6445313 -1.171875,0 -2.40234377,1.4648438 -2.40234377,2.9179688 0,0.9375 0.55078125,1.59375 1.32421877,1.59375 0.1992187,0 0.703125,-0.03515625 1.3007812,-0.73828125 C 3.0951406,-0.2225 3.4467031,0.105625 3.9271719,0.105625 c 0.3515625,0 0.5742187,-0.22265625 0.7382812,-0.5390625 0.1640625,-0.36328125 0.2929688,-0.9726563 0.2929688,-0.9960938 0,-0.09375 -0.082031,-0.09375 -0.1171875,-0.09375 -0.09375,0 -0.1054688,0.035156 -0.140625,0.1757813 -0.1640625,0.64453125 -0.3515625,1.2421875 -0.75,1.2421875 -0.2695313,0 -0.3046875,-0.2578125 -0.3046875,-0.45703125 0,-0.22265625 0.023437,-0.3046875 0.1289062,-0.73828125 C 3.8920156,-1.7225 3.9037344,-1.8279688 3.9974844,-2.2029688 L 4.3490469,-3.5975 c 0.070312,-0.28125 0.070312,-0.2929688 0.070312,-0.3398438 0,-0.1640625 -0.1171875,-0.2695312 -0.28125,-0.2695312 -0.2460938,0 -0.3867188,0.2226562 -0.4218745,0.4453125 z m -0.6445313,2.578125 c -0.046875,0.1757812 -0.046875,0.19921875 -0.1992187,0.36328125 -0.4453125,0.55078125 -0.84375,0.71484375 -1.125,0.71484375 -0.5039063,0 -0.6445313,-0.55078125 -0.6445313,-0.9375 0,-0.5039063 0.328125,-1.7226563 0.5507813,-2.1796875 0.3046875,-0.5976563 0.7617187,-0.9609375 1.1601562,-0.9609375 0.6445313,0 0.7851563,0.8203125 0.7851563,0.8789062 0,0.058594 -0.023437,0.1171875 -0.035156,0.1640625 z m 0,0"
       style="fill:#000000;fill-opacity:1;fill-rule:nonzero;stroke:none"
       aria-label="a"
       transform="matrix(1.3333333,0,0,1.3333333,69.365333,39.046667)" />
    <path
       id="path7"
       d="m 2.3310703,-4.4293906 c 0,-0.1875 -0.011719,-0.1992188 -0.2109375,-0.1992188 -0.4453125,0.4335938 -1.078125,0.4453125 -1.35937499,0.4453125 v 0.2460938 c 0.1640625,0 0.62109379,0 1.00781249,-0.1875 v 3.55078122 c 0,0.234375 0,0.328125 -0.6914062,0.328125 H 0.80763281 V 2.96875e-4 C 0.93653906,-0.01142188 1.7920078,-0.02314063 2.0498203,-0.02314063 c 0.2109375,0 1.0898438,0.01171875 1.2421875,0.023437505 V -0.24579688 H 3.0341953 c -0.703125,0 -0.703125,-0.09375 -0.703125,-0.328125 z m 0,0"
       style="fill:#000000;fill-opacity:1;fill-rule:nonzero;stroke:none"
       aria-label="1"
       transform="matrix(1.3333333,0,0,1.3333333,76.388,41.038667)" />
    <path
       id="path8"
       d="m 87.03297,0 c 0,1.10046 -0.89207,1.99255 -1.99255,1.99255 -1.10046,0 -1.99255,-0.89209 -1.99255,-1.99255 0,-1.10046 0.89209,-1.99255 1.99255,-1.99255 1.10048,0 1.99255,0.89209 1.99255,1.99255 z"
       style="fill:#000000;fill-opacity:1;fill-rule:nonzero;stroke:none"
       transform="matrix(1.3333333,0,0,-1.3333333,38.061333,28.634667)" />
    <path
       id="path9"
       d="m 2.3787969,-6.8095078 c 0,0 0,-0.1054688 -0.1289063,-0.1054688 -0.2226562,0 -0.9492187,0.082031 -1.21875,0.1054688 -0.0703125,0 -0.18749997,0.011719 -0.18749997,0.1992187 0,0.1171875 0.09375,0.1171875 0.24609377,0.1171875 0.46875,0 0.4921875,0.070312 0.4921875,0.1640625 0,0.070312 -0.082031,0.4101563 -0.140625,0.6210938 l -0.80859377,3.2460937 c -0.12890625,0.5039063 -0.1640625,0.65625 -0.1640625,1.0078125 0,0.94921879 0.52734375,1.55859379 1.26562497,1.55859379 1.171875,0 2.4023438,-1.47656249 2.4023438,-2.91796879 0,-0.9023437 -0.5273438,-1.59375 -1.3242188,-1.59375 -0.4570312,0 -0.8671875,0.2929688 -1.171875,0.5976563 z m -0.9375,3.7734375 c 0.058594,-0.2226563 0.058594,-0.2460938 0.1523437,-0.3515625 0.4921875,-0.6445313 0.9375,-0.796875 1.1953125,-0.796875 0.3632813,0 0.6328125,0.2929687 0.6328125,0.9375 0,0.5859375 -0.328125,1.734375 -0.515625,2.109375 -0.328125,0.66796874 -0.7851562,1.03124999 -1.171875,1.03124999 -0.3398437,0 -0.6679687,-0.26953125 -0.6679687,-1.00781249 0,-0.1875 0,-0.3867188 0.1640625,-1.0078125 z m 0,0"
       style="fill:#000000;fill-opacity:1;fill-rule:nonzero;stroke:none"
       aria-label="b"
       transform="matrix(1.3333333,0,0,1.3333333,145.61733,42.552)" />
    <path
       id="path10"
       d="m 2.3313359,-4.4304609 c 0,-0.1875 -0.011719,-0.1992188 -0.2109375,-0.1992188 -0.4453125,0.4335938 -1.078125,0.4453125 -1.35937496,0.4453125 v 0.2460938 c 0.1640625,0 0.62109376,0 1.00781246,-0.1875 v 3.55078121 c 0,0.234375 0,0.328125 -0.6914062,0.328125 H 0.80789844 V -7.734375e-4 C 0.93680469,-0.01249219 1.7922734,-0.02421094 2.0500859,-0.02421094 c 0.2109375,0 1.0898438,0.01171875 1.2421875,0.0234375025 V -0.24686719 H 3.0344609 c -0.703125,0 -0.703125,-0.09375 -0.703125,-0.328125 z m 0,0"
       style="fill:#000000;fill-opacity:1;fill-rule:nonzero;stroke:none"
       aria-label="1"
       transform="matrix(1.3333333,0,0,1.3333333,151.31733,44.544)" />
    <path
       id="path11"
       d="m 3.7279922,-6.0352422 c 0.09375,-0.3632812 0.1171875,-0.4570312 0.9023437,-0.4570312 0.2460938,0 0.3164063,0 0.3164063,-0.1875 0,-0.1289063 -0.1054688,-0.1289063 -0.140625,-0.1289063 -0.2929688,0 -1.03125,0.035156 -1.3125,0.035156 -0.3046875,0 -1.03125,-0.035156 -1.3359375,-0.035156 -0.058594,0 -0.1992188,0 -0.1992188,0.1992188 0,0.1171875 0.09375,0.1171875 0.28125,0.1171875 0.421875,0 0.6914063,0 0.6914063,0.1875 0,0.046875 0,0.070312 -0.023437,0.1640625 l -1.3476563,5.36718746 c -0.082031,0.36328125 -0.1171875,0.46875 -0.90234371,0.46875 -0.22265625,0 -0.31640625,0 -0.31640625,0.19921875 0,0.1054687525 0.1171875,0.1054687525 0.15234375,0.1054687525 0.28125,0 1.00781251,-0.0351562525 1.30078121,-0.0351562525 0.3046875,0 1.03125,0.0351562525 1.3359375,0.0351562525 0.082031,0 0.1992188,0 0.1992188,-0.1875000025 0,-0.1171875 -0.082031,-0.1171875 -0.3046875,-0.1171875 -0.1757813,0 -0.2226563,0 -0.421875,-0.0234375 -0.2109375,-0.0234375 -0.2460938,-0.0585938 -0.2460938,-0.17578125 0,-0.0703125 0.011719,-0.15234375 0.035156,-0.22265625 z m 0,0"
       style="fill:#000000;fill-opacity:1;fill-rule:nonzero;stroke:none"
       aria-label="I"
       transform="matrix(1.3333333,0,0,1.3333333,107.752,21.949333)" />
    <path
       id="path12"
       d="m 2.3333437,-4.4296328 c 0,-0.1875 -0.011719,-0.1992188 -0.2109375,-0.1992188 -0.4453125,0.4335938 -1.078125,0.4453125 -1.35937495,0.4453125 v 0.2460938 c 0.1640625,0 0.62109375,0 1.00781245,-0.1875 v 3.55078124 c 0,0.234375 0,0.328125 -0.6914062,0.328125 H 0.80990625 V 5.46875e-5 C 0.9388125,-0.01166406 1.7942812,-0.02338281 2.0520937,-0.02338281 c 0.2109375,0 1.0898438,0.01171875 1.2421875,0.0234374975 V -0.24603906 H 3.0364687 c -0.703125,0 -0.703125,-0.09375 -0.703125,-0.328125 z m 0,0"
       style="fill:#000000;fill-opacity:1;fill-rule:nonzero;stroke:none"
       aria-label="1"
       transform="matrix(1.3333333,0,0,1.3333333,113.592,23.941333)" />
    <path
       id="path13"
       d="m 56.69362,0 h 85.04042"
       style="fill:none;stroke:#000000;stroke-width:0.79701;stroke-linecap:butt;stroke-linejoin:miter;stroke-miterlimit:10;stroke-dasharray:none;stroke-opacity:1"
       transform="matrix(1.3333333,0,0,-1.3333333,38.061333,28.634667)" />
    <path
       id="path14"
       d="m 58.68617,0 c 0,1.10046 -0.89209,1.99255 -1.99255,1.99255 -1.10048,0 -1.99255,-0.89209 -1.99255,-1.99255 0,-1.10046 0.89207,-1.99255 1.99255,-1.99255 1.10046,0 1.99255,0.89209 1.99255,1.99255 z"
       style="fill:#000000;fill-opacity:1;fill-rule:nonzero;stroke:none"
       transform="matrix(1.3333333,0,0,-1.3333333,38.061333,28.634667)" />
    <path
       id="path15"
       d="m 143.7266,0 c 0,1.10046 -0.89208,1.99255 -1.99256,1.99255 -1.10046,0 -1.99255,-0.89209 -1.99255,-1.99255 0,-1.10046 0.89209,-1.99255 1.99255,-1.99255 1.10048,0 1.99256,0.89209 1.99256,1.99255 z"
       style="fill:#000000;fill-opacity:1;fill-rule:nonzero;stroke:none"
       transform="matrix(1.3333333,0,0,-1.3333333,38.061333,28.634667)" />
    <path
       id="path16"
       d="m 2.3791797,-6.8095078 c 0,0 0,-0.1054688 -0.1289063,-0.1054688 -0.2226562,0 -0.9492187,0.082031 -1.21875,0.1054688 -0.0703125,0 -0.18749996,0.011719 -0.18749996,0.1992187 0,0.1171875 0.09375,0.1171875 0.24609376,0.1171875 0.46875,0 0.4921875,0.070312 0.4921875,0.1640625 0,0.070312 -0.082031,0.4101563 -0.140625,0.6210938 l -0.80859376,3.2460937 c -0.12890625,0.5039063 -0.1640625,0.65625 -0.1640625,1.0078125 0,0.94921879 0.52734375,1.55859379 1.26562496,1.55859379 1.171875,0 2.4023438,-1.47656249 2.4023438,-2.91796879 0,-0.9023437 -0.5273438,-1.59375 -1.3242188,-1.59375 -0.4570312,0 -0.8671875,0.2929688 -1.171875,0.5976563 z m -0.9375,3.7734375 c 0.058594,-0.2226563 0.058594,-0.2460938 0.1523437,-0.3515625 0.4921875,-0.6445313 0.9375,-0.796875 1.1953125,-0.796875 0.3632813,0 0.6328125,0.2929687 0.6328125,0.9375 0,0.5859375 -0.328125,1.734375 -0.515625,2.109375 -0.328125,0.66796874 -0.7851562,1.03124999 -1.171875,1.03124999 -0.3398437,0 -0.6679687,-0.26953125 -0.6679687,-1.00781249 0,-0.1875 0,-0.3867188 0.1640625,-1.0078125 z m 0,0"
       style="fill:#000000;fill-opacity:1;fill-rule:nonzero;stroke:none"
       aria-label="b"
       transform="matrix(1.3333333,0,0,1.3333333,221.20667,42.552)" />
    <path
       id="path17"
       d="M 3.5143125,-1.2663984 H 3.2799375 C 3.2565,-1.1140547 3.1979062,-0.70389844 3.1041562,-0.63358594 3.0455625,-0.59842969 2.5065,-0.59842969 2.41275,-0.59842969 H 1.1236875 c 0.7382812,-0.64453121 0.984375,-0.84375001 1.3945312,-1.17187501 0.515625,-0.4101562 0.9960938,-0.84375 0.9960938,-1.5 0,-0.84375 -0.7382813,-1.359375 -1.6289063,-1.359375 -0.8671875,0 -1.45312495,0.609375 -1.45312495,1.2421875 0,0.3632813 0.3046875,0.3984375 0.375,0.3984375 0.1640625,0 0.37499995,-0.1171875 0.37499995,-0.375 0,-0.1289062 -0.058594,-0.3632812 -0.42187495,-0.3632812 0.22265625,-0.5039063 0.69140625,-0.65625 1.01953125,-0.65625 0.703125,0 1.0664062,0.5507812 1.0664062,1.1132812 0,0.609375 -0.4335937,1.0898438 -0.65625,1.3359375 l -1.68749995,1.66406251 c -0.0703125,0.0585938 -0.0703125,0.0703125 -0.0703125,0.2695312525 H 3.3150937 Z m 0,0"
       style="fill:#000000;fill-opacity:1;fill-rule:nonzero;stroke:none"
       aria-label="2"
       transform="matrix(1.3333333,0,0,1.3333333,226.908,44.544)" />
    <path
       id="path18"
       d="m 3.7265469,-6.0352422 c 0.09375,-0.3632812 0.1171875,-0.4570312 0.9023437,-0.4570312 0.2460938,0 0.3164063,0 0.3164063,-0.1875 0,-0.1289063 -0.1054688,-0.1289063 -0.140625,-0.1289063 -0.2929688,0 -1.03125,0.035156 -1.3125,0.035156 -0.3046875,0 -1.03125,-0.035156 -1.3359375,-0.035156 -0.058594,0 -0.1992188,0 -0.1992188,0.1992188 0,0.1171875 0.09375,0.1171875 0.28125,0.1171875 0.421875,0 0.6914063,0 0.6914063,0.1875 0,0.046875 0,0.070312 -0.023437,0.1640625 l -1.3476563,5.36718746 c -0.082031,0.36328125 -0.1171875,0.46875 -0.90234372,0.46875 -0.22265625,0 -0.31640625,0 -0.31640625,0.19921875 0,0.1054687525 0.1171875,0.1054687525 0.15234375,0.1054687525 0.28125,0 1.00781252,-0.0351562525 1.30078122,-0.0351562525 0.3046875,0 1.03125,0.0351562525 1.3359375,0.0351562525 0.082031,0 0.1992188,0 0.1992188,-0.1875000025 0,-0.1171875 -0.082031,-0.1171875 -0.3046875,-0.1171875 -0.1757813,0 -0.2226563,0 -0.421875,-0.0234375 -0.2109375,-0.0234375 -0.2460938,-0.0585938 -0.2460938,-0.17578125 0,-0.0703125 0.011719,-0.15234375 0.035156,-0.22265625 z m 0,0"
       style="fill:#000000;fill-opacity:1;fill-rule:nonzero;stroke:none"
       aria-label="I"
       transform="matrix(1.3333333,0,0,1.3333333,164.44533,21.949333)" />
    <path
       id="path19"
       d="m 3.5164922,-1.2655703 h -0.234375 c -0.023437,0.1523437 -0.082031,0.56249999 -0.1757813,0.63281249 -0.058594,0.0351563 -0.5976562,0.0351563 -0.6914062,0.0351563 H 1.1258672 c 0.7382812,-0.64453129 0.984375,-0.84374999 1.3945312,-1.17187499 0.515625,-0.4101563 0.9960938,-0.8437501 0.9960938,-1.5000001 0,-0.8437499 -0.7382813,-1.3593749 -1.6289063,-1.3593749 -0.8671875,0 -1.45312496,0.609375 -1.45312496,1.2421874 0,0.3632813 0.3046875,0.3984375 0.375,0.3984375 0.1640625,0 0.37499996,-0.1171875 0.37499996,-0.375 0,-0.1289062 -0.058594,-0.3632812 -0.42187496,-0.3632812 0.22265625,-0.5039062 0.69140626,-0.6562499 1.01953126,-0.6562499 0.703125,0 1.0664062,0.5507812 1.0664062,1.1132812 0,0.609375 -0.4335937,1.0898438 -0.65625,1.3359375 l -1.68749996,1.66406249 c -0.0703125,0.0585937 -0.0703125,0.0703125 -0.0703125,0.2695312475 H 3.3172734 Z m 0,0"
       style="fill:#000000;fill-opacity:1;fill-rule:nonzero;stroke:none"
       aria-label="2"
       transform="matrix(1.3333333,0,0,1.3333333,170.284,23.941333)" />
    <path
       id="path20"
       d="M 14.17339,0 H 155.90744"
       style="fill:none;stroke:#ff0000;stroke-width:0.79701;stroke-linecap:butt;stroke-linejoin:miter;stroke-miterlimit:10;stroke-dasharray:2.98883, 2.98883;stroke-dashoffset:0;stroke-opacity:1"
       transform="matrix(1.3333333,0,0,-1.3333333,38.061333,28.634667)" />
    <path
       id="path21"
       d="m 16.16594,0 c 0,1.10046 -0.89208,1.99255 -1.99255,1.99255 -1.10047,0 -1.99256,-0.89209 -1.99256,-1.99255 0,-1.10046 0.89209,-1.99255 1.99256,-1.99255 1.10047,0 1.99255,0.89209 1.99255,1.99255 z"
       style="fill:#ff0000;fill-opacity:1;fill-rule:nonzero;stroke:none"
       transform="matrix(1.3333333,0,0,-1.3333333,38.061333,28.634667)" />
    <path
       id="path22"
       d="m 3.7157578,-3.7615625 c -0.1757812,-0.375 -0.46875,-0.6445313 -0.9140625,-0.6445313 -1.171875,0 -2.40234374,1.4648438 -2.40234374,2.9179688 0,0.9375 0.55078125,1.59375 1.32421874,1.59375 0.1992188,0 0.703125,-0.03515625 1.3007813,-0.73828125 C 3.0946641,-0.2225 3.4462266,0.105625 3.9266953,0.105625 c 0.3515625,0 0.5742188,-0.22265625 0.7382813,-0.5390625 0.1640625,-0.36328125 0.2929687,-0.9726563 0.2929687,-0.9960938 0,-0.09375 -0.082031,-0.09375 -0.1171875,-0.09375 -0.09375,0 -0.1054687,0.035156 -0.140625,0.1757813 -0.1640625,0.64453125 -0.3515625,1.2421875 -0.75,1.2421875 -0.2695312,0 -0.3046875,-0.2578125 -0.3046875,-0.45703125 0,-0.22265625 0.023437,-0.3046875 0.1289063,-0.73828125 C 3.8915391,-1.7225 3.9032578,-1.8279688 3.9970078,-2.2029688 L 4.3485703,-3.5975 c 0.070312,-0.28125 0.070312,-0.2929688 0.070312,-0.3398438 0,-0.1640625 -0.1171875,-0.2695312 -0.28125,-0.2695312 -0.2460937,0 -0.3867187,0.2226562 -0.4218745,0.4453125 z m -0.6445312,2.578125 c -0.046875,0.1757812 -0.046875,0.19921875 -0.1992188,0.36328125 -0.4453125,0.55078125 -0.84375,0.71484375 -1.125,0.71484375 -0.5039062,0 -0.6445312,-0.55078125 -0.6445312,-0.9375 0,-0.5039063 0.328125,-1.7226563 0.5507812,-2.1796875 0.3046875,-0.5976563 0.7617188,-0.9609375 1.1601563,-0.9609375 0.6445312,0 0.7851562,0.8203125 0.7851562,0.8789062 0,0.058594 -0.023437,0.1171875 -0.035156,0.1640625 z m 0,0"
       style="fill:#ff0000;fill-opacity:1;fill-rule:nonzero;stroke:none"
       aria-label="a"
       transform="matrix(1.3333333,0,0,1.3333333,53.448,39.046667)" />
    <path
       id="path23"
       d="m 157.9,0 c 0,1.10046 -0.8921,1.99255 -1.99256,1.99255 -1.10048,0 -1.99255,-0.89209 -1.99255,-1.99255 0,-1.10046 0.89207,-1.99255 1.99255,-1.99255 1.10046,0 1.99256,0.89209 1.99256,1.99255 z"
       style="fill:#ff0000;fill-opacity:1;fill-rule:nonzero;stroke:none"
       transform="matrix(1.3333333,0,0,-1.3333333,38.061333,28.634667)" />
    <path
       id="path24"
       d="m 2.3803594,-6.8095078 c 0,0 0,-0.1054688 -0.1289063,-0.1054688 -0.2226562,0 -0.9492187,0.082031 -1.21875,0.1054688 -0.0703125,0 -0.18749997,0.011719 -0.18749997,0.1992187 0,0.1171875 0.09375,0.1171875 0.24609377,0.1171875 0.46875,0 0.4921875,0.070312 0.4921875,0.1640625 0,0.070312 -0.082031,0.4101563 -0.140625,0.6210938 l -0.80859377,3.2460937 c -0.12890625,0.5039063 -0.1640625,0.65625 -0.1640625,1.0078125 0,0.94921879 0.52734375,1.55859379 1.26562497,1.55859379 1.171875,0 2.4023438,-1.47656249 2.4023438,-2.91796879 0,-0.9023437 -0.5273438,-1.59375 -1.3242188,-1.59375 -0.4570312,0 -0.8671875,0.2929688 -1.171875,0.5976563 z m -0.9375,3.7734375 c 0.058594,-0.2226563 0.058594,-0.2460938 0.1523437,-0.3515625 0.4921875,-0.6445313 0.9375,-0.796875 1.1953125,-0.796875 0.3632813,0 0.6328125,0.2929687 0.6328125,0.9375 0,0.5859375 -0.328125,1.734375 -0.515625,2.109375 -0.328125,0.66796874 -0.7851562,1.03124999 -1.171875,1.03124999 -0.3398437,0 -0.6679687,-0.26953125 -0.6679687,-1.00781249 0,-0.1875 0,-0.3867188 0.1640625,-1.0078125 z m 0,0"
       style="fill:#ff0000;fill-opacity:1;fill-rule:nonzero;stroke:none"
       aria-label="b"
       transform="matrix(1.3333333,0,0,1.3333333,243.084,42.552)" />
    <path
       id="path25"
       d="m 8.7527734,0.00132812 v -0.3046875 h -0.234375 c -0.7734375,0 -0.7851562,-0.1171875 -0.7851562,-0.46875 V -6.0221094 c 0,-0.3632812 0.011719,-0.46875 0.7851562,-0.46875 h 0.234375 V -6.8072656 H 7.0769922 c -0.2695313,0 -0.2695313,0.011719 -0.3398438,0.1992187 l -2.1796875,5.6015625 -2.15625,-5.578125 C 2.3074609,-6.8072656 2.2840234,-6.8072656 2.0496484,-6.8072656 H 0.36214844 v 0.3164062 h 0.24609375 c 0.76171871,0 0.78515621,0.1054688 0.78515621,0.46875 v 4.9804688 c 0,0.26953122 0,0.73828122 -1.03124996,0.73828122 v 0.3046875 L 1.5340234,-0.03382813 2.6941797,0.00132812 v -0.3046875 c -1.0195313,0 -1.0195313,-0.46875 -1.0195313,-0.73828122 v -5.3671875 h 0.011719 l 2.4023437,6.18749997 c 0.046875,0.12890625 0.09375,0.22265625 0.1992188,0.22265625 0.1054687,0 0.1289062,-0.08203125 0.1757812,-0.1875 L 6.9129297,-6.4908594 h 0.011719 v 5.71875002 c 0,0.3515625 -0.023437,0.46875 -0.7851562,0.46875 H 5.8933984 v 0.3046875 c 0.375,-0.03515625 1.0429688,-0.03515625 1.4414063,-0.03515625 0.3867187,0 1.0546875,0 1.4179687,0.03515625 z M 13.273281,-1.1822656 c 0,-0.1054688 -0.08203,-0.1171875 -0.128906,-0.1171875 -0.09375,0 -0.117188,0.058594 -0.128906,0.140625 -0.351563,1.01953122 -1.253907,1.01953122 -1.347657,1.01953122 -0.503906,0 -0.902343,-0.29296875 -1.125,-0.66796875 C 10.238125,-1.2877344 10.238125,-1.9439844 10.238125,-2.2955469 h 2.789062 c 0.210938,0 0.246094,0 0.246094,-0.2109375 0,-0.984375 -0.539062,-1.9570312 -1.78125,-1.9570312 -1.160156,0 -2.0742185,1.03125 -2.0742185,2.2734375 0,1.33593747 1.0429685,2.29687497 2.1914065,2.29687497 1.21875,0 1.664062,-1.1015625 1.664062,-1.28906247 z m -0.65625,-1.3242188 h -2.367187 c 0.05859,-1.4882812 0.902343,-1.734375 1.242187,-1.734375 1.019531,0 1.125,1.3476563 1.125,1.734375 z m 4.564453,-1.2890625 c 0,-0.3164062 -0.304687,-0.609375 -0.726562,-0.609375 -0.738281,0 -1.089844,0.6679688 -1.230469,1.1015625 v -1.1015625 l -1.382812,0.1171875 v 0.3046875 c 0.691406,0 0.773437,0.070312 0.773437,0.5625 v 2.66015627 c 0,0.45703125 -0.105469,0.45703125 -0.773437,0.45703125 v 0.3046875 l 1.136718,-0.03515625 c 0.398438,0 0.867188,0 1.265625,0.03515625 v -0.3046875 h -0.210937 c -0.738281,0 -0.761719,-0.1171875 -0.761719,-0.46875 V -2.3072656 c 0,-0.984375 0.421875,-1.875 1.183594,-1.875 0.05859,0 0.08203,0 0.105469,0.011719 -0.03516,0.011719 -0.234375,0.1289063 -0.234375,0.3867188 0,0.28125 0.210937,0.4335937 0.433593,0.4335937 0.175782,0 0.421875,-0.1289062 0.421875,-0.4453128 z m 5.112305,-0.2226562 c 0,-0.1757813 -0.117187,-0.4921875 -0.503906,-0.4921875 -0.199219,0 -0.632813,0.058594 -1.054688,0.46875 -0.421875,-0.328125 -0.84375,-0.3632813 -1.054687,-0.3632813 -0.925781,0 -1.617188,0.6914063 -1.617188,1.453125 0,0.4453125 0.222657,0.8203125 0.46875,1.03125 -0.128906,0.1523438 -0.304687,0.4804688 -0.304687,0.8203125 0,0.31640627 0.128906,0.69140627 0.433594,0.89062502 -0.597657,0.17578125 -0.914063,0.59765625 -0.914063,0.99609375 0,0.71484373 0.984375,1.26562503 2.203125,1.26562503 1.171875,0 2.203125,-0.5039063 2.203125,-1.28906253 0,-0.33984375 -0.140625,-0.85546875 -0.644531,-1.125 -0.527344,-0.28125 -1.101563,-0.28125 -1.710938,-0.28125 -0.246093,0 -0.679687,0 -0.75,-0.0117188 -0.316406,-0.046875 -0.527343,-0.35156247 -0.527343,-0.66796867 0,-0.035156 0,-0.2695313 0.175781,-0.46875 0.386719,0.28125 0.796875,0.3046875 0.984375,0.3046875 0.925781,0 1.605469,-0.6796875 1.605469,-1.453125 0,-0.3632814 -0.152344,-0.7382814 -0.398438,-0.9609375 0.351563,-0.3398438 0.714844,-0.3867188 0.890625,-0.3867188 0,0 0.07031,0 0.105469,0 -0.117188,0.046875 -0.164063,0.1523438 -0.164063,0.2695313 0,0.1757811 0.128907,0.2929686 0.292969,0.2929686 0.09375,0 0.28125,-0.070312 0.28125,-0.2929686 z m -1.746094,1.0664062 c 0,0.2695313 -0.01172,0.5976563 -0.164062,0.84375 -0.08203,0.1171875 -0.304688,0.3984375 -0.703125,0.3984375 -0.867188,0 -0.867188,-0.9960937 -0.867188,-1.2304687 0,-0.2695313 0.01172,-0.5859375 0.152344,-0.8320313 0.08203,-0.1171875 0.316406,-0.3984375 0.714844,-0.3984375 0.867187,0 0.867187,0.9960938 0.867187,1.21875 z m 1.089844,3.73828127 c 0,0.53906253 -0.703125,1.04296873 -1.675781,1.04296873 -1.007813,0 -1.699219,-0.515625 -1.699219,-1.04296873 0,-0.45703125 0.375,-0.8203125 0.820313,-0.85546875 h 0.585937 c 0.855469,0 1.96875,0 1.96875,0.85546875 z m 4.945313,-1.96874997 c 0,-0.1054688 -0.08203,-0.1171875 -0.128907,-0.1171875 -0.09375,0 -0.117187,0.058594 -0.128906,0.140625 -0.351562,1.01953122 -1.253906,1.01953122 -1.347656,1.01953122 -0.503906,0 -0.902344,-0.29296875 -1.125,-0.66796875 C 23.547695,-1.2877344 23.547695,-1.9439844 23.547695,-2.2955469 h 2.789063 c 0.210937,0 0.246094,0 0.246094,-0.2109375 0,-0.984375 -0.539063,-1.9570312 -1.78125,-1.9570312 -1.160157,0 -2.074219,1.03125 -2.074219,2.2734375 0,1.33593747 1.042969,2.29687497 2.191406,2.29687497 1.21875,0 1.664063,-1.1015625 1.664063,-1.28906247 z m -0.65625,-1.3242188 h -2.367188 c 0.05859,-1.4882812 0.902344,-1.734375 1.242188,-1.734375 1.019531,0 1.125,1.3476563 1.125,1.734375 z m 6.193359,2.50781252 v -0.3046875 c -0.703125,0 -0.773438,-0.0703125 -0.773438,-0.5625 V -6.9127344 l -1.441406,0.1054688 v 0.3164062 c 0.703125,0 0.785156,0.070312 0.785156,0.5507813 v 2.15625 c -0.292968,-0.3632813 -0.726562,-0.6210938 -1.265625,-0.6210938 -1.171875,0 -2.214843,0.984375 -2.214843,2.2617188 0,1.26562497 0.972656,2.24999997 2.109375,2.24999997 0.644531,0 1.089843,-0.33984375 1.335937,-0.65625 v 0.65625 z M 30.655117,-1.1705469 c 0,0.17578127 0,0.19921877 -0.105469,0.36328127 -0.304687,0.48046875 -0.75,0.703125 -1.183593,0.703125 -0.445313,0 -0.796875,-0.2578125 -1.042969,-0.64453125 -0.257813,-0.41015622 -0.292969,-0.97265622 -0.292969,-1.38281252 0,-0.3632812 0.02344,-0.9609375 0.316406,-1.4179687 0.210938,-0.3046875 0.585938,-0.6328125 1.125,-0.6328125 0.351563,0 0.761719,0.1523437 1.078125,0.5976562 0.105469,0.1640625 0.105469,0.1875 0.105469,0.3632813 z m 8.387695,1.17187502 v -0.3046875 H 38.785 c -0.785156,0 -0.820313,-0.1171875 -0.820313,-0.46875 V -6.0221094 c 0,-0.3632812 0.03516,-0.46875 0.820313,-0.46875 h 0.257812 v -0.3164062 c -0.351562,0.035156 -1.136718,0.035156 -1.511718,0.035156 -0.386719,0 -1.171875,0 -1.523438,-0.035156 v 0.3164062 h 0.257813 c 0.785156,0 0.820312,0.1054688 0.820312,0.46875 v 5.25000002 c 0,0.3515625 -0.03516,0.46875 -0.820312,0.46875 h -0.257813 v 0.3046875 c 0.351563,-0.03515625 1.136719,-0.03515625 1.511719,-0.03515625 0.386719,0 1.171875,0 1.523437,0.03515625 z m 5.610352,0 v -0.3046875 c -0.515625,0 -0.773437,0 -0.785156,-0.3046875 V -2.5064844 c 0,-0.8554687 0,-1.171875 -0.304688,-1.5234375 -0.140625,-0.1757812 -0.46875,-0.375 -1.042968,-0.375 -0.726563,0 -1.195313,0.4335938 -1.476563,1.0546875 v -1.0546875 l -1.40625,0.1171875 v 0.3046875 c 0.703125,0 0.785156,0.070312 0.785156,0.5625 v 2.66015627 c 0,0.45703125 -0.117187,0.45703125 -0.785156,0.45703125 v 0.3046875 l 1.125,-0.03515625 1.113281,0.03515625 v -0.3046875 c -0.65625,0 -0.773437,0 -0.773437,-0.45703125 V -2.5885156 c 0,-1.03125 0.714844,-1.59375 1.347656,-1.59375 0.621094,0 0.738281,0.5390625 0.738281,1.1015625 v 2.32031247 c 0,0.45703125 -0.117187,0.45703125 -0.773437,0.45703125 v 0.3046875 l 1.125,-0.03515625 z m 3.234375,-1.23046872 v -0.5742188 h -0.246094 v 0.5507813 c 0,0.73828122 -0.304687,1.11328122 -0.667968,1.11328122 -0.667969,0 -0.667969,-0.90234372 -0.667969,-1.07812502 v -2.765625 h 1.429687 v -0.3046875 h -1.429687 v -1.8398437 h -0.246094 c -0.01172,0.8203125 -0.316406,1.8867187 -1.289062,1.921875 v 0.2226562 h 0.84375 v 2.7539063 c 0,1.21874997 0.925781,1.33593747 1.289062,1.33593747 0.703125,0 0.984375,-0.703125 0.984375,-1.33593747 z m 4.708008,0.046875 c 0,-0.1054688 -0.08203,-0.1171875 -0.128906,-0.1171875 -0.09375,0 -0.117188,0.058594 -0.128907,0.140625 -0.351562,1.01953122 -1.253906,1.01953122 -1.347656,1.01953122 -0.503906,0 -0.902344,-0.29296875 -1.125,-0.66796875 C 49.560391,-1.2877344 49.560391,-1.9439844 49.560391,-2.2955469 h 2.789062 c 0.210938,0 0.246094,0 0.246094,-0.2109375 0,-0.984375 -0.539063,-1.9570312 -1.78125,-1.9570312 -1.160156,0 -2.074219,1.03125 -2.074219,2.2734375 0,1.33593747 1.042969,2.29687497 2.191406,2.29687497 1.21875,0 1.664063,-1.1015625 1.664063,-1.28906247 z m -0.65625,-1.3242188 h -2.367188 c 0.05859,-1.4882812 0.902344,-1.734375 1.242188,-1.734375 1.019531,0 1.125,1.3476563 1.125,1.734375 z m 4.564453,-1.2890625 c 0,-0.3164062 -0.304688,-0.609375 -0.726563,-0.609375 -0.738281,0 -1.089843,0.6679688 -1.230468,1.1015625 v -1.1015625 l -1.382813,0.1171875 v 0.3046875 c 0.691406,0 0.773438,0.070312 0.773438,0.5625 v 2.66015627 c 0,0.45703125 -0.105469,0.45703125 -0.773438,0.45703125 v 0.3046875 l 1.136719,-0.03515625 c 0.398437,0 0.867187,0 1.265625,0.03515625 v -0.3046875 h -0.210938 c -0.738281,0 -0.761718,-0.1171875 -0.761718,-0.46875 V -2.3072656 c 0,-0.984375 0.421875,-1.875 1.183593,-1.875 0.05859,0 0.08203,0 0.105469,0.011719 -0.03516,0.011719 -0.234375,0.1289063 -0.234375,0.3867188 0,0.28125 0.210938,0.4335937 0.433594,0.4335937 0.175781,0 0.421875,-0.1289062 0.421875,-0.4453128 z m 5.34668,-0.1875 v -0.3046875 c -0.234375,0.011719 -0.515625,0.023437 -0.75,0.023437 l -0.867188,-0.023437 v 0.3046875 c 0.375,0.011719 0.480469,0.234375 0.480469,0.4335938 0,0.082031 -0.02344,0.1289062 -0.05859,0.234375 L 59.63559,-0.77210938 58.522309,-3.5494531 c -0.05859,-0.140625 -0.05859,-0.1757813 -0.05859,-0.1757813 0,-0.2578125 0.386719,-0.2578125 0.5625,-0.2578125 v -0.3046875 l -1.078125,0.023437 c -0.269531,0 -0.667969,-0.011719 -0.972656,-0.023437 v 0.3046875 c 0.632812,0 0.667968,0.058594 0.796875,0.3632813 l 1.441406,3.53906247 c 0.05859,0.140625 0.07031,0.1875 0.199219,0.1875 0.128906,0 0.175781,-0.08203125 0.210937,-0.1875 l 1.3125,-3.23437497 c 0.08203,-0.234375 0.257813,-0.65625 0.914063,-0.6679688 z m 4.456054,3.09375002 V -1.4400781 h -0.257812 v 0.55078122 c 0,0.5859375 -0.246094,0.64453125 -0.351563,0.64453125 -0.328125,0 -0.375,-0.45703125 -0.375,-0.50390625 V -2.7408594 c 0,-0.4101562 0,-0.8085937 -0.351562,-1.171875 -0.386719,-0.3867187 -0.890625,-0.5507812 -1.371094,-0.5507812 -0.808594,0 -1.5,0.46875 -1.5,1.125 0,0.3046875 0.199219,0.46875 0.457031,0.46875 0.28125,0 0.457032,-0.1992188 0.457032,-0.4570313 0,-0.1171875 -0.04687,-0.4453125 -0.503907,-0.4570312 0.269532,-0.3515625 0.75,-0.4570313 1.078125,-0.4570313 0.480469,0 1.054688,0.3867188 1.054688,1.2773438 v 0.3632812 c -0.515625,0.035156 -1.207031,0.058594 -1.839844,0.3632813 -0.75,0.3398437 -0.996094,0.8554687 -0.996094,1.28906247 0,0.80859375 0.972657,1.0546875 1.59375,1.0546875 0.65625,0 1.113282,-0.3984375 1.3125,-0.8671875 0.03516,0.3984375 0.304688,0.8203125 0.773438,0.8203125 0.210937,0 0.820312,-0.140625 0.820312,-0.94921875 z M 64.642422,-1.3932031 c 0,0.94921872 -0.726563,1.28906247 -1.171875,1.28906247 -0.480469,0 -0.890625,-0.3515625 -0.890625,-0.85546875 0,-0.53906252 0.410156,-1.37109372 2.0625,-1.42968752 z m 4.371094,1.39453122 v -0.3046875 c -0.667969,0 -0.785157,0 -0.785157,-0.45703125 V -6.9127344 l -1.429687,0.1054688 v 0.3164062 c 0.703125,0 0.773437,0.070312 0.773437,0.5507813 v 5.17968747 c 0,0.45703125 -0.105468,0.45703125 -0.773437,0.45703125 v 0.3046875 l 1.101562,-0.03515625 z m 0,0"
       style="fill:#000000;fill-opacity:1;fill-rule:nonzero;stroke:none"
       aria-label="MergedInterval"
       transform="matrix(1.3333333,0,0,1.3333333,105.28667,13.646667)" />
  </g>
</svg>
