<?xml version="1.0" encoding="UTF-8" standalone="no"?>
<!-- Created with Inkscape (http://www.inkscape.org/) -->

<svg
   version="1.1"
   id="svg1"
   width="189.508"
   height="83.14267"
   viewBox="0 0 189.508 83.14267"
   xmlns="http://www.w3.org/2000/svg"
   xmlns:svg="http://www.w3.org/2000/svg">
  <defs
     id="defs1" />
  <g
     id="g1">
    <path
       id="path1"
       d="m 0,3.9851 v 48.72341 c 0,2.20094 1.78416,3.98511 3.9851,3.98511 h 77.07021 c 2.20095,0 3.98511,-1.78417 3.98511,-3.98511 V 3.9851 C 85.04042,1.78416 83.25626,0 81.05531,0 H 3.9851 C 1.78416,0 0,1.78416 0,3.9851 Z"
       style="fill:#e6e6ff;fill-opacity:1;fill-rule:nonzero;stroke:#000000;stroke-width:0.3985;stroke-linecap:butt;stroke-linejoin:miter;stroke-miterlimit:10;stroke-dasharray:none;stroke-opacity:1"
       transform="matrix(1.3333333,0,0,-1.3333333,0.26533333,75.856)" />
    <path
       id="path2"
       d="m 56.69362,3.9851 v 48.72341 c 0,2.20094 1.78416,3.98511 3.98511,3.98511 h 77.0702 c 2.20094,0 3.98511,-1.78417 3.98511,-3.98511 V 3.9851 C 141.73404,1.78416 139.94987,0 137.74893,0 h -77.0702 c -2.20095,0 -3.98511,1.78416 -3.98511,3.9851 z"
       style="fill:#e6ffe6;fill-opacity:1;fill-rule:nonzero;stroke:#000000;stroke-width:0.3985;stroke-linecap:butt;stroke-linejoin:miter;stroke-miterlimit:10;stroke-dasharray:none;stroke-opacity:1"
       transform="matrix(1.3333333,0,0,-1.3333333,0.26533333,75.856)" />
    <path
       id="path3"
       d="m 6.3291094,-5.7525781 c 0.09375,-0.4101563 0.28125,-0.7148438 1.078125,-0.7382813 0.046875,0 0.1640625,-0.011719 0.1640625,-0.1992187 0,-0.011719 0,-0.1171875 -0.1289063,-0.1171875 -0.328125,0 -0.6796875,0.035156 -1.0195312,0.035156 -0.3398438,0 -0.703125,-0.035156 -1.03125,-0.035156 -0.058594,0 -0.1757813,0 -0.1757813,0.1992187 0,0.1171875 0.09375,0.1171875 0.1757813,0.1171875 0.5625,0.011719 0.6796875,0.2109375 0.6796875,0.4335938 0,0.035156 -0.023437,0.1757812 -0.035156,0.2109375 l -0.890625,3.5507812 c -0.3398437,1.33593753 -1.4882812,2.20312503 -2.484375,2.20312503 -0.6796875,0 -1.21875,-0.43359375 -1.21875,-1.28906253 0,-0.023437 0,-0.3398437 0.1171875,-0.7734375 l 0.9609375,-3.8789062 c 0.09375,-0.3632813 0.1054688,-0.4570313 0.8320313,-0.4570313 0.2695312,0 0.3398437,0 0.3398437,-0.1992187 0,-0.1171875 -0.1054687,-0.1171875 -0.140625,-0.1171875 -0.2695312,0 -0.9960937,0.035156 -1.265625,0.035156 -0.2929687,0 -0.9960937,-0.035156 -1.28906247,-0.035156 -0.0820313,0 -0.1875,0 -0.1875,0.1992187 0,0.1171875 0.09375,0.1171875 0.28124997,0.1171875 0.011719,0 0.2109375,0 0.375,0.011719 0.1757813,0.023437 0.2695313,0.035156 0.2695313,0.1640625 0,0.058594 -0.1054688,0.4804687 -0.1757813,0.703125 l -0.2109375,0.8789062 c -0.09375,0.3867188 -0.57421872,2.2734375 -0.60937497,2.4609375 -0.0703125,0.28125 -0.0703125,0.4335938 -0.0703125,0.5742188 0,1.21874998 0.90234377,1.92187498 1.95703127,1.92187498 1.2539062,0 2.484375,-1.125 2.8125,-2.44921878 z m 0,0"
       style="fill:#000000;fill-opacity:1;fill-rule:nonzero;stroke:none"
       aria-label="U"
       transform="matrix(1.3333333,0,0,1.3333333,49.444,15.146667)" />
    <path
       id="path4"
       d="m 2.3308203,-4.4311484 c 0,-0.1875 -0.011719,-0.1992188 -0.2109375,-0.1992188 -0.4453125,0.4335938 -1.078125,0.4453125 -1.35937499,0.4453125 v 0.2460938 c 0.1640625,0 0.62109379,0 1.00781249,-0.1875 v 3.55078121 c 0,0.234375 0,0.328125 -0.6914062,0.328125 H 0.80738281 v 0.24609375 c 0.12890625,-0.01171875 0.98437499,-0.0234375 1.24218749,-0.0234375 0.2109375,0 1.0898438,0.01171875 1.2421875,0.0234375 V -0.24755469 H 3.0339453 c -0.703125,0 -0.703125,-0.09375 -0.703125,-0.328125 z m 0,0"
       style="fill:#000000;fill-opacity:1;fill-rule:nonzero;stroke:none"
       aria-label="1"
       transform="matrix(1.3333333,0,0,1.3333333,58.513333,17.138667)" />
    <path
       id="path5"
       d="m 6.3284922,-5.7525781 c 0.09375,-0.4101563 0.28125,-0.7148438 1.078125,-0.7382813 0.046875,0 0.1640625,-0.011719 0.1640625,-0.1992187 0,-0.011719 0,-0.1171875 -0.1289063,-0.1171875 -0.328125,0 -0.6796875,0.035156 -1.0195312,0.035156 -0.3398438,0 -0.703125,-0.035156 -1.03125,-0.035156 -0.058594,0 -0.1757813,0 -0.1757813,0.1992187 0,0.1171875 0.09375,0.1171875 0.1757813,0.1171875 0.5625,0.011719 0.6796875,0.2109375 0.6796875,0.4335938 0,0.035156 -0.023437,0.1757812 -0.035156,0.2109375 l -0.890625,3.5507812 c -0.3398437,1.33593753 -1.4882812,2.20312503 -2.484375,2.20312503 -0.6796875,0 -1.21875,-0.43359375 -1.21875,-1.28906253 0,-0.023437 0,-0.3398437 0.1171875,-0.7734375 l 0.9609375,-3.8789062 c 0.09375,-0.3632813 0.1054688,-0.4570313 0.8320313,-0.4570313 0.2695312,0 0.3398437,0 0.3398437,-0.1992187 0,-0.1171875 -0.1054687,-0.1171875 -0.140625,-0.1171875 -0.2695312,0 -0.9960937,0.035156 -1.265625,0.035156 -0.2929687,0 -0.9960937,-0.035156 -1.28906246,-0.035156 -0.0820313,0 -0.1875,0 -0.1875,0.1992187 0,0.1171875 0.09375,0.1171875 0.28124996,0.1171875 0.011719,0 0.2109375,0 0.375,0.011719 0.1757813,0.023437 0.2695313,0.035156 0.2695313,0.1640625 0,0.058594 -0.1054688,0.4804687 -0.1757813,0.703125 l -0.2109375,0.8789062 c -0.09375,0.3867188 -0.57421871,2.2734375 -0.60937496,2.4609375 -0.0703125,0.28125 -0.0703125,0.4335938 -0.0703125,0.5742188 0,1.21874998 0.90234376,1.92187498 1.95703126,1.92187498 1.2539062,0 2.484375,-1.125 2.8125,-2.44921878 z m 0,0"
       style="fill:#000000;fill-opacity:1;fill-rule:nonzero;stroke:none"
       aria-label="U"
       transform="matrix(1.3333333,0,0,1.3333333,125.03467,15.146667)" />
    <path
       id="path6"
       d="m 3.5167266,-1.2670859 h -0.234375 c -0.023437,0.1523437 -0.082031,0.56249996 -0.1757813,0.63281246 -0.058594,0.0351563 -0.5976562,0.0351563 -0.6914062,0.0351563 H 1.1261016 c 0.7382812,-0.64453116 0.984375,-0.84375006 1.3945312,-1.17187506 0.515625,-0.4101562 0.9960938,-0.84375 0.9960938,-1.5 0,-0.8437499 -0.7382813,-1.3593749 -1.6289063,-1.3593749 -0.8671875,0 -1.45312499,0.609375 -1.45312499,1.2421875 0,0.3632813 0.3046875,0.3984375 0.375,0.3984375 0.1640625,0 0.37499999,-0.1171875 0.37499999,-0.375 0,-0.1289062 -0.058594,-0.3632812 -0.42187499,-0.3632812 0.22265625,-0.5039063 0.69140629,-0.65625 1.01953129,-0.65625 0.703125,0 1.0664062,0.5507812 1.0664062,1.1132812 0,0.609375 -0.4335937,1.0898438 -0.65625,1.3359375 l -1.68749999,1.66406246 c -0.0703125,0.0585938 -0.0703125,0.0703125 -0.0703125,0.26953125 H 3.3175078 Z m 0,0"
       style="fill:#000000;fill-opacity:1;fill-rule:nonzero;stroke:none"
       aria-label="2"
       transform="matrix(1.3333333,0,0,1.3333333,134.104,17.138667)" />
    <path
       id="path7"
       d="m 56.69362,3.9851 v 48.72341 c 0,2.20094 1.78416,3.98511 3.98511,3.98511 h 20.37658 c 2.20095,0 3.98511,-1.78417 3.98511,-3.98511 V 3.9851 C 85.04042,1.78416 83.25626,0 81.05531,0 H 60.67873 c -2.20095,0 -3.98511,1.78416 -3.98511,3.9851 z"
       style="fill:#fffccc;fill-opacity:1;fill-rule:nonzero;stroke:#000000;stroke-width:0.3985;stroke-linecap:butt;stroke-linejoin:miter;stroke-miterlimit:10;stroke-dasharray:none;stroke-opacity:1"
       transform="matrix(1.3333333,0,0,-1.3333333,0.26533333,75.856)" />
    <path
       id="path8"
       d="m 6.3269375,-5.7546797 c 0.09375,-0.4101562 0.28125,-0.7148437 1.078125,-0.7382812 0.046875,0 0.1640625,-0.011719 0.1640625,-0.1992188 0,-0.011719 0,-0.1171875 -0.1289063,-0.1171875 -0.328125,0 -0.6796875,0.035156 -1.0195312,0.035156 -0.3398438,0 -0.703125,-0.035156 -1.03125,-0.035156 -0.058594,0 -0.1757813,0 -0.1757813,0.1992188 0,0.1171875 0.09375,0.1171875 0.1757813,0.1171875 0.5625,0.011719 0.6796875,0.2109375 0.6796875,0.4335937 0,0.035156 -0.023437,0.1757813 -0.035156,0.2109375 l -0.890625,3.5507813 c -0.3398437,1.33593746 -1.4882812,2.20312496 -2.484375,2.20312496 -0.6796875,0 -1.21875,-0.43359375 -1.21875,-1.28906246 0,-0.023437 0,-0.3398438 0.1171875,-0.7734375 L 2.518344,-6.0359297 c 0.09375,-0.3632812 0.1054688,-0.4570312 0.8320313,-0.4570312 0.2695312,0 0.3398437,0 0.3398437,-0.1992188 0,-0.1171875 -0.1054687,-0.1171875 -0.140625,-0.1171875 -0.2695312,0 -0.9960937,0.035156 -1.265625,0.035156 -0.2929687,0 -0.9960937,-0.035156 -1.28906245,-0.035156 -0.0820313,0 -0.1875,0 -0.1875,0.1992188 0,0.1171875 0.09375,0.1171875 0.28124995,0.1171875 0.011719,0 0.2109375,0 0.375,0.011719 0.1757813,0.023437 0.2695313,0.035156 0.2695313,0.1640625 0,0.058594 -0.1054688,0.4804688 -0.1757813,0.703125 L 1.346469,-4.7351481 c -0.09375,0.3867187 -0.5742187,2.2734375 -0.60937495,2.4609375 -0.0703125,0.28125 -0.0703125,0.4335937 -0.0703125,0.5742187 0,1.21875001 0.90234375,1.92187501 1.95703125,1.92187501 1.2539062,0 2.484375,-1.125 2.8125,-2.44921871 z m 0,0"
       style="fill:#000000;fill-opacity:1;fill-rule:nonzero;stroke:none"
       aria-label="U"
       transform="matrix(1.3333333,0,0,1.3333333,72.345333,34.044)" />
    <path
       id="path9"
       d="m 2.3315781,-4.4303203 c 0,-0.1875 -0.011719,-0.1992188 -0.2109375,-0.1992188 -0.4453125,0.4335938 -1.078125,0.4453125 -1.35937497,0.4453125 v 0.2460938 c 0.1640625,0 0.62109377,0 1.00781247,-0.1875 v 3.55078124 c 0,0.234375 0,0.328125 -0.6914062,0.328125 H 0.80814063 V -6.328125e-4 C 0.93704688,-0.01235156 1.7925156,-0.02407031 2.0503281,-0.02407031 c 0.2109375,0 1.0898438,0.01171875 1.2421875,0.0234374975 V -0.24672656 H 3.0347031 c -0.703125,0 -0.703125,-0.09375 -0.703125,-0.328125 z m 0,0"
       style="fill:#000000;fill-opacity:1;fill-rule:nonzero;stroke:none"
       aria-label="1"
       transform="matrix(1.3333333,0,0,1.3333333,81.414667,36.036)" />
    <path
       id="path10"
       d="m 6.0811953,-3.7859297 c 0,-1.5117187 -1.5234375,-2.1679687 -2.765625,-2.1679687 -1.2890625,0 -2.76562499,0.6914062 -2.76562499,2.15625 v 3.65624996 c 0,0.17578125 0,0.36328125 0.19921875,0.36328125 0.19921875,0 0.19921875,-0.1875 0.19921875,-0.36328125 V -3.7507734 c 0,-1.4882813 1.61718749,-1.8046875 2.36718749,-1.8046875 0.4453125,0 1.078125,0.082031 1.6054688,0.421875 0.7617187,0.4921875 0.7617187,1.125 0.7617187,1.3945312 v 3.59765626 c 0,0.17578125 0,0.36328125 0.1992188,0.36328125 0.1992187,0 0.1992187,-0.1875 0.1992187,-0.36328125 z m 0,0"
       style="fill:#000000;fill-opacity:1;fill-rule:nonzero;stroke:none"
       aria-label="∩"
       transform="matrix(1.3333333,0,0,1.3333333,90.325333,34.044)" />
    <path
       id="path11"
       d="m 6.3277344,-5.7546797 c 0.09375,-0.4101562 0.28125,-0.7148437 1.078125,-0.7382812 0.046875,0 0.1640625,-0.011719 0.1640625,-0.1992188 0,-0.011719 0,-0.1171875 -0.1289063,-0.1171875 -0.328125,0 -0.6796875,0.035156 -1.0195312,0.035156 -0.3398438,0 -0.703125,-0.035156 -1.03125,-0.035156 -0.058594,0 -0.1757813,0 -0.1757813,0.1992188 0,0.1171875 0.09375,0.1171875 0.1757813,0.1171875 0.5625,0.011719 0.6796875,0.2109375 0.6796875,0.4335937 0,0.035156 -0.023437,0.1757813 -0.035156,0.2109375 l -0.890625,3.5507813 c -0.3398437,1.33593746 -1.4882812,2.20312496 -2.484375,2.20312496 -0.6796875,0 -1.21875,-0.43359375 -1.21875,-1.28906246 0,-0.023437 0,-0.3398438 0.1171875,-0.7734375 l 0.9609375,-3.8789063 c 0.09375,-0.3632812 0.1054688,-0.4570312 0.8320313,-0.4570312 0.2695312,0 0.3398437,0 0.3398437,-0.1992188 0,-0.1171875 -0.1054687,-0.1171875 -0.140625,-0.1171875 -0.2695312,0 -0.9960937,0.035156 -1.265625,0.035156 -0.2929687,0 -0.9960937,-0.035156 -1.28906247,-0.035156 -0.0820313,0 -0.1875,0 -0.1875,0.1992188 0,0.1171875 0.09375,0.1171875 0.28124997,0.1171875 0.011719,0 0.2109375,0 0.375,0.011719 0.1757813,0.023437 0.2695313,0.035156 0.2695313,0.1640625 0,0.058594 -0.1054688,0.4804688 -0.1757813,0.703125 l -0.2109375,0.8789063 c -0.09375,0.3867187 -0.57421872,2.2734375 -0.60937497,2.4609375 -0.0703125,0.28125 -0.0703125,0.4335937 -0.0703125,0.5742187 0,1.21875001 0.90234377,1.92187501 1.95703127,1.92187501 1.2539062,0 2.484375,-1.125 2.8125,-2.44921871 z m 0,0"
       style="fill:#000000;fill-opacity:1;fill-rule:nonzero;stroke:none"
       aria-label="U"
       transform="matrix(1.3333333,0,0,1.3333333,102.13333,34.044)" />
    <path
       id="path12"
       d="m 3.5159688,-1.2662578 h -0.234375 c -0.023437,0.1523437 -0.082031,0.56249999 -0.1757813,0.63281249 -0.058594,0.0351563 -0.5976562,0.0351563 -0.6914062,0.0351563 H 1.1253438 C 1.863625,-1.2428203 2.1097188,-1.4420391 2.519875,-1.7701641 c 0.515625,-0.4101562 0.9960938,-0.84375 0.9960938,-1.5 0,-0.84375 -0.7382813,-1.359375 -1.6289063,-1.359375 -0.8671875,0 -1.453125,0.609375 -1.453125,1.2421875 0,0.3632813 0.3046875,0.3984375 0.375,0.3984375 0.1640625,0 0.375,-0.1171875 0.375,-0.375 0,-0.1289062 -0.058594,-0.3632812 -0.421875,-0.3632812 0.22265625,-0.5039063 0.6914063,-0.65625 1.0195313,-0.65625 0.703125,0 1.0664062,0.5507812 1.0664062,1.1132812 0,0.609375 -0.4335937,1.0898438 -0.65625,1.3359375 l -1.6875,1.66406254 c -0.0703125,0.0585937 -0.0703125,0.0703125 -0.0703125,0.2695312475 H 3.31675 Z m 0,0"
       style="fill:#000000;fill-opacity:1;fill-rule:nonzero;stroke:none"
       aria-label="2"
       transform="matrix(1.3333333,0,0,1.3333333,111.20267,36.036)" />
    <path
       id="path13"
       d="m 3.8920156,-3.7252266 c -0.2695312,0.011719 -0.46875,0.234375 -0.46875,0.4453125 0,0.140625 0.082031,0.2929688 0.3046875,0.2929688 0.2226563,0 0.4570313,-0.1640625 0.4570313,-0.5625 0,-0.4453125 -0.4335938,-0.8554688 -1.1835938,-0.8554688 -1.3125,0 -1.6875,1.0195313 -1.6875,1.453125 0,0.7851563 0.7382813,0.9257813 1.03125,0.9960938 0.515625,0.09375 1.03125,0.1992187 1.03125,0.75 0,0.25781249 -0.2226562,1.10156249 -1.4179687,1.10156249 -0.140625,0 -0.9140625,0 -1.13671877,-0.52734375 0.37499997,0.046875 0.62109377,-0.2578125 0.62109377,-0.52734374 0,-0.234375 -0.1523438,-0.3515625 -0.3632813,-0.3515625 -0.25781247,0 -0.56249997,0.2109375 -0.56249997,0.65624999 0,0.5625 0.57421877,0.9609375 1.42968747,0.9609375 1.6054688,0 2.0039063,-1.20703129 2.0039063,-1.65234379 0,-0.3515625 -0.1992188,-0.609375 -0.3164063,-0.7265625 -0.2695312,-0.28125 -0.5507812,-0.328125 -0.9960937,-0.421875 -0.3515625,-0.070312 -0.75,-0.140625 -0.75,-0.5976562 0,-0.28125 0.234375,-0.890625 1.1132812,-0.890625 0.2460938,0 0.75,0.070312 0.890625,0.4570312 z m 0,0"
       style="fill:#000000;fill-opacity:1;fill-rule:nonzero;stroke:none"
       aria-label="s"
       transform="matrix(1.3333333,0,0,1.3333333,50.865333,39.924)" />
    <path
       id="path14"
       d="m 2.3333438,-4.4311406 c 0,-0.1875 -0.011719,-0.1992188 -0.2109375,-0.1992188 -0.4453125,0.4335938 -1.078125,0.4453125 -1.35937505,0.4453125 v 0.2460938 c 0.1640625,0 0.62109375,0 1.00781255,-0.1875 v 3.55078123 c 0,0.234375 0,0.328125 -0.6914063,0.328125 H 0.80990625 v 0.24609375 c 0.12890625,-0.01171875 0.98437505,-0.0234375 1.24218755,-0.0234375 0.2109375,0 1.0898437,0.01171875 1.2421875,0.0234375 V -0.24754687 H 3.0364688 c -0.703125,0 -0.703125,-0.09375 -0.703125,-0.328125 z m 0,0"
       style="fill:#000000;fill-opacity:1;fill-rule:nonzero;stroke:none"
       aria-label="1"
       transform="matrix(1.3333333,0,0,1.3333333,57.092,41.916)" />
    <path
       id="path15"
       d="m 3.8913984,-3.7252266 c -0.2695312,0.011719 -0.46875,0.234375 -0.46875,0.4453125 0,0.140625 0.082031,0.2929688 0.3046875,0.2929688 0.2226563,0 0.4570313,-0.1640625 0.4570313,-0.5625 0,-0.4453125 -0.4335938,-0.8554688 -1.1835938,-0.8554688 -1.3125,0 -1.6875,1.0195313 -1.6875,1.453125 0,0.7851563 0.7382813,0.9257813 1.03125,0.9960938 0.515625,0.09375 1.03125,0.1992187 1.03125,0.75 0,0.25781249 -0.2226562,1.10156249 -1.4179687,1.10156249 -0.140625,0 -0.9140625,0 -1.13671876,-0.52734375 0.37499996,0.046875 0.62109376,-0.2578125 0.62109376,-0.52734374 0,-0.234375 -0.1523438,-0.3515625 -0.3632813,-0.3515625 -0.25781246,0 -0.56249996,0.2109375 -0.56249996,0.65624999 0,0.5625 0.57421876,0.9609375 1.42968746,0.9609375 1.6054688,0 2.0039063,-1.20703129 2.0039063,-1.65234379 0,-0.3515625 -0.1992188,-0.609375 -0.3164063,-0.7265625 -0.2695312,-0.28125 -0.5507812,-0.328125 -0.9960937,-0.421875 -0.3515625,-0.070312 -0.75,-0.140625 -0.75,-0.5976562 0,-0.28125 0.234375,-0.890625 1.1132812,-0.890625 0.2460938,0 0.75,0.070312 0.890625,0.4570312 z m 0,0"
       style="fill:#000000;fill-opacity:1;fill-rule:nonzero;stroke:none"
       aria-label="s"
       transform="matrix(1.3333333,0,0,1.3333333,126.456,39.924)" />
    <path
       id="path16"
       d="m 3.5163203,-1.2670781 h -0.234375 c -0.023437,0.1523437 -0.082031,0.56249998 -0.1757812,0.63281248 -0.058594,0.0351563 -0.5976563,0.0351563 -0.6914063,0.0351563 H 1.1256953 c 0.7382813,-0.64453118 0.984375,-0.84374998 1.3945313,-1.17187498 0.515625,-0.4101562 0.9960937,-0.8437501 0.9960937,-1.5000001 0,-0.8437499 -0.7382812,-1.3593749 -1.6289062,-1.3593749 -0.8671875,0 -1.45312504,0.609375 -1.45312504,1.2421874 0,0.3632814 0.3046875,0.3984375 0.375,0.3984375 0.1640625,0 0.37500004,-0.1171875 0.37500004,-0.375 0,-0.1289061 -0.058594,-0.3632811 -0.42187504,-0.3632811 0.22265625,-0.5039063 0.69140624,-0.65625 1.01953124,-0.65625 0.703125,0 1.0664063,0.5507811 1.0664063,1.1132811 0,0.609375 -0.4335938,1.0898438 -0.65625,1.3359376 l -1.68750004,1.66406248 c -0.0703125,0.0585937 -0.0703125,0.0703125 -0.0703125,0.26953125 H 3.3171016 Z m 0,0"
       style="fill:#000000;fill-opacity:1;fill-rule:nonzero;stroke:none"
       aria-label="2"
       transform="matrix(1.3333333,0,0,1.3333333,132.68267,41.916)" />
    <path
       id="path17"
       d="M 42.5202,14.17339 H 70.40874"
       style="fill:none;stroke:#000000;stroke-width:0.3985;stroke-linecap:butt;stroke-linejoin:miter;stroke-miterlimit:10;stroke-dasharray:none;stroke-opacity:1"
       transform="matrix(1.3333333,0,0,-1.3333333,0.26533333,75.856)" />
    <path
       id="path18"
       d="M -1.19551,1.59401 C -1.09587,0.99626 0,0.09961 0.29886,0 0,-0.09961 -1.09587,-0.99626 -1.19551,-1.59401"
       style="fill:none;stroke:#000000;stroke-width:0.31879;stroke-linecap:round;stroke-linejoin:round;stroke-miterlimit:10;stroke-dasharray:none;stroke-opacity:1"
       transform="matrix(1.3333333,0,0,-1.3333333,94.143653,56.958147)" />
    <path
       id="path19"
       d="m 0.32874219,1.7234297 c -0.0234375,0.1171875 -0.0234375,0.140625 -0.0234375,0.1640625 0,0.140625 0.10546875,0.2695312 0.26953125,0.2695312 0.2109375,0 0.328125,-0.1875 0.3515625,-0.2109375 0.046875,-0.09375 0.37499996,-1.42968746 0.63281246,-2.50781246 0.1992188,0.3984375 0.5273438,0.66796875 0.9960938,0.66796875 1.1601562,0 2.4492187,-1.40624999 2.4492187,-2.88281249 0,-1.0546875 -0.65625,-1.6289063 -1.3828125,-1.6289063 -0.9726562,0 -2.015625,0.9960938 -2.3203125,2.2148438 z M 2.5435859,-0.10469531 c -0.703125,0 -0.8554687,-0.796875 -0.8554687,-0.890625 0,-0.0351563 0.046875,-0.23437499 0.070312,-0.36328129 0.28125,-1.125 0.3867187,-1.4765625 0.5976562,-1.875 0.4335938,-0.7265625 0.9375,-0.9492187 1.2421875,-0.9492187 0.3632813,0 0.6914063,0.2929687 0.6914063,0.9726562 0,0.5507813 -0.2929688,1.6640625 -0.5625,2.15625 -0.328125,0.62109379 -0.8085938,0.94921879 -1.1835933,0.94921879 z m 0,0"
       style="fill:#000000;fill-opacity:1;fill-rule:nonzero;stroke:none"
       aria-label="ρ"
       transform="matrix(1.3333333,0,0,1.3333333,10.909333,57.456)" />
    <path
       id="path20"
       d="m 4.9346016,-4.0072109 c 0.070312,-0.2695313 0.1757812,-0.4921875 0.7382812,-0.5039063 0.035156,0 0.140625,-0.011719 0.140625,-0.1523437 0,-0.046875 -0.035156,-0.09375 -0.1054687,-0.09375 -0.2226563,0 -0.4921875,0.023437 -0.7265625,0.023437 -0.2226563,0 -0.515625,-0.023437 -0.7265625,-0.023437 -0.035156,0 -0.140625,0 -0.140625,0.1523437 0,0.082031 0.09375,0.09375 0.1523437,0.09375 0.328125,0.011719 0.4453125,0.1171875 0.4453125,0.28125 0,0.035156 0,0.070312 -0.011719,0.1054688 -0.1054688,0.4453125 -0.609375,2.5546875 -0.703125,2.765625 -0.3867188,0.89062496 -1.2070313,1.24218746 -1.78125,1.24218746 -0.46875,0 -0.9609375,-0.234375 -0.9609375,-0.92578126 0,-0.1640625 0.023437,-0.328125 0.058594,-0.4921875 l 0.6796875,-2.6835937 c 0.070312,-0.234375 0.082031,-0.2929688 0.6210938,-0.2929688 0.1171875,0 0.1992187,0 0.1992187,-0.1523437 0,-0.023437 -0.011719,-0.09375 -0.1054687,-0.09375 -0.1992188,0 -0.7148438,0.023437 -0.9140625,0.023437 -0.1171875,0 -0.3632813,0 -0.4804688,-0.011719 -0.140625,0 -0.3046875,-0.011719 -0.44531249,-0.011719 -0.0351563,0 -0.140625,0 -0.140625,0.1523437 0,0.09375 0.0820313,0.09375 0.22265625,0.09375 0.0117188,0 0.14062504,0 0.26953124,0.011719 0.140625,0.011719 0.1523438,0.035156 0.1523438,0.1054687 0,0.035156 -0.070312,0.3046875 -0.1054688,0.4570313 l -0.1523437,0.6210937 -0.39843754,1.59375 c -0.0703125,0.28125 -0.0703125,0.3398438 -0.0703125,0.4804688 0,0.86718746 0.70312504,1.38281246 1.54687504,1.38281246 0.9609375,0 1.8984375,-0.78515625 2.1210937,-1.69921876 z m 0,0"
       style="fill:#000000;fill-opacity:1;fill-rule:nonzero;stroke:none"
       aria-label="U"
       transform="matrix(1.3333333,0,0,1.3333333,17.776,59.854667)" />
    <path
       id="path21"
       d="m 1.9792578,-3.1633672 c 0,-0.1523437 -0.011719,-0.1523437 -0.1757812,-0.1523437 -0.3515625,0.3164062 -0.90234379,0.3164062 -1.00781254,0.3164062 h -0.0820313 v 0.2226563 h 0.0820313 c 0.1171875,0 0.43359374,-0.011719 0.72656254,-0.140625 v 2.48437496 c 0,0.1640625 0,0.2109375 -0.52734379,0.2109375 H 0.74878906 V 6.953125e-4 C 1.0183203,-0.02274219 1.4636328,-0.02274219 1.7566016,-0.02274219 c 0.28125,0 0.7265625,0 0.9960937,0.0234375025 V -0.22196094 H 2.5066016 c -0.5273438,0 -0.5273438,-0.046875 -0.5273438,-0.2109375 z m 0,0"
       style="fill:#000000;fill-opacity:1;fill-rule:nonzero;stroke:none"
       aria-label="1"
       transform="matrix(1.3333333,0,0,1.3333333,25.013333,61.182667)" />
    <path
       id="path22"
       d="m 2.4740703,-5.2259609 c -1.3242187,0.9257812 -1.67578124,2.4140625 -1.67578124,3.4804687 0,0.98437501 0.29296874,2.50781251 1.67578124,3.4804688 0.058594,0 0.140625,0 0.140625,-0.082031 0,-0.046875 -0.023437,-0.058594 -0.070312,-0.1054687 -0.9257812,-0.83203129 -1.265625,-2.01562504 -1.265625,-3.2929688 0,-1.875 0.7148438,-2.8007812 1.2890625,-3.3164062 0.023437,-0.023437 0.046875,-0.046875 0.046875,-0.082031 0,-0.082031 -0.082031,-0.082031 -0.1406255,-0.082032 z m 0,0"
       style="fill:#000000;fill-opacity:1;fill-rule:nonzero;stroke:none"
       aria-label="("
       transform="matrix(1.3333333,0,0,1.3333333,30.197333,59.854667)" />
    <path
       id="path23"
       d="m 4.9333359,-4.0072109 c 0.070312,-0.2695313 0.1757813,-0.4921875 0.7382813,-0.5039063 0.035156,0 0.140625,-0.011719 0.140625,-0.1523437 0,-0.046875 -0.035156,-0.09375 -0.1054688,-0.09375 -0.2226562,0 -0.4921875,0.023437 -0.7265625,0.023437 -0.2226562,0 -0.515625,-0.023437 -0.7265625,-0.023437 -0.035156,0 -0.140625,0 -0.140625,0.1523437 0,0.082031 0.09375,0.09375 0.1523438,0.09375 0.328125,0.011719 0.4453125,0.1171875 0.4453125,0.28125 0,0.035156 0,0.070312 -0.011719,0.1054688 -0.1054687,0.4453125 -0.609375,2.5546875 -0.703125,2.765625 -0.3867187,0.89062496 -1.2070312,1.24218746 -1.78125,1.24218746 -0.46875,0 -0.9609375,-0.234375 -0.9609375,-0.92578126 0,-0.1640625 0.023437,-0.328125 0.058594,-0.4921875 l 0.6796875,-2.6835937 c 0.070312,-0.234375 0.082031,-0.2929688 0.6210937,-0.2929688 0.1171875,0 0.1992188,0 0.1992188,-0.1523437 0,-0.023437 -0.011719,-0.09375 -0.1054688,-0.09375 -0.1992187,0 -0.7148437,0.023437 -0.9140625,0.023437 -0.1171875,0 -0.3632812,0 -0.4804687,-0.011719 -0.140625,0 -0.3046875,-0.011719 -0.44531251,-0.011719 -0.0351563,0 -0.140625,0 -0.140625,0.1523437 0,0.09375 0.0820313,0.09375 0.22265625,0.09375 0.0117188,0 0.14062496,0 0.26953126,0.011719 0.140625,0.011719 0.1523437,0.035156 0.1523437,0.1054687 0,0.035156 -0.070312,0.3046875 -0.1054687,0.4570313 l -0.1523438,0.6210937 -0.39843746,1.59375 c -0.0703125,0.28125 -0.0703125,0.3398438 -0.0703125,0.4804688 0,0.86718746 0.70312496,1.38281246 1.54687496,1.38281246 0.9609375,0 1.8984375,-0.78515625 2.1210938,-1.69921876 z m 0,0"
       style="fill:#000000;fill-opacity:1;fill-rule:nonzero;stroke:none"
       aria-label="U"
       transform="matrix(1.3333333,0,0,1.3333333,34.348,59.854667)" />
    <path
       id="path24"
       d="m 1.9819219,-3.1633672 c 0,-0.1523437 -0.011719,-0.1523437 -0.1757813,-0.1523437 -0.3515625,0.3164062 -0.90234372,0.3164062 -1.00781247,0.3164062 h -0.0820313 v 0.2226563 h 0.0820313 c 0.1171875,0 0.43359377,-0.011719 0.72656247,-0.140625 v 2.48437496 c 0,0.1640625 0,0.2109375 -0.52734372,0.2109375 H 0.75145313 V 6.953125e-4 C 1.0209844,-0.02274219 1.4662969,-0.02274219 1.7592656,-0.02274219 c 0.28125,0 0.7265625,0 0.9960938,0.0234375025 V -0.22196094 H 2.5092656 c -0.5273437,0 -0.5273437,-0.046875 -0.5273437,-0.2109375 z m 0,0"
       style="fill:#000000;fill-opacity:1;fill-rule:nonzero;stroke:none"
       aria-label="1"
       transform="matrix(1.3333333,0,0,1.3333333,41.584,61.182667)" />
    <path
       id="path25"
       d="m 4.8282734,-2.6478359 c 0,-1.1484375 -1.2539062,-1.546875 -2.1445312,-1.546875 -0.890625,0 -2.14453126,0.3867187 -2.14453126,1.546875 v 2.51953121 c 0,0.10546875 0,0.26953125 0.1640625,0.26953125 0.17578125,0 0.17578125,-0.1640625 0.17578125,-0.26953125 V -2.6243984 c 0,-0.1875 0,-0.6210938 0.58593751,-0.9492188 0.421875,-0.2226562 0.9257812,-0.2695312 1.2070312,-0.2695312 0.6210938,0 1.0546875,0.1757812 1.2421875,0.28125 0.4921875,0.2929687 0.5742188,0.609375 0.5742188,0.9257812 v 2.50781251 c 0,0.10546875 0,0.26953125 0.1640625,0.26953125 0.1757812,0 0.1757812,-0.1640625 0.1757812,-0.26953125 z m 0,0"
       style="fill:#000000;fill-opacity:1;fill-rule:nonzero;stroke:none"
       aria-label="∩"
       transform="matrix(1.3333333,0,0,1.3333333,46.769333,59.854667)" />
    <path
       id="path26"
       d="m 4.9329297,-4.0072109 c 0.070312,-0.2695313 0.1757812,-0.4921875 0.7382812,-0.5039063 0.035156,0 0.140625,-0.011719 0.140625,-0.1523437 0,-0.046875 -0.035156,-0.09375 -0.1054687,-0.09375 -0.2226563,0 -0.4921875,0.023437 -0.7265625,0.023437 -0.2226563,0 -0.515625,-0.023437 -0.7265625,-0.023437 -0.035156,0 -0.140625,0 -0.140625,0.1523437 0,0.082031 0.09375,0.09375 0.1523437,0.09375 0.328125,0.011719 0.4453125,0.1171875 0.4453125,0.28125 0,0.035156 0,0.070312 -0.011719,0.1054688 -0.1054688,0.4453125 -0.609375,2.5546875 -0.703125,2.765625 -0.3867188,0.89062496 -1.2070313,1.24218746 -1.78125,1.24218746 -0.46875,0 -0.9609375,-0.234375 -0.9609375,-0.92578126 0,-0.1640625 0.023437,-0.328125 0.058594,-0.4921875 l 0.6796875,-2.6835937 c 0.070313,-0.234375 0.082031,-0.2929688 0.6210938,-0.2929688 0.1171875,0 0.1992187,0 0.1992187,-0.1523437 0,-0.023437 -0.011719,-0.09375 -0.1054687,-0.09375 -0.1992188,0 -0.7148438,0.023437 -0.9140625,0.023437 -0.1171875,0 -0.3632813,0 -0.4804688,-0.011719 -0.140625,0 -0.3046875,-0.011719 -0.44531246,-0.011719 -0.0351563,0 -0.140625,0 -0.140625,0.1523437 0,0.09375 0.0820313,0.09375 0.22265625,0.09375 0.0117188,0 0.14062501,0 0.26953121,0.011719 0.140625,0.011719 0.1523438,0.035156 0.1523438,0.1054687 0,0.035156 -0.070312,0.3046875 -0.1054688,0.4570313 l -0.1523437,0.6210937 -0.39843751,1.59375 c -0.0703125,0.28125 -0.0703125,0.3398438 -0.0703125,0.4804688 0,0.86718746 0.70312501,1.38281246 1.54687501,1.38281246 0.9609375,0 1.8984375,-0.78515625 2.1210937,-1.69921876 z m 0,0"
       style="fill:#000000;fill-opacity:1;fill-rule:nonzero;stroke:none"
       aria-label="U"
       transform="matrix(1.3333333,0,0,1.3333333,53.926667,59.854667)" />
    <path
       id="path27"
       d="M 2.9297344,-0.96024219 H 2.7187969 c -0.011719,0.09375 -0.058594,0.3984375 -0.140625,0.45703125 -0.035156,0.0234375 -0.4570313,0.0234375 -0.5273438,0.0234375 h -0.984375 c 0.328125,-0.24609375 0.703125,-0.515625 0.9960938,-0.71484376 0.4570312,-0.3164062 0.8671875,-0.5976562 0.8671875,-1.125 0,-0.6445312 -0.5976563,-0.9960937 -1.3125,-0.9960937 -0.66796877,0 -1.16015627,0.3867187 -1.16015627,0.8789062 0,0.2578125 0.2109375,0.3046875 0.28125,0.3046875 0.140625,0 0.29296877,-0.09375 0.29296877,-0.2929687 0,-0.1875 -0.12890627,-0.28125 -0.28125002,-0.2929688 0.140625,-0.234375 0.43359372,-0.375 0.76171872,-0.375 0.4804688,0 0.890625,0.28125 0.890625,0.7734375 0,0.421875 -0.2929687,0.7382813 -0.6796875,1.0546875 l -1.20703122,1.03125001 c -0.046875,0.046875 -0.0585937,0.046875 -0.0585937,0.0820313 V 6.953125e-4 H 2.7656719 Z m 0,0"
       style="fill:#000000;fill-opacity:1;fill-rule:nonzero;stroke:none"
       aria-label="2"
       transform="matrix(1.3333333,0,0,1.3333333,61.164,61.182667)" />
    <path
       id="path28"
       d="m 0.63255469,-5.2259609 c -0.0585938,0 -0.140625,0 -0.140625,0.082031 0,0.035156 0.0234375,0.058594 0.0703125,0.1054688 0.59765621,0.5507812 1.26562501,1.4882812 1.26562501,3.2929687 0,1.45312501 -0.4570313,2.55468751 -1.20703126,3.234375 -0.1171875,0.1171875 -0.12890625,0.1289063 -0.12890625,0.1640625 0,0.035156 0.0234375,0.082031 0.09375,0.082031 0.0820313,0 0.75000001,-0.4570313 1.20703121,-1.32421879 0.3046875,-0.5859375 0.5039063,-1.3359375 0.5039063,-2.15625001 0,-0.984375 -0.2929688,-2.5078125 -1.66406251,-3.4804682 z m 0,0"
       style="fill:#000000;fill-opacity:1;fill-rule:nonzero;stroke:none"
       aria-label=")"
       transform="matrix(1.3333333,0,0,1.3333333,66.348,59.854667)" />
    <path
       id="path29"
       d="M 99.21382,14.17339 H 71.32529"
       style="fill:none;stroke:#000000;stroke-width:0.3985;stroke-linecap:butt;stroke-linejoin:miter;stroke-miterlimit:10;stroke-dasharray:none;stroke-opacity:1"
       transform="matrix(1.3333333,0,0,-1.3333333,0.26533333,75.856)" />
    <path
       id="path30"
       d="M -1.19551,1.59401 C -1.09587,0.99626 0,0.09961 0.29886,0 0,-0.09961 -1.09587,-0.99626 -1.19551,-1.59401"
       style="fill:none;stroke:#000000;stroke-width:0.31879;stroke-linecap:round;stroke-linejoin:round;stroke-miterlimit:10;stroke-dasharray:none;stroke-opacity:1"
       transform="matrix(-1.3333333,0,0,1.3333333,95.36572,56.958147)" />
    <path
       id="path31"
       d="M 0.3279375,1.7234297 C 0.3045,1.8406172 0.3045,1.8640547 0.3045,1.8874922 c 0,0.140625 0.10546875,0.2695312 0.26953125,0.2695312 0.2109375,0 0.328125,-0.1875 0.3515625,-0.2109375 0.046875,-0.09375 0.37500005,-1.42968746 0.63281255,-2.50781246 0.1992187,0.3984375 0.5273437,0.66796875 0.9960937,0.66796875 1.1601563,0 2.4492188,-1.40624999 2.4492188,-2.88281249 0,-1.0546875 -0.65625,-1.6289063 -1.3828125,-1.6289063 -0.9726563,0 -2.015625,0.9960938 -2.3203125,2.2148438 z m 2.2148438,-1.82812501 c -0.703125,0 -0.8554688,-0.796875 -0.8554688,-0.890625 0,-0.0351563 0.046875,-0.23437499 0.070312,-0.36328129 0.28125,-1.125 0.3867188,-1.4765625 0.5976563,-1.875 0.4335937,-0.7265625 0.9375,-0.9492187 1.2421875,-0.9492187 0.3632812,0 0.6914062,0.2929687 0.6914062,0.9726562 0,0.5507813 -0.2929687,1.6640625 -0.5625,2.15625 -0.328125,0.62109379 -0.8085937,0.94921879 -1.1835932,0.94921879 z m 0,0"
       style="fill:#000000;fill-opacity:1;fill-rule:nonzero;stroke:none"
       aria-label="ρ"
       transform="matrix(1.3333333,0,0,1.3333333,118.344,57.456)" />
    <path
       id="path32"
       d="m 4.9327969,-4.0072109 c 0.070312,-0.2695313 0.1757812,-0.4921875 0.7382812,-0.5039063 0.035156,0 0.140625,-0.011719 0.140625,-0.1523437 0,-0.046875 -0.035156,-0.09375 -0.1054687,-0.09375 -0.2226563,0 -0.4921875,0.023437 -0.7265625,0.023437 -0.2226563,0 -0.515625,-0.023437 -0.7265625,-0.023437 -0.035156,0 -0.140625,0 -0.140625,0.1523437 0,0.082031 0.09375,0.09375 0.1523437,0.09375 0.328125,0.011719 0.4453125,0.1171875 0.4453125,0.28125 0,0.035156 0,0.070312 -0.011719,0.1054688 -0.1054688,0.4453125 -0.609375,2.5546875 -0.703125,2.765625 -0.3867188,0.89062496 -1.2070313,1.24218746 -1.78125,1.24218746 -0.46875,0 -0.9609375,-0.234375 -0.9609375,-0.92578126 0,-0.1640625 0.023437,-0.328125 0.058594,-0.4921875 l 0.6796875,-2.6835937 c 0.070312,-0.234375 0.082031,-0.2929688 0.6210938,-0.2929688 0.1171875,0 0.1992187,0 0.1992187,-0.1523437 0,-0.023437 -0.011719,-0.09375 -0.1054687,-0.09375 -0.1992188,0 -0.7148438,0.023437 -0.9140625,0.023437 -0.1171875,0 -0.3632813,0 -0.4804688,-0.011719 -0.140625,0 -0.3046875,-0.011719 -0.44531248,-0.011719 -0.0351563,0 -0.140625,0 -0.140625,0.1523437 0,0.09375 0.0820313,0.09375 0.22265625,0.09375 0.0117188,0 0.14062503,0 0.26953123,0.011719 0.140625,0.011719 0.1523438,0.035156 0.1523438,0.1054687 0,0.035156 -0.070312,0.3046875 -0.1054688,0.4570313 l -0.1523437,0.6210937 -0.39843753,1.59375 c -0.0703125,0.28125 -0.0703125,0.3398438 -0.0703125,0.4804688 0,0.86718746 0.70312503,1.38281246 1.54687503,1.38281246 0.9609375,0 1.8984375,-0.78515625 2.1210937,-1.69921876 z m 0,0"
       style="fill:#000000;fill-opacity:1;fill-rule:nonzero;stroke:none"
       aria-label="U"
       transform="matrix(1.3333333,0,0,1.3333333,125.212,59.854667)" />
    <path
       id="path33"
       d="M 2.9306016,-0.96024219 H 2.7196641 c -0.011719,0.09375 -0.058594,0.3984375 -0.140625,0.45703125 -0.035156,0.0234375 -0.4570313,0.0234375 -0.5273438,0.0234375 h -0.984375 c 0.328125,-0.24609375 0.703125,-0.515625 0.9960938,-0.71484376 0.4570312,-0.3164062 0.8671875,-0.5976562 0.8671875,-1.125 0,-0.6445312 -0.5976563,-0.9960937 -1.3125,-0.9960937 -0.66796879,0 -1.16015629,0.3867187 -1.16015629,0.8789062 0,0.2578125 0.2109375,0.3046875 0.28125,0.3046875 0.140625,0 0.29296879,-0.09375 0.29296879,-0.2929687 0,-0.1875 -0.12890629,-0.28125 -0.28125004,-0.2929688 0.140625,-0.234375 0.43359374,-0.375 0.76171874,-0.375 0.4804688,0 0.890625,0.28125 0.890625,0.7734375 0,0.421875 -0.2929687,0.7382813 -0.6796875,1.0546875 l -1.20703124,1.03125001 c -0.046875,0.046875 -0.0585938,0.046875 -0.0585938,0.0820313 V 6.953125e-4 H 2.7665391 Z m 0,0"
       style="fill:#000000;fill-opacity:1;fill-rule:nonzero;stroke:none"
       aria-label="2"
       transform="matrix(1.3333333,0,0,1.3333333,132.448,61.182667)" />
    <path
       id="path34"
       d="m 2.4722656,-5.2259609 c -1.3242187,0.9257812 -1.67578122,2.4140625 -1.67578122,3.4804687 0,0.98437501 0.29296872,2.50781251 1.67578122,3.4804688 0.058594,0 0.140625,0 0.140625,-0.082031 0,-0.046875 -0.023437,-0.058594 -0.070312,-0.1054687 -0.9257812,-0.83203129 -1.265625,-2.01562504 -1.265625,-3.2929688 0,-1.875 0.7148438,-2.8007812 1.2890625,-3.3164062 0.023437,-0.023437 0.046875,-0.046875 0.046875,-0.082031 0,-0.082031 -0.082031,-0.082031 -0.1406255,-0.082032 z m 0,0"
       style="fill:#000000;fill-opacity:1;fill-rule:nonzero;stroke:none"
       aria-label="("
       transform="matrix(1.3333333,0,0,1.3333333,137.63333,59.854667)" />
    <path
       id="path35"
       d="m 4.9344609,-4.0072109 c 0.070312,-0.2695313 0.1757813,-0.4921875 0.7382813,-0.5039063 0.035156,0 0.140625,-0.011719 0.140625,-0.1523437 0,-0.046875 -0.035156,-0.09375 -0.1054688,-0.09375 -0.2226562,0 -0.4921875,0.023437 -0.7265625,0.023437 -0.2226562,0 -0.515625,-0.023437 -0.7265625,-0.023437 -0.035156,0 -0.140625,0 -0.140625,0.1523437 0,0.082031 0.09375,0.09375 0.1523438,0.09375 0.328125,0.011719 0.4453125,0.1171875 0.4453125,0.28125 0,0.035156 0,0.070312 -0.011719,0.1054688 -0.1054687,0.4453125 -0.609375,2.5546875 -0.703125,2.765625 -0.3867187,0.89062496 -1.2070312,1.24218746 -1.78125,1.24218746 -0.46875,0 -0.9609375,-0.234375 -0.9609375,-0.92578126 0,-0.1640625 0.023437,-0.328125 0.058594,-0.4921875 l 0.6796875,-2.6835937 c 0.070312,-0.234375 0.082031,-0.2929688 0.6210937,-0.2929688 0.1171875,0 0.1992188,0 0.1992188,-0.1523437 0,-0.023437 -0.011719,-0.09375 -0.1054688,-0.09375 -0.1992187,0 -0.7148437,0.023437 -0.9140625,0.023437 -0.1171875,0 -0.3632812,0 -0.4804687,-0.011719 -0.140625,0 -0.3046875,-0.011719 -0.44531251,-0.011719 -0.0351563,0 -0.140625,0 -0.140625,0.1523437 0,0.09375 0.0820313,0.09375 0.22265625,0.09375 0.0117188,0 0.14062496,0 0.26953126,0.011719 0.140625,0.011719 0.1523437,0.035156 0.1523437,0.1054687 0,0.035156 -0.070312,0.3046875 -0.1054687,0.4570313 l -0.1523438,0.6210937 -0.39843746,1.59375 c -0.0703125,0.28125 -0.0703125,0.3398438 -0.0703125,0.4804688 0,0.86718746 0.70312496,1.38281246 1.54687496,1.38281246 0.9609375,0 1.8984375,-0.78515625 2.1210938,-1.69921876 z m 0,0"
       style="fill:#000000;fill-opacity:1;fill-rule:nonzero;stroke:none"
       aria-label="U"
       transform="matrix(1.3333333,0,0,1.3333333,141.784,59.854667)" />
    <path
       id="path36"
       d="m 1.9801172,-3.1633672 c 0,-0.1523437 -0.011719,-0.1523437 -0.1757813,-0.1523437 -0.3515625,0.3164062 -0.90234371,0.3164062 -1.00781246,0.3164062 h -0.0820313 v 0.2226563 h 0.0820313 c 0.1171875,0 0.43359376,-0.011719 0.72656246,-0.140625 v 2.48437496 c 0,0.1640625 0,0.2109375 -0.52734371,0.2109375 H 0.74964844 V 6.953125e-4 C 1.0191797,-0.02274219 1.4644922,-0.02274219 1.7574609,-0.02274219 c 0.28125,0 0.7265625,0 0.9960938,0.0234375025 V -0.22196094 H 2.5074609 c -0.5273437,0 -0.5273437,-0.046875 -0.5273437,-0.2109375 z m 0,0"
       style="fill:#000000;fill-opacity:1;fill-rule:nonzero;stroke:none"
       aria-label="1"
       transform="matrix(1.3333333,0,0,1.3333333,149.02,61.182667)" />
    <path
       id="path37"
       d="m 4.8274688,-2.6478359 c 0,-1.1484375 -1.2539063,-1.546875 -2.1445313,-1.546875 -0.890625,0 -2.14453125,0.3867187 -2.14453125,1.546875 v 2.51953121 c 0,0.10546875 0,0.26953125 0.1640625,0.26953125 0.17578125,0 0.17578125,-0.1640625 0.17578125,-0.26953125 V -2.6243984 c 0,-0.1875 0,-0.6210938 0.5859375,-0.9492188 0.421875,-0.2226562 0.9257813,-0.2695312 1.2070313,-0.2695312 0.6210937,0 1.0546875,0.1757812 1.2421875,0.28125 0.4921875,0.2929687 0.5742187,0.609375 0.5742187,0.9257812 v 2.50781251 c 0,0.10546875 0,0.26953125 0.1640625,0.26953125 0.1757813,0 0.1757813,-0.1640625 0.1757813,-0.26953125 z m 0,0"
       style="fill:#000000;fill-opacity:1;fill-rule:nonzero;stroke:none"
       aria-label="∩"
       transform="matrix(1.3333333,0,0,1.3333333,154.204,59.854667)" />
    <path
       id="path38"
       d="m 4.9340547,-4.0072109 c 0.070312,-0.2695313 0.1757812,-0.4921875 0.7382812,-0.5039063 0.035156,0 0.140625,-0.011719 0.140625,-0.1523437 0,-0.046875 -0.035156,-0.09375 -0.1054687,-0.09375 -0.2226563,0 -0.4921875,0.023437 -0.7265625,0.023437 -0.2226563,0 -0.515625,-0.023437 -0.7265625,-0.023437 -0.035156,0 -0.140625,0 -0.140625,0.1523437 0,0.082031 0.09375,0.09375 0.1523437,0.09375 0.328125,0.011719 0.4453125,0.1171875 0.4453125,0.28125 0,0.035156 0,0.070312 -0.011719,0.1054688 -0.1054688,0.4453125 -0.609375,2.5546875 -0.703125,2.765625 -0.3867188,0.89062496 -1.2070313,1.24218746 -1.78125,1.24218746 -0.46875,0 -0.9609375,-0.234375 -0.9609375,-0.92578126 0,-0.1640625 0.023437,-0.328125 0.058594,-0.4921875 l 0.6796875,-2.6835937 c 0.070313,-0.234375 0.082031,-0.2929688 0.6210938,-0.2929688 0.1171875,0 0.1992187,0 0.1992187,-0.1523437 0,-0.023437 -0.011719,-0.09375 -0.1054687,-0.09375 -0.1992188,0 -0.7148438,0.023437 -0.9140625,0.023437 -0.1171875,0 -0.3632813,0 -0.4804688,-0.011719 -0.140625,0 -0.3046875,-0.011719 -0.44531246,-0.011719 -0.0351563,0 -0.140625,0 -0.140625,0.1523437 0,0.09375 0.0820313,0.09375 0.22265625,0.09375 0.0117188,0 0.14062501,0 0.26953121,0.011719 0.140625,0.011719 0.1523438,0.035156 0.1523438,0.1054687 0,0.035156 -0.070312,0.3046875 -0.1054688,0.4570313 l -0.1523437,0.6210937 -0.39843751,1.59375 c -0.0703125,0.28125 -0.0703125,0.3398438 -0.0703125,0.4804688 0,0.86718746 0.70312501,1.38281246 1.54687501,1.38281246 0.9609375,0 1.8984375,-0.78515625 2.1210937,-1.69921876 z m 0,0"
       style="fill:#000000;fill-opacity:1;fill-rule:nonzero;stroke:none"
       aria-label="U"
       transform="matrix(1.3333333,0,0,1.3333333,161.36267,59.854667)" />
    <path
       id="path39"
       d="M 2.9289297,-0.96024219 H 2.7179922 c -0.011719,0.09375 -0.058594,0.3984375 -0.140625,0.45703125 -0.035156,0.0234375 -0.4570313,0.0234375 -0.5273438,0.0234375 h -0.984375 c 0.328125,-0.24609375 0.703125,-0.515625 0.9960938,-0.71484376 0.4570312,-0.3164062 0.8671875,-0.5976562 0.8671875,-1.125 0,-0.6445312 -0.5976563,-0.9960937 -1.3125,-0.9960937 -0.66796876,0 -1.16015626,0.3867187 -1.16015626,0.8789062 0,0.2578125 0.2109375,0.3046875 0.28125,0.3046875 0.140625,0 0.29296876,-0.09375 0.29296876,-0.2929687 0,-0.1875 -0.12890626,-0.28125 -0.28125001,-0.2929688 0.140625,-0.234375 0.43359371,-0.375 0.76171871,-0.375 0.4804688,0 0.890625,0.28125 0.890625,0.7734375 0,0.421875 -0.2929687,0.7382813 -0.6796875,1.0546875 l -1.20703121,1.03125001 c -0.046875,0.046875 -0.0585938,0.046875 -0.0585938,0.0820313 V 6.953125e-4 H 2.7648672 Z m 0,0"
       style="fill:#000000;fill-opacity:1;fill-rule:nonzero;stroke:none"
       aria-label="2"
       transform="matrix(1.3333333,0,0,1.3333333,168.59867,61.182667)" />
    <path
       id="path40"
       d="m 0.63367969,-5.2259609 c -0.0585938,0 -0.140625,0 -0.140625,0.082031 0,0.035156 0.0234375,0.058594 0.0703125,0.1054688 0.59765621,0.5507812 1.26562501,1.4882812 1.26562501,3.2929687 0,1.45312501 -0.4570313,2.55468751 -1.20703126,3.234375 -0.1171875,0.1171875 -0.12890625,0.1289063 -0.12890625,0.1640625 0,0.035156 0.0234375,0.082031 0.09375,0.082031 0.0820313,0 0.75000001,-0.4570313 1.20703121,-1.32421879 0.3046875,-0.5859375 0.5039063,-1.3359375 0.5039063,-2.15625001 0,-0.984375 -0.2929688,-2.5078125 -1.66406251,-3.4804682 z m 0,0"
       style="fill:#000000;fill-opacity:1;fill-rule:nonzero;stroke:none"
       aria-label=")"
       transform="matrix(1.3333333,0,0,1.3333333,173.784,59.854667)" />
    <path
       id="path41"
       d="m 3.8910937,-3.7264297 c -0.2695312,0.011719 -0.46875,0.234375 -0.46875,0.4453125 0,0.140625 0.082031,0.2929688 0.3046875,0.2929688 0.2226563,0 0.4570313,-0.1640625 0.4570313,-0.5625 0,-0.4453125 -0.4335938,-0.8554688 -1.1835938,-0.8554688 -1.3125,0 -1.6875,1.0195313 -1.6875,1.453125 0,0.7851563 0.7382813,0.9257813 1.03125,0.9960938 0.515625,0.09375 1.03125,0.1992187 1.03125,0.75 0,0.25781246 -0.2226562,1.10156246 -1.4179687,1.10156246 -0.140625,0 -0.9140625,0 -1.13671875,-0.52734375 0.37499995,0.046875 0.62109375,-0.2578125 0.62109375,-0.52734371 0,-0.234375 -0.1523438,-0.3515625 -0.3632813,-0.3515625 -0.25781245,0 -0.56249995,0.2109375 -0.56249995,0.65624996 0,0.5625 0.57421875,0.9609375 1.42968745,0.9609375 1.6054688,0 2.0039063,-1.20703126 2.0039063,-1.65234376 0,-0.3515625 -0.1992188,-0.609375 -0.3164063,-0.7265625 -0.2695312,-0.28125 -0.5507812,-0.328125 -0.9960937,-0.421875 -0.3515625,-0.070312 -0.75,-0.140625 -0.75,-0.5976562 0,-0.28125 0.234375,-0.890625 1.1132812,-0.890625 0.2460938,0 0.75,0.070312 0.890625,0.4570312 z m 0,0"
       style="fill:#000000;fill-opacity:1;fill-rule:nonzero;stroke:none"
       aria-label="s"
       transform="matrix(1.3333333,0,0,1.3333333,91.64,78.714667)" />
  </g>
</svg>
