<?xml version="1.0" encoding="UTF-8" standalone="no"?>
<!-- Created with Inkscape (http://www.inkscape.org/) -->

<svg
   version="1.1"
   id="svg1"
   width="321.34134"
   height="59.646667"
   viewBox="0 0 321.34134 59.646667"
   xmlns="http://www.w3.org/2000/svg"
   xmlns:svg="http://www.w3.org/2000/svg">
  <defs
     id="defs1" />
  <g
     id="g1">
    <path
       id="path1"
       d="M -28.3468,0 H 197.96938"
       style="fill:none;stroke:#000000;stroke-width:0.3985;stroke-linecap:butt;stroke-linejoin:miter;stroke-miterlimit:10;stroke-dasharray:none;stroke-opacity:1"
       transform="matrix(1.3333333,0,0,-1.3333333,38.061333,41.301333)" />
    <path
       id="path2"
       d="M -1.19551,1.59401 C -1.09587,0.99626 0,0.09961 0.29886,0 0,-0.09961 -1.09587,-0.99626 -1.19551,-1.59401"
       style="fill:none;stroke:#000000;stroke-width:0.31879;stroke-linecap:round;stroke-linejoin:round;stroke-miterlimit:10;stroke-dasharray:none;stroke-opacity:1"
       transform="matrix(1.3333333,0,0,-1.3333333,302.02051,41.301333)" />
    <path
       id="path3"
       d="m 2.6711094,-3.1277266 h 0.3515625 l 1.5,2.30859379 c 0.09375,0.1640625 0.3398437,0.55078125 0.4453125,0.703125 0.070312,0.1171875 0.1054687,0.1171875 0.328125,0.1171875 h 1.3828125 c 0.1757812,0 0.328125,0 0.328125,-0.17578125 0,-0.0820313 -0.070312,-0.15234375 -0.1523438,-0.17578125 -0.375,-0.0820313 -0.8554687,-0.73828129 -1.1015625,-1.05468749 -0.070312,-0.09375 -0.5625,-0.75 -1.2304687,-1.828125 0.890625,-0.1640625 1.7460937,-0.5390625 1.7460937,-1.7226563 0,-1.3828125 -1.4648437,-1.8632812 -2.6484375,-1.8632812 H 0.50314063 c -0.1875,0 -0.33984375,0 -0.33984375,0.1757812 0,0.1640625 0.1875,0.1640625 0.26953125,0.1640625 0.5625,0 0.60937497,0.070312 0.60937497,0.5742188 v 4.99218749 c 0,0.4921875 -0.046875,0.5625 -0.60937497,0.5625 -0.0820313,0 -0.26953125,0 -0.26953125,0.17578125 0,0.17578125 0.15234375,0.17578125 0.33984375,0.17578125 H 3.2218906 c 0.1875,0 0.328125,0 0.328125,-0.17578125 0,-0.17578125 -0.1640625,-0.17578125 -0.2695312,-0.17578125 -0.5742188,0 -0.609375,-0.0820313 -0.609375,-0.5625 z m 1.921875,-0.4921875 c 0.28125,-0.3632812 0.3046875,-0.890625 0.3046875,-1.3242187 0,-0.4804688 -0.058594,-1.0078125 -0.375,-1.4179688 0.4101562,0.082031 1.3945312,0.3984375 1.3945312,1.40625 0,0.6445313 -0.3046875,1.1484375 -1.3242187,1.3359375 z m -1.921875,-2.3203125 c 0,-0.1992187 0,-0.5390625 0.6210937,-0.5390625 0.84375,0 1.2539063,0.3515625 1.2539063,1.5351563 0,1.2773437 -0.3046875,1.4648437 -1.875,1.4648437 z m -1.359375,5.58984379 c 0.082031,-0.17578125 0.082031,-0.45703125 0.082031,-0.55078125 V -5.9285078 c 0,-0.09375 0,-0.3632813 -0.082031,-0.5507813 h 1.1367187 c -0.1289062,0.1640625 -0.1289062,0.3632813 -0.1289062,0.515625 v 5.06250004 c 0,0.10546875 0,0.375 0.082031,0.55078125 z M 3.4328281,-3.1277266 c 0.070312,-0.011719 0.1171875,-0.023437 0.1875,-0.023437 0.1523438,0 0.375,-0.011719 0.5273438,-0.035156 0.140625,0.234375 1.21875,2.015625 2.0507812,2.83593749 H 5.2257969 Z m 0,0"
       style="fill:#000000;fill-opacity:1;fill-rule:nonzero;stroke:none"
       aria-label="R"
       transform="matrix(1.3333333,0,0,1.3333333,307.32133,45.877333)" />
    <path
       id="path4"
       d="M 0,0 H 170.08086"
       style="fill:none;stroke:#000000;stroke-width:0.79701;stroke-linecap:butt;stroke-linejoin:miter;stroke-miterlimit:10;stroke-dasharray:none;stroke-opacity:1"
       transform="matrix(1.3333333,0,0,-1.3333333,38.061333,41.301333)" />
    <path
       id="path5"
       d="M 1.99255,0 C 1.99255,1.10046 1.10046,1.99255 0,1.99255 -1.10046,1.99255 -1.99255,1.10046 -1.99255,0 c 0,-1.10046 0.89209,-1.99255 1.99255,-1.99255 1.10046,0 1.99255,0.89209 1.99255,1.99255 z"
       style="fill:#000000;fill-opacity:1;fill-rule:nonzero;stroke:none"
       transform="matrix(1.3333333,0,0,-1.3333333,38.061333,41.301333)" />
    <path
       id="path6"
       d="m 3.7149297,-3.7605859 c -0.1757813,-0.375 -0.46875,-0.6445313 -0.9140625,-0.6445313 -1.171875,0 -2.40234376,1.4648438 -2.40234376,2.9179688 0,0.93749996 0.55078125,1.59374996 1.32421876,1.59374996 0.1992187,0 0.703125,-0.03515625 1.3007812,-0.73828125 0.070312,0.41015625 0.421875,0.73828125 0.9023438,0.73828125 0.3515625,0 0.5742187,-0.22265625 0.7382812,-0.5390625 0.1640625,-0.36328125 0.2929688,-0.97265626 0.2929688,-0.99609376 0,-0.09375 -0.082031,-0.09375 -0.1171875,-0.09375 -0.09375,0 -0.1054688,0.035156 -0.140625,0.1757813 -0.1640625,0.64453121 -0.3515625,1.24218746 -0.75,1.24218746 -0.2695313,0 -0.3046875,-0.2578125 -0.3046875,-0.45703125 0,-0.22265625 0.023437,-0.3046875 0.1289062,-0.73828121 0.1171875,-0.421875 0.1289063,-0.5273438 0.2226563,-0.9023438 l 0.3515625,-1.3945312 c 0.070312,-0.28125 0.070312,-0.2929688 0.070312,-0.3398438 0,-0.1640625 -0.1171875,-0.2695312 -0.28125,-0.2695312 -0.2460938,0 -0.3867188,0.2226562 -0.4218745,0.4453125 z m -0.6445313,2.578125 c -0.046875,0.1757812 -0.046875,0.19921871 -0.1992187,0.36328121 -0.4453125,0.55078125 -0.84375,0.71484375 -1.125,0.71484375 -0.5039063,0 -0.6445313,-0.55078125 -0.6445313,-0.93749996 0,-0.5039063 0.328125,-1.7226563 0.5507813,-2.1796875 0.3046875,-0.5976563 0.7617187,-0.9609375 1.1601562,-0.9609375 0.6445313,0 0.7851563,0.8203125 0.7851563,0.8789062 0,0.058594 -0.023437,0.1171875 -0.035156,0.1640625 z m 0,0"
       style="fill:#000000;fill-opacity:1;fill-rule:nonzero;stroke:none"
       aria-label="a"
       transform="matrix(1.3333333,0,0,1.3333333,34.550667,51.713333)" />
    <path
       id="path7"
       d="m 172.07341,0 c 0,1.10046 -0.89209,1.99255 -1.99255,1.99255 -1.10048,0 -1.99256,-0.89209 -1.99256,-1.99255 0,-1.10046 0.89208,-1.99255 1.99256,-1.99255 1.10046,0 1.99255,0.89209 1.99255,1.99255 z"
       style="fill:#000000;fill-opacity:1;fill-rule:nonzero;stroke:none"
       transform="matrix(1.3333333,0,0,-1.3333333,38.061333,41.301333)" />
    <path
       id="path8"
       d="m 2.3801875,-6.8085313 c 0,0 0,-0.1054687 -0.1289062,-0.1054687 -0.2226563,0 -0.9492188,0.082031 -1.21875,0.1054687 -0.0703126,0 -0.18750005,0.011719 -0.18750005,0.1992188 0,0.1171875 0.09375,0.1171875 0.24609375,0.1171875 0.46875,0 0.4921875,0.070312 0.4921875,0.1640625 0,0.070312 -0.082031,0.4101562 -0.140625,0.6210937 L 0.63409375,-2.460875 c -0.12890625,0.5039062 -0.1640625,0.65625 -0.1640625,1.0078125 0,0.94921875 0.52734375,1.55859375 1.26562505,1.55859375 1.171875,0 2.4023437,-1.47656255 2.4023437,-2.91796875 0,-0.9023438 -0.5273437,-1.59375 -1.3242187,-1.59375 -0.4570313,0 -0.8671875,0.2929687 -1.171875,0.5976562 z m -0.9375,3.7734375 c 0.058594,-0.2226562 0.058594,-0.2460937 0.1523438,-0.3515625 0.4921875,-0.6445312 0.9375,-0.796875 1.1953125,-0.796875 0.3632812,0 0.6328125,0.2929688 0.6328125,0.9375 0,0.5859375 -0.328125,1.734375 -0.515625,2.109375 -0.328125,0.6679688 -0.7851563,1.03125005 -1.171875,1.03125005 -0.3398438,0 -0.6679688,-0.26953125 -0.6679688,-1.00781255 0,-0.1875 0,-0.3867187 0.1640625,-1.0078125 z m 0,0"
       style="fill:#000000;fill-opacity:1;fill-rule:nonzero;stroke:none"
       aria-label="b"
       transform="matrix(1.3333333,0,0,1.3333333,261.98267,55.218667)" />
    <path
       id="path9"
       d="m 3.7254922,-6.034125 c 0.09375,-0.3632813 0.1171875,-0.4570313 0.9023437,-0.4570313 0.2460938,0 0.3164063,0 0.3164063,-0.1875 0,-0.1289062 -0.1054688,-0.1289062 -0.140625,-0.1289062 -0.2929688,0 -1.03125,0.035156 -1.3125,0.035156 -0.3046875,0 -1.03125,-0.035156 -1.3359375,-0.035156 -0.058594,0 -0.1992188,0 -0.1992188,0.1992187 0,0.1171875 0.09375,0.1171875 0.28125,0.1171875 0.421875,0 0.6914063,0 0.6914063,0.1875 0,0.046875 0,0.070312 -0.023437,0.1640625 l -1.3476563,5.36718755 c -0.082031,0.36328125 -0.1171875,0.46875 -0.90234371,0.46875 -0.22265625,0 -0.31640625,0 -0.31640625,0.19921875 0,0.10546875 0.1171875,0.10546875 0.15234375,0.10546875 0.28125,0 1.00781251,-0.03515625 1.30078121,-0.03515625 0.3046875,0 1.03125,0.03515625 1.3359375,0.03515625 0.082031,0 0.1992188,0 0.1992188,-0.1875 0,-0.1171875 -0.082031,-0.1171875 -0.3046875,-0.1171875 -0.1757813,0 -0.2226563,0 -0.421875,-0.0234375 -0.2109375,-0.0234375 -0.2460938,-0.0585938 -0.2460938,-0.17578125 0,-0.0703125 0.011719,-0.15234375 0.035156,-0.22265625 z m 0,0"
       style="fill:#000000;fill-opacity:1;fill-rule:nonzero;stroke:none"
       aria-label="I"
       transform="matrix(1.3333333,0,0,1.3333333,148.00533,36.608)" />
    <path
       id="path10"
       d="m 56.69362,0 h 56.69362"
       style="fill:none;stroke:#ff0000;stroke-width:0.79701;stroke-linecap:butt;stroke-linejoin:miter;stroke-miterlimit:10;stroke-dasharray:none;stroke-opacity:1"
       transform="matrix(1.3333333,0,0,-1.3333333,38.061333,41.301333)" />
    <path
       id="path11"
       d="m 58.68617,0 c 0,1.10046 -0.89209,1.99255 -1.99255,1.99255 -1.10048,0 -1.99255,-0.89209 -1.99255,-1.99255 0,-1.10046 0.89207,-1.99255 1.99255,-1.99255 1.10046,0 1.99255,0.89209 1.99255,1.99255 z"
       style="fill:#ff0000;fill-opacity:1;fill-rule:nonzero;stroke:none"
       transform="matrix(1.3333333,0,0,-1.3333333,38.061333,41.301333)" />
    <path
       id="path12"
       d="m 3.3277266,-3.0105859 c 0.058594,-0.2578125 0.2929687,-1.171875 0.984375,-1.171875 0.046875,0 0.2929687,0 0.5039062,0.1289062 -0.28125,0.046875 -0.4804687,0.3046875 -0.4804687,0.5390625 0,0.1640625 0.1054687,0.3515625 0.375,0.3515625 0.2226562,0 0.5390625,-0.1875 0.5390625,-0.5859375 0,-0.515625 -0.5859375,-0.65625 -0.9257813,-0.65625 -0.5742187,0 -0.9257812,0.5273438 -1.0429687,0.7617188 -0.2578125,-0.65625 -0.7851563,-0.7617188 -1.078125,-0.7617188 -1.0429688,0 -1.60546879,1.2890625 -1.60546879,1.5351563 0,0.1054687 0.10546875,0.1054687 0.1171875,0.1054687 0.0820313,0 0.1171875,-0.023437 0.12890625,-0.1171875 0.33984374,-1.0546875 0.99609374,-1.3007812 1.33593754,-1.3007812 0.1875,0 0.5390625,0.09375 0.5390625,0.6679687 0,0.3046875 -0.1640625,0.9726563 -0.5390625,2.3671875 -0.1523438,0.62109376 -0.5039063,1.04296876 -0.9492188,1.04296876 -0.058594,0 -0.28124999,0 -0.49218749,-0.12890625 0.24609375,-0.0585938 0.46874999,-0.26953125 0.46874999,-0.5390625 0,-0.26953121 -0.22265624,-0.35156251 -0.37499999,-0.35156251 -0.29296875,0 -0.5390625,0.25781251 -0.5390625,0.57421876 0,0.45703125 0.4921875,0.65625 0.93749999,0.65625 0.65625,0 1.0078125,-0.69140625 1.0429688,-0.75 0.1171875,0.36328125 0.4804687,0.75 1.078125,0.75 1.0195312,0 1.59375,-1.27734376 1.59375,-1.53515626 0,-0.09375 -0.09375,-0.09375 -0.1289063,-0.09375 -0.082031,0 -0.1054687,0.035156 -0.1289062,0.1054688 -0.328125,1.06640621 -0.9960938,1.31249996 -1.3242188,1.31249996 -0.3867187,0 -0.5390625,-0.328125 -0.5390625,-0.65625 0,-0.22265625 0.058594,-0.44531246 0.1640625,-0.87890626 z m 0,0"
       style="fill:#ff0000;fill-opacity:1;fill-rule:nonzero;stroke:none"
       aria-label="x"
       transform="matrix(1.3333333,0,0,1.3333333,109.856,51.713333)" />
    <path
       id="path13"
       d="m 115.37979,0 c 0,1.10046 -0.89209,1.99255 -1.99255,1.99255 -1.10048,0 -1.99256,-0.89209 -1.99256,-1.99255 0,-1.10046 0.89208,-1.99255 1.99256,-1.99255 1.10046,0 1.99255,0.89209 1.99255,1.99255 z"
       style="fill:#ff0000;fill-opacity:1;fill-rule:nonzero;stroke:none"
       transform="matrix(1.3333333,0,0,-1.3333333,38.061333,41.301333)" />
    <path
       id="path14"
       d="m 4.8394141,-3.7957422 c 0.046875,-0.140625 0.046875,-0.1523437 0.046875,-0.2226562 0,-0.1875 -0.140625,-0.2695313 -0.2929688,-0.2695313 -0.1054687,0 -0.2578125,0.058594 -0.3515625,0.1992188 -0.023437,0.058594 -0.09375,0.3632812 -0.140625,0.5390625 -0.070312,0.2578125 -0.140625,0.5273437 -0.1992187,0.796875 l -0.4453125,1.79296871 c -0.035156,0.15234375 -0.46875,0.85546875 -1.125,0.85546875 -0.5039063,0 -0.6210938,-0.4453125 -0.6210938,-0.80859375 0,-0.45703121 0.1757813,-1.07812501 0.515625,-1.95703121 0.1523438,-0.4101563 0.1992188,-0.515625 0.1992188,-0.7148438 0,-0.4453125 -0.328125,-0.8203125 -0.8203125,-0.8203125 -0.94921879,0 -1.31250004,1.453125 -1.31250004,1.5351563 0,0.1054687 0.09375,0.1054687 0.1171875,0.1054687 0.09375,0 0.10546875,-0.023437 0.15234375,-0.1875 0.26953125,-0.9375 0.66796879,-1.2304687 1.00781249,-1.2304687 0.082031,0 0.2578125,0 0.2578125,0.3164062 0,0.2460938 -0.1054687,0.515625 -0.1757812,0.703125 -0.3984375,1.0546875 -0.5742188,1.6171875 -0.5742188,2.0859375 0,0.89062501 0.6210938,1.18359376 1.21875,1.18359376 0.3867188,0 0.7265625,-0.1640625 0.9960938,-0.4453125 -0.1289063,0.515625 -0.2460938,1.0078125 -0.6445313,1.53515624 -0.2578125,0.3398438 -0.6328125,0.6328125 -1.0898437,0.6328125 -0.140625,0 -0.59765629,-0.035156 -0.76171879,-0.421875 0.1640625,0 0.29296879,0 0.43359379,-0.1171875 0.09375,-0.09375 0.1992187,-0.2226562 0.1992187,-0.41015624 0,-0.31640625 -0.2695312,-0.3515625 -0.375,-0.3515625 -0.22265624,0 -0.55078124,0.1640625 -0.55078124,0.64453124 0,0.5039063 0.43359375,0.8671875 1.05468754,0.8671875 1.0195312,0 2.0507812,-0.9023437 2.3320312,-2.02734374 z m 0,0"
       style="fill:#ff0000;fill-opacity:1;fill-rule:nonzero;stroke:none"
       aria-label="y"
       transform="matrix(1.3333333,0,0,1.3333333,185.74667,51.713333)" />
    <path
       id="path15"
       d="m 1.58325,-0.77235156 c -0.09375,0.38671875 -0.1171875,0.46875 -0.90234375,0.46875 -0.17578125,0 -0.28125,0 -0.28125,0.1875 0,0.1171875 0.09375,0.1171875 0.28125,0.1171875 H 3.973875 c 2.0742188,0 4.03125,-2.09765624 4.03125,-4.28906254 0,-1.3945312 -0.84375,-2.5195312 -2.3320312,-2.5195312 H 2.3215313 c -0.1875,0 -0.2929688,0 -0.2929688,0.1992187 0,0.1171875 0.082031,0.1171875 0.28125,0.1171875 0.1289063,0 0.3164063,0.011719 0.4335938,0.011719 0.1523437,0.023437 0.2109375,0.058594 0.2109375,0.1640625 0,0.035156 0,0.070312 -0.035156,0.1875 z M 3.7395,-6.1161016 c 0.082031,-0.3515625 0.1054688,-0.375 0.5390625,-0.375 h 1.0664063 c 0.9726562,0 1.7929687,0.5273438 1.7929687,1.8398438 0,0.4921875 -0.1992187,2.1210937 -1.0429687,3.2226562 -0.28125,0.3632813 -1.078125,1.12500004 -2.296875,1.12500004 h -1.125 c -0.140625,0 -0.1640625,0 -0.2226563,-0.0117188 -0.09375,-0.0117188 -0.1289062,-0.0234375 -0.1289062,-0.10546875 0,-0.0234375 0,-0.046875 0.046875,-0.22265625 z m 0,0"
       style="fill:#000000;fill-opacity:1;fill-rule:nonzero;stroke:none"
       aria-label="D"
       transform="matrix(1.3333333,0,0,1.3333333,145.764,29.049333)" />
    <path
       id="path16"
       d="M 0,14.17339 H 56.69362"
       style="fill:none;stroke:#0000ff;stroke-width:0.79701;stroke-linecap:butt;stroke-linejoin:miter;stroke-miterlimit:10;stroke-dasharray:none;stroke-opacity:1"
       transform="matrix(1.3333333,0,0,-1.3333333,38.061333,41.301333)" />
    <path
       id="path17"
       d="m 1.99255,14.17339 c 0,1.10047 -0.89209,1.99255 -1.99255,1.99255 -1.10046,0 -1.99255,-0.89208 -1.99255,-1.99255 0,-1.10047 0.89209,-1.99256 1.99255,-1.99256 1.10046,0 1.99255,0.89209 1.99255,1.99256 z"
       style="fill:#0000ff;fill-opacity:1;fill-rule:nonzero;stroke:none"
       transform="matrix(1.3333333,0,0,-1.3333333,38.061333,41.301333)" />
    <path
       id="path18"
       d="m 58.68617,14.17339 c 0,1.10047 -0.89209,1.99255 -1.99255,1.99255 -1.10048,0 -1.99255,-0.89208 -1.99255,-1.99255 0,-1.10047 0.89207,-1.99256 1.99255,-1.99256 1.10046,0 1.99255,0.89209 1.99255,1.99256 z"
       style="fill:#0000ff;fill-opacity:1;fill-rule:nonzero;stroke:none"
       transform="matrix(1.3333333,0,0,-1.3333333,38.061333,41.301333)" />
    <path
       id="path19"
       d="M 2.5416563,2.4960625 V 2.097625 H 1.569 V -7.0781563 H 2.5416563 V -7.4765938 H 1.1705625 v 9.9726563 z m 0,0"
       style="fill:#000000;fill-opacity:1;fill-rule:nonzero;stroke:none"
       aria-label="["
       transform="matrix(1.3333333,0,0,1.3333333,61.908,14.390667)" />
    <path
       id="path20"
       d="m 3.7150859,-3.76175 c -0.1757812,-0.375 -0.46875,-0.6445313 -0.9140625,-0.6445313 -1.171875,0 -2.40234371,1.4648438 -2.40234371,2.9179688 0,0.9375 0.55078125,1.59375 1.32421871,1.59375 0.1992188,0 0.703125,-0.03515625 1.3007813,-0.73828125 0.070312,0.41015625 0.421875,0.73828125 0.9023437,0.73828125 0.3515625,0 0.5742188,-0.22265625 0.7382813,-0.5390625 0.1640625,-0.36328125 0.2929687,-0.9726563 0.2929687,-0.9960938 0,-0.09375 -0.082031,-0.09375 -0.1171875,-0.09375 -0.09375,0 -0.1054687,0.035156 -0.140625,0.1757813 -0.1640625,0.64453125 -0.3515625,1.2421875 -0.75,1.2421875 -0.2695312,0 -0.3046875,-0.2578125 -0.3046875,-0.45703125 0,-0.22265625 0.023437,-0.3046875 0.1289063,-0.73828125 0.1171875,-0.421875 0.1289062,-0.5273438 0.2226562,-0.9023438 l 0.3515625,-1.3945312 c 0.070312,-0.28125 0.070312,-0.2929688 0.070312,-0.3398438 0,-0.1640625 -0.1171875,-0.2695312 -0.28125,-0.2695312 -0.2460937,0 -0.3867187,0.2226562 -0.4218745,0.4453125 z m -0.6445312,2.578125 c -0.046875,0.1757812 -0.046875,0.19921875 -0.1992188,0.36328125 -0.4453125,0.55078125 -0.84375,0.71484375 -1.125,0.71484375 -0.5039062,0 -0.6445312,-0.55078125 -0.6445312,-0.9375 0,-0.5039063 0.328125,-1.7226563 0.5507812,-2.1796875 0.3046875,-0.5976563 0.7617188,-0.9609375 1.1601563,-0.9609375 0.6445312,0 0.7851562,0.8203125 0.7851562,0.8789062 0,0.058594 -0.023437,0.1171875 -0.035156,0.1640625 z m 4.2216797,1.171875 c 0,-0.65625 -0.2578125,-1.0429688 -0.6445313,-1.0429688 -0.328125,0 -0.5273437,0.2460938 -0.5273437,0.5273438 0,0.26953125 0.1992187,0.52734375 0.5273437,0.52734375 0.1171875,0 0.2460938,-0.03515625 0.3515625,-0.12890625 0.023437,-0.0234375 0.035156,-0.0351563 0.046875,-0.0351563 0.011719,0 0.023437,0.0117188 0.023437,0.15234375 0,0.73828125 -0.3515625,1.33593745 -0.6796875,1.66406245 -0.1054687,0.1054687 -0.1054687,0.1289062 -0.1054687,0.1640625 0,0.070312 0.046875,0.1054687 0.09375,0.1054687 0.1171875,0 0.9140625,-0.7617186 0.914063,-1.9335936 z m 5.7246096,-3 c 0.05859,-0.2578125 0.292968,-1.171875 0.984375,-1.171875 0.04687,0 0.292968,0 0.503906,0.1289062 -0.28125,0.046875 -0.480469,0.3046875 -0.480469,0.5390625 0,0.1640625 0.105469,0.3515625 0.375,0.3515625 0.222656,0 0.539063,-0.1875 0.539063,-0.5859375 0,-0.515625 -0.585938,-0.65625 -0.925782,-0.65625 -0.574218,0 -0.925781,0.5273438 -1.042968,0.7617188 -0.257813,-0.65625 -0.785157,-0.7617188 -1.078125,-0.7617188 -1.042969,0 -1.605469,1.2890625 -1.605469,1.5351563 0,0.1054687 0.105469,0.1054687 0.117187,0.1054687 0.08203,0 0.117188,-0.023437 0.128907,-0.1171875 0.339843,-1.0546875 0.996093,-1.3007812 1.335937,-1.3007812 0.1875,0 0.539063,0.09375 0.539063,0.6679687 0,0.3046875 -0.164063,0.9726563 -0.539063,2.3671875 C 11.716062,-0.527375 11.3645,-0.1055 10.919187,-0.1055 c -0.05859,0 -0.28125,0 -0.492187,-0.12890625 0.246094,-0.0585937 0.46875,-0.26953125 0.46875,-0.5390625 0,-0.26953125 -0.222656,-0.35156255 -0.375,-0.35156255 -0.292969,0 -0.5390625,0.25781255 -0.5390625,0.5742188 0,0.45703125 0.4921875,0.65625 0.9374995,0.65625 0.65625,0 1.007813,-0.69140625 1.042969,-0.75 0.117188,0.36328125 0.480469,0.75 1.078125,0.75 1.019531,0 1.59375,-1.2773438 1.59375,-1.5351563 0,-0.09375 -0.09375,-0.09375 -0.128906,-0.09375 -0.08203,0 -0.105469,0.035156 -0.128906,0.1054688 -0.328125,1.06640625 -0.996094,1.3125 -1.324219,1.3125 -0.386719,0 -0.539063,-0.328125 -0.539063,-0.65625 0,-0.22265625 0.05859,-0.4453125 0.164063,-0.8789063 z m 0,0"
       style="fill:#000000;fill-opacity:1;fill-rule:nonzero;stroke:none"
       aria-label="a,x"
       transform="matrix(1.3333333,0,0,1.3333333,65.597333,14.390667)" />
    <path
       id="path21"
       d="M 1.5809922,-7.4765938 H 0.22161719 v 0.3984375 H 1.1825547 V 2.097625 H 0.22161719 V 2.4960625 H 1.5809922 Z m 0,0"
       style="fill:#000000;fill-opacity:1;fill-rule:nonzero;stroke:none"
       aria-label="]"
       transform="matrix(1.3333333,0,0,1.3333333,86.114667,14.390667)" />
    <path
       id="path22"
       d="m 113.38724,14.17339 h 56.69362"
       style="fill:none;stroke:#0000ff;stroke-width:0.79701;stroke-linecap:butt;stroke-linejoin:miter;stroke-miterlimit:10;stroke-dasharray:none;stroke-opacity:1"
       transform="matrix(1.3333333,0,0,-1.3333333,38.061333,41.301333)" />
    <path
       id="path23"
       d="m 115.37979,14.17339 c 0,1.10047 -0.89209,1.99255 -1.99255,1.99255 -1.10048,0 -1.99256,-0.89208 -1.99256,-1.99255 0,-1.10047 0.89208,-1.99256 1.99256,-1.99256 1.10046,0 1.99255,0.89209 1.99255,1.99256 z"
       style="fill:#0000ff;fill-opacity:1;fill-rule:nonzero;stroke:none"
       transform="matrix(1.3333333,0,0,-1.3333333,38.061333,41.301333)" />
    <path
       id="path24"
       d="m 172.07341,14.17339 c 0,1.10047 -0.89209,1.99255 -1.99255,1.99255 -1.10048,0 -1.99256,-0.89208 -1.99256,-1.99255 0,-1.10047 0.89208,-1.99256 1.99256,-1.99256 1.10046,0 1.99255,0.89209 1.99255,1.99256 z"
       style="fill:#0000ff;fill-opacity:1;fill-rule:nonzero;stroke:none"
       transform="matrix(1.3333333,0,0,-1.3333333,38.061333,41.301333)" />
    <path
       id="path25"
       d="M 2.5430547,2.4960625 V 2.097625 H 1.5703984 V -7.0781563 H 2.5430547 V -7.4765938 H 1.1719609 v 9.9726563 z m 0,0"
       style="fill:#000000;fill-opacity:1;fill-rule:nonzero;stroke:none"
       aria-label="["
       transform="matrix(1.3333333,0,0,1.3333333,214.05067,14.390667)" />
    <path
       id="path26"
       d="m 4.8385547,-3.7969063 c 0.046875,-0.140625 0.046875,-0.1523437 0.046875,-0.2226562 0,-0.1875 -0.140625,-0.2695313 -0.2929688,-0.2695313 -0.1054687,0 -0.2578125,0.058594 -0.3515625,0.1992188 -0.023437,0.058594 -0.09375,0.3632812 -0.140625,0.5390625 -0.070312,0.2578125 -0.140625,0.5273437 -0.1992187,0.796875 L 3.4557422,-0.96096875 C 3.4205859,-0.808625 2.9869922,-0.1055 2.3307422,-0.1055 c -0.5039063,0 -0.6210938,-0.4453125 -0.6210938,-0.80859375 0,-0.45703125 0.1757813,-1.07812505 0.515625,-1.95703125 0.1523438,-0.4101563 0.1992188,-0.515625 0.1992188,-0.7148438 0,-0.4453125 -0.328125,-0.8203125 -0.8203125,-0.8203125 -0.94921876,0 -1.31250001,1.453125 -1.31250001,1.5351563 0,0.1054687 0.09375,0.1054687 0.1171875,0.1054687 0.09375,0 0.10546875,-0.023437 0.15234375,-0.1875 0.26953125,-0.9375 0.66796876,-1.2304687 1.00781246,-1.2304687 0.082031,0 0.2578125,0 0.2578125,0.3164062 0,0.2460938 -0.1054687,0.515625 -0.1757812,0.703125 -0.3984375,1.0546875 -0.5742188,1.6171875 -0.5742188,2.0859375 0,0.89062505 0.6210938,1.1835938 1.21875,1.1835938 0.3867188,0 0.7265625,-0.1640625 0.9960938,-0.4453125 C 3.1627734,0.17575 3.0455859,0.6679375 2.6471484,1.1952812 2.3893359,1.535125 2.0143359,1.8280937 1.5573047,1.8280937 c -0.140625,0 -0.59765626,-0.035156 -0.76171876,-0.421875 0.1640625,0 0.29296876,0 0.43359376,-0.1171875 0.09375,-0.09375 0.1992187,-0.2226562 0.1992187,-0.4101562 0,-0.31640625 -0.2695312,-0.3515625 -0.375,-0.3515625 -0.22265621,0 -0.55078121,0.1640625 -0.55078121,0.6445312 0,0.5039063 0.43359375,0.8671875 1.05468751,0.8671875 1.0195312,0 2.0507812,-0.9023437 2.3320312,-2.0273437 z M 7.2614062,-0.01175 c 0,-0.65625 -0.2578125,-1.0429688 -0.6445312,-1.0429688 -0.328125,0 -0.5273438,0.2460938 -0.5273438,0.5273438 0,0.26953125 0.1992188,0.52734375 0.5273438,0.52734375 0.1171875,0 0.2460937,-0.03515625 0.3515625,-0.12890625 0.023437,-0.0234375 0.035156,-0.0351563 0.046875,-0.0351563 0.011719,0 0.023437,0.0117188 0.023437,0.15234375 0,0.73828125 -0.3515625,1.33593755 -0.6796875,1.66406255 -0.1054688,0.1054687 -0.1054688,0.1289062 -0.1054688,0.1640625 0,0.070312 0.046875,0.1054687 0.09375,0.1054687 0.1171875,0 0.9140625,-0.7617187 0.914063,-1.9335937 z m 4.7812498,-6.796875 c 0,0 0,-0.1054688 -0.128906,-0.1054688 -0.222656,0 -0.949219,0.082031 -1.21875,0.1054688 -0.07031,0 -0.1875,0.011719 -0.1875,0.1992187 0,0.1171875 0.09375,0.1171875 0.246094,0.1171875 0.46875,0 0.492187,0.070312 0.492187,0.1640625 0,0.070312 -0.08203,0.4101563 -0.140625,0.6210938 l -0.808594,3.2460937 c -0.128906,0.5039063 -0.164062,0.65625 -0.164062,1.0078125 0,0.9492188 0.527344,1.5585938 1.265625,1.5585938 1.171875,0 2.402344,-1.4765625 2.402344,-2.9179688 0,-0.9023437 -0.527344,-1.59375 -1.324219,-1.59375 -0.457031,0 -0.867188,0.2929688 -1.171875,0.5976563 z m -0.9375,3.7734375 c 0.05859,-0.2226563 0.05859,-0.2460938 0.152344,-0.3515625 0.492187,-0.6445313 0.9375,-0.796875 1.195312,-0.796875 0.363282,0 0.632813,0.2929687 0.632813,0.9375 0,0.5859375 -0.328125,1.734375 -0.515625,2.109375 -0.328125,0.66796875 -0.785156,1.03125 -1.171875,1.03125 -0.339844,0 -0.667969,-0.26953125 -0.667969,-1.0078125 0,-0.1875 0,-0.3867188 0.164063,-1.0078125 z m 0,0"
       style="fill:#000000;fill-opacity:1;fill-rule:nonzero;stroke:none"
       aria-label="y,b"
       transform="matrix(1.3333333,0,0,1.3333333,217.74,14.390667)" />
    <path
       id="path27"
       d="M 1.5829844,-7.4765938 H 0.22360937 v 0.3984375 H 1.1845469 V 2.097625 H 0.22360937 V 2.4960625 H 1.5829844 Z m 0,0"
       style="fill:#000000;fill-opacity:1;fill-rule:nonzero;stroke:none"
       aria-label="]"
       transform="matrix(1.3333333,0,0,1.3333333,236.33467,14.390667)" />
  </g>
</svg>
