<?xml version="1.0" encoding="UTF-8" standalone="no"?>
<!-- Created with Inkscape (http://www.inkscape.org/) -->

<svg
   version="1.1"
   id="svg1"
   width="251.44133"
   height="67.061333"
   viewBox="0 0 251.44133 67.061333"
   xmlns="http://www.w3.org/2000/svg"
   xmlns:svg="http://www.w3.org/2000/svg">
  <defs
     id="defs1" />
  <g
     id="g1">
    <path
       id="path1"
       d="M 3.3176719,1.171875e-4 V -0.30457031 H 3.0598594 c -0.7851563,0 -0.8203125,-0.1171875 -0.8203125,-0.46875 V -6.0233203 c 0,-0.3632813 0.035156,-0.46875 0.8203125,-0.46875 h 0.2578125 v -0.3164063 c -0.3515625,0.035156 -1.1367188,0.035156 -1.5117188,0.035156 -0.3867187,0 -1.17187497,0 -1.52343747,-0.035156 v 0.3164063 h 0.2578125 c 0.78515627,0 0.82031247,0.1054687 0.82031247,0.46875 v 5.24999999 c 0,0.3515625 -0.035156,0.46875 -0.82031247,0.46875 H 0.28251563 V 1.171875e-4 C 0.63407813,-0.03503906 1.4192344,-0.03503906 1.7942344,-0.03503906 c 0.3867187,0 1.171875,0 1.5234375,0.0351562475 z m 5.6103515,0 V -0.30457031 c -0.515625,0 -0.7734375,0 -0.7851562,-0.3046875 V -2.5076953 c 0,-0.8554688 0,-1.171875 -0.3046875,-1.5234375 -0.140625,-0.1757813 -0.46875,-0.375 -1.0429688,-0.375 -0.7265625,0 -1.1953125,0.4335937 -1.4765625,1.0546875 v -1.0546875 l -1.40625,0.1171875 v 0.3046875 c 0.703125,0 0.7851563,0.070312 0.7851563,0.5625 v 2.66015624 c 0,0.45703125 -0.1171875,0.45703125 -0.7851563,0.45703125 V 1.171875e-4 l 1.125,-0.0351562475 1.1132813,0.0351562475 V -0.30457031 c -0.65625,0 -0.7734375,0 -0.7734375,-0.45703125 V -2.5897266 c 0,-1.03125 0.7148437,-1.59375 1.3476562,-1.59375 0.6210938,0 0.7382813,0.5390625 0.7382813,1.1015625 v 2.32031254 c 0,0.45703125 -0.1171875,0.45703125 -0.7734375,0.45703125 V 1.171875e-4 l 1.125,-0.0351562475 z M 12.162398,-1.2303516 v -0.5742187 h -0.246093 v 0.5507812 c 0,0.73828129 -0.304688,1.11328129 -0.667969,1.11328129 -0.667969,0 -0.667969,-0.90234379 -0.667969,-1.07812499 v -2.765625 h 1.429688 v -0.3046875 h -1.429688 v -1.8398438 h -0.246094 c -0.01172,0.8203125 -0.316406,1.8867188 -1.2890621,1.921875 v 0.2226563 h 0.84375 v 2.7539062 c 0,1.21875004 0.9257811,1.33593754 1.2890621,1.33593754 0.703125,0 0.984375,-0.703125 0.984375,-1.33593754 z m 5.63379,-2.7539062 v -0.3046875 c -0.234375,0.011719 -0.515625,0.023437 -0.75,0.023437 L 16.179,-4.2889453 v 0.3046875 c 0.375,0.011719 0.480469,0.234375 0.480469,0.4335937 0,0.082031 -0.02344,0.1289063 -0.05859,0.234375 l -1.019531,2.54296879 -1.113281,-2.77734379 c -0.05859,-0.140625 -0.05859,-0.1757812 -0.05859,-0.1757812 0,-0.2578125 0.386719,-0.2578125 0.5625,-0.2578125 v -0.3046875 l -1.078125,0.023437 c -0.269531,0 -0.667969,-0.011719 -0.972656,-0.023437 v 0.3046875 c 0.632812,0 0.667968,0.058594 0.796875,0.3632812 l 1.441406,3.53906254 c 0.05859,0.140625 0.07031,0.1875 0.199219,0.1875 0.128906,0 0.175781,-0.08203125 0.210937,-0.1875 l 1.3125,-3.23437504 c 0.08203,-0.234375 0.257813,-0.65625 0.914063,-0.6679687 z m 0,0"
       style="fill:#000000;fill-opacity:1;fill-rule:nonzero;stroke:none"
       aria-label="Intv"
       transform="matrix(1.3333333,0,0,1.3333333,4.428,22.66)" />
    <path
       id="path2"
       d="m 4.9689297,-1.8507813 c 0,-0.9960937 -0.65625,-1.8164062 -1.4882813,-2.015625 L 2.2033047,-4.1710938 C 1.5822109,-4.3234375 1.1954922,-4.8625 1.1954922,-5.4367188 c 0,-0.703125 0.5390625,-1.3007812 1.3125,-1.3007812 1.6640625,0 1.8867187,1.6289062 1.9453125,2.0742187 0.011719,0.058594 0.011719,0.1171875 0.1171875,0.1171875 0.1289062,0 0.1289062,-0.046875 0.1289062,-0.234375 V -6.784375 c 0,-0.1640625 0,-0.234375 -0.1054687,-0.234375 -0.070312,0 -0.082031,0.011719 -0.1523438,0.1289062 l -0.3515625,0.5625 c -0.2929687,-0.28125 -0.703125,-0.6914062 -1.59375,-0.6914062 -1.1015625,0 -1.93359371,0.8789062 -1.93359371,1.9335937 0,0.8203125 0.52734371,1.546875 1.30078121,1.8164063 0.1054688,0.046875 0.6210938,0.1640625 1.3125,0.328125 0.2695313,0.070312 0.5742188,0.140625 0.84375,0.515625 0.2109375,0.2578125 0.3164063,0.5859375 0.3164063,0.9140625 0,0.703125 -0.5039063,1.41796875 -1.3359375,1.41796875 -0.2929688,0 -1.0429688,-0.046875 -1.5703125,-0.5390625 C 0.84392969,-1.159375 0.82049219,-1.8039063 0.80877344,-2.1554688 c -0.0117188,-0.1054687 -0.09375,-0.1054687 -0.1171875,-0.1054687 -0.12890625,0 -0.12890625,0.070312 -0.12890625,0.2460937 v 1.99218755 c 0,0.17578125 0,0.24609375 0.10546875,0.24609375 0.0703125,0 0.0820313,-0.0234375 0.15234375,-0.12890625 0,0 0.0234375,-0.046875 0.35156251,-0.57421875 0.3164062,0.33984375 0.9492187,0.703125 1.8398437,0.703125 1.1601563,0 1.9570313,-0.984375 1.9570313,-2.0742188 z m 4.7080078,0.6679688 C 9.6769375,-1.2882813 9.5949062,-1.3 9.5480312,-1.3 c -0.09375,0 -0.1171875,0.058594 -0.1289062,0.140625 -0.3515625,1.01953125 -1.2539063,1.01953125 -1.3476563,1.01953125 -0.5039062,0 -0.9023437,-0.29296875 -1.125,-0.66796875 C 6.6417812,-1.2882813 6.6417812,-1.9445313 6.6417812,-2.2960938 h 2.7890625 c 0.2109375,0 0.2460938,0 0.2460938,-0.2109375 0,-0.984375 -0.5390625,-1.9570312 -1.78125,-1.9570312 -1.1601563,0 -2.0742188,1.03125 -2.0742188,2.2734375 0,1.3359375 1.0429688,2.296875 2.1914063,2.296875 1.21875,0 1.6640625,-1.1015625 1.6640625,-1.2890625 z m -0.65625,-1.3242188 H 6.6535 c 0.058594,-1.4882812 0.9023437,-1.734375 1.2421875,-1.734375 1.0195312,0 1.125,1.3476563 1.125,1.734375 z m 4.2480465,1.2773438 v -0.5742188 h -0.246093 v 0.5507813 c 0,0.73828125 -0.304688,1.11328125 -0.667969,1.11328125 -0.667969,0 -0.667969,-0.90234375 -0.667969,-1.07812505 v -2.765625 h 1.429688 V -4.2882813 H 11.686703 V -6.128125 h -0.246094 c -0.01172,0.8203125 -0.316406,1.8867187 -1.289062,1.921875 v 0.2226562 h 0.84375 v 2.7539063 c 0,1.21875 0.925781,1.3359375 1.289062,1.3359375 0.703125,0 0.984375,-0.703125 0.984375,-1.3359375 z m 0,0"
       style="fill:#000000;fill-opacity:1;fill-rule:nonzero;stroke:none"
       aria-label="Set"
       transform="matrix(1.3333333,0,0,1.3333333,158.37867,22.733333)" />
    <path
       id="path3"
       d="m 12.51619,28.3468 h 89.9738"
       style="fill:none;stroke:#000000;stroke-width:0.3985;stroke-linecap:butt;stroke-linejoin:miter;stroke-miterlimit:10;stroke-dasharray:none;stroke-opacity:1"
       transform="matrix(1.3333333,0,0,-1.3333333,16.422667,55.992)" />
    <path
       id="path4"
       d="M -1.19551,1.59401 C -1.09587,0.99626 0,0.09961 0.29886,0 0,-0.09961 -1.09587,-0.99626 -1.19551,-1.59401"
       style="fill:none;stroke:#000000;stroke-width:0.31879;stroke-linecap:round;stroke-linejoin:round;stroke-miterlimit:10;stroke-dasharray:none;stroke-opacity:1"
       transform="matrix(1.3333333,0,0,-1.3333333,153.07599,18.196267)" />
    <path
       id="path5"
       d="m 3.0227813,-3.2344453 h 0.9609375 c 0.75,0 0.8320312,0.1523437 0.8320312,0.4453125 0,0.070312 0,0.1875 -0.070312,0.4921875 -0.023437,0.046875 -0.035156,0.082031 -0.035156,0.1054687 0,0.082031 0.058594,0.1171875 0.1171875,0.1171875 0.1054687,0 0.1054687,-0.023437 0.1523437,-0.2109375 l 0.5507813,-2.15625 c 0.023437,-0.1054687 0.023437,-0.1289062 0.023437,-0.1640625 0,-0.011719 -0.011719,-0.1054687 -0.1171875,-0.1054687 -0.09375,0 -0.1054688,0.046875 -0.1523438,0.2109375 -0.1992187,0.7734375 -0.4335937,0.9492187 -1.2773437,0.9492187 H 3.0930938 l 0.6445312,-2.53125 c 0.082031,-0.3398437 0.09375,-0.3867187 0.5390625,-0.3867187 h 1.3125 c 1.21875,0 1.453125,0.328125 1.453125,1.1015625 0,0.2226562 0,0.2695312 -0.035156,0.5390625 -0.011719,0.1289062 -0.011719,0.140625 -0.011719,0.1757812 0,0.046875 0.023437,0.1171875 0.1171875,0.1171875 0.1054688,0 0.1171875,-0.058594 0.140625,-0.2460937 L 7.4524688,-6.5039766 C 7.4759063,-6.7735078 7.4290313,-6.7735078 7.1829375,-6.7735078 H 2.2962188 c -0.1992188,0 -0.2929688,0 -0.2929688,0.1992187 0,0.1054688 0.09375,0.1054688 0.28125,0.1054688 0.3632813,0 0.6445313,0 0.6445313,0.1875 0,0.035156 0,0.058594 -0.046875,0.234375 l -1.3242188,5.27343749 c -0.09375,0.38671875 -0.1171875,0.46875 -0.90234375,0.46875 -0.1640625,0 -0.28125,0 -0.28125,0.1875 0,0.1171874975 0.12890625,0.1171874975 0.15234375,0.1171874975 0.29296875,0 1.03125,-0.0351562475 1.3125,-0.0351562475 0.328125,0 1.1601563,0.0351562475 1.4882813,0.0351562475 0.09375,0 0.2109375,0 0.2109375,-0.1874999975 0,-0.0820313 -0.058594,-0.10546875 -0.058594,-0.1171875 -0.035156,0 -0.058594,0 -0.28125,0 -0.2226562,0 -0.2695312,0 -0.515625,-0.0234375 -0.2929687,-0.0351563 -0.328125,-0.0703125 -0.328125,-0.19921875 0,-0.0234375 0,-0.0820313 0.046875,-0.234375 z m 0,0"
       style="fill:#000000;fill-opacity:1;fill-rule:nonzero;stroke:none"
       aria-label="F"
       transform="matrix(1.3333333,0,0,1.3333333,88.204,13.504)" />
    <path
       id="path6"
       d="M 3.7259141,-6.0347188 C 3.8196641,-6.398 3.8431016,-6.49175 4.6282578,-6.49175 c 0.2460938,0 0.3164063,0 0.3164063,-0.1875 0,-0.1289063 -0.1054688,-0.1289063 -0.140625,-0.1289063 -0.2929688,0 -1.03125,0.035156 -1.3125,0.035156 -0.3046875,0 -1.03125,-0.035156 -1.3359375,-0.035156 -0.058594,0 -0.1992188,0 -0.1992188,0.1992188 0,0.1171875 0.09375,0.1171875 0.28125,0.1171875 0.421875,0 0.6914063,0 0.6914063,0.1875 0,0.046875 0,0.070312 -0.023437,0.1640625 L 1.5579453,-0.773 c -0.082031,0.36328125 -0.1171875,0.46875 -0.90234374,0.46875 -0.22265625,0 -0.31640625,0 -0.31640625,0.19921875 0,0.10546875 0.1171875,0.10546875 0.15234375,0.10546875 0.28125,0 1.00781254,-0.03515625 1.30078124,-0.03515625 0.3046875,0 1.03125,0.03515625 1.3359375,0.03515625 0.082031,0 0.1992188,0 0.1992188,-0.1875 0,-0.1171875 -0.082031,-0.1171875 -0.3046875,-0.1171875 -0.1757813,0 -0.2226563,0 -0.421875,-0.0234375 -0.2109375,-0.0234375 -0.2460938,-0.0585938 -0.2460938,-0.17578125 0,-0.0703125 0.011719,-0.15234375 0.035156,-0.22265625 z m 0,0"
       style="fill:#000000;fill-opacity:1;fill-rule:nonzero;stroke:none"
       aria-label="I"
       transform="matrix(1.3333333,0,0,1.3333333,12.981333,60.530667)" />
    <path
       id="path7"
       d="m 3.0229922,-3.235 h 0.9609375 c 0.75,0 0.8320312,0.1523437 0.8320312,0.4453125 0,0.070312 0,0.1875 -0.070312,0.4921875 -0.023437,0.046875 -0.035156,0.082031 -0.035156,0.1054687 0,0.082031 0.058594,0.1171875 0.1171875,0.1171875 0.1054687,0 0.1054687,-0.023437 0.1523437,-0.2109375 l 0.5507813,-2.15625 c 0.023437,-0.1054687 0.023437,-0.1289062 0.023437,-0.1640625 0,-0.011719 -0.011719,-0.1054687 -0.1171875,-0.1054687 -0.09375,0 -0.1054688,0.046875 -0.1523438,0.2109375 -0.1992187,0.7734375 -0.4335937,0.9492187 -1.2773437,0.9492187 H 3.0933047 l 0.6445312,-2.53125 C 3.8198672,-6.4225 3.8315859,-6.469375 4.2768984,-6.469375 h 1.3125 c 1.21875,0 1.453125,0.328125 1.453125,1.1015625 0,0.2226562 0,0.2695312 -0.035156,0.5390625 -0.011719,0.1289062 -0.011719,0.140625 -0.011719,0.1757812 0,0.046875 0.023437,0.1171875 0.1171875,0.1171875 0.1054688,0 0.1171875,-0.058594 0.140625,-0.2460937 L 7.4526797,-6.5045313 C 7.4761172,-6.7740625 7.4292422,-6.7740625 7.1831484,-6.7740625 H 2.2964297 c -0.1992188,0 -0.2929688,0 -0.2929688,0.1992187 0,0.1054688 0.09375,0.1054688 0.28125,0.1054688 0.3632813,0 0.6445313,0 0.6445313,0.1875 0,0.035156 0,0.058594 -0.046875,0.234375 l -1.3242188,5.2734375 c -0.09375,0.38671875 -0.1171875,0.46875 -0.90234371,0.46875 -0.1640625,0 -0.28125,0 -0.28125,0.1875 0,0.1171875 0.12890625,0.1171875 0.15234375,0.1171875 0.29296875,0 1.03124996,-0.03515625 1.31249996,-0.03515625 0.328125,0 1.1601563,0.03515625 1.4882813,0.03515625 0.09375,0 0.2109375,0 0.2109375,-0.1875 0,-0.0820313 -0.058594,-0.10546875 -0.058594,-0.1171875 -0.035156,0 -0.058594,0 -0.28125,0 -0.2226562,0 -0.2695312,0 -0.515625,-0.0234375 -0.2929687,-0.0351563 -0.328125,-0.0703125 -0.328125,-0.19921875 0,-0.0234375 0,-0.0820313 0.046875,-0.234375 z m 0,0"
       style="fill:#000000;fill-opacity:1;fill-rule:nonzero;stroke:none"
       aria-label="F"
       transform="matrix(1.3333333,0,0,1.3333333,88.192,59.313333)" />
    <path
       id="path8"
       d="m 3.2915625,2.39 c 0,-0.035156 0,-0.046875 -0.1640625,-0.2226563 -1.2421875,-1.2539062 -1.5703125,-3.1289062 -1.5703125,-4.6640625 0,-1.7226562 0.3867188,-3.4570312 1.6054688,-4.7109375 0.1289062,-0.1171875 0.1289062,-0.1289062 0.1289062,-0.1640625 0,-0.070312 -0.035156,-0.1054687 -0.09375,-0.1054687 -0.1054687,0 -0.9960937,0.6796875 -1.5820312,1.9453125 -0.515625,1.1015625 -0.63281255,2.203125 -0.63281255,3.0351562 0,0.7851563 0.11718755,1.99218755 0.65625005,3.11718755 0.5976562,1.21874995 1.453125,1.87499995 1.5585937,1.87499995 0.058594,0 0.09375,-0.035156 0.09375,-0.1054687 z m 0,0"
       style="fill:#000000;fill-opacity:1;fill-rule:nonzero;stroke:none"
       aria-label="("
       transform="matrix(1.3333333,0,0,1.3333333,98.58,59.313333)" />
    <path
       id="path9"
       d="m 3.7271328,-6.0357813 c 0.09375,-0.3632812 0.1171875,-0.4570312 0.9023438,-0.4570312 0.2460937,0 0.3164062,0 0.3164062,-0.1875 0,-0.1289063 -0.1054687,-0.1289063 -0.140625,-0.1289063 -0.2929687,0 -1.03125,0.035156 -1.3125,0.035156 -0.3046875,0 -1.03125,-0.035156 -1.3359375,-0.035156 -0.058594,0 -0.1992187,0 -0.1992187,0.1992188 0,0.1171875 0.09375,0.1171875 0.28125,0.1171875 0.421875,0 0.6914062,0 0.6914062,0.1875 0,0.046875 0,0.070312 -0.023437,0.1640625 l -1.3476562,5.3671875 c -0.082031,0.36328125 -0.1171875,0.46875 -0.90234379,0.46875 -0.22265625,0 -0.31640625,0 -0.31640625,0.19921875 0,0.10546875 0.1171875,0.10546875 0.15234375,0.10546875 0.28125,0 1.00781249,-0.03515625 1.30078129,-0.03515625 0.3046875,0 1.03125,0.03515625 1.3359375,0.03515625 0.082031,0 0.1992187,0 0.1992187,-0.1875 0,-0.1171875 -0.082031,-0.1171875 -0.3046875,-0.1171875 -0.1757812,0 -0.2226562,0 -0.421875,-0.0234375 -0.2109375,-0.0234375 -0.2460937,-0.0585938 -0.2460937,-0.17578125 0,-0.0703125 0.011719,-0.15234375 0.035156,-0.22265625 z m 0,0"
       style="fill:#000000;fill-opacity:1;fill-rule:nonzero;stroke:none"
       aria-label="I"
       transform="matrix(1.3333333,0,0,1.3333333,103.74533,59.313333)" />
    <path
       id="path10"
       d="m 2.8815625,-2.4967188 c 0,-0.7734375 -0.1171875,-1.9804687 -0.65625,-3.1054687 -0.5976562,-1.21875 -1.46484375,-1.875 -1.55859375,-1.875 -0.0585938,0 -0.10546875,0.046875 -0.10546875,0.1054687 0,0.035156 0,0.046875 0.19921875,0.234375 0.97265625,0.984375 1.53515625,2.5664063 1.53515625,4.640625 0,1.71093755 -0.3632812,3.4570313 -1.59375,4.7226563 C 0.56125,2.343125 0.56125,2.3548437 0.56125,2.39 c 0,0.058594 0.046875,0.1054687 0.10546875,0.1054687 0.09375,0 0.99609375,-0.6796875 1.58203125,-1.94531245 0.5039063,-1.1015625 0.6328125,-2.20312505 0.6328125,-3.04687505 z M 13.478242,-3.2584375 c 0.152344,0 0.339844,0 0.339844,-0.1992188 0,-0.1992187 -0.1875,-0.1992187 -0.328125,-0.1992187 H 7.5251172 c -0.140625,0 -0.328125,0 -0.328125,0.1992187 0,0.1992188 0.1875,0.1992188 0.3398437,0.1992188 z m 0.01172,1.9335937 c 0.140625,0 0.328125,0 0.328125,-0.1992187 0,-0.1992188 -0.1875,-0.1992188 -0.339844,-0.1992188 H 7.5368359 c -0.1523437,0 -0.3398437,0 -0.3398437,0.1992188 0,0.1992187 0.1875,0.1992187 0.328125,0.1992187 z m 0,0"
       style="fill:#000000;fill-opacity:1;fill-rule:nonzero;stroke:none"
       aria-label=")="
       transform="matrix(1.3333333,0,0,1.3333333,110.62667,59.313333)" />
    <path
       id="path11"
       d="m 2.8241484,-6.14125 c 0,-0.3984375 0.2578125,-1.0429688 1.3359375,-1.1132813 0.058594,-0.011719 0.09375,-0.046875 0.09375,-0.1054687 0,-0.1171875 -0.082031,-0.1171875 -0.1875,-0.1171875 -0.9960937,0 -1.9101562,0.515625 -1.9101562,1.2539062 v 2.2734375 c 0,0.3867188 0,0.703125 -0.3984375,1.03125 -0.3515625,0.2929688 -0.7265625,0.3046875 -0.94921876,0.3164063 -0.046875,0.011719 -0.09375,0.046875 -0.09375,0.1054687 0,0.1054688 0.0585938,0.1054688 0.1640625,0.1171875 0.65624996,0.035156 1.13671876,0.3984375 1.24218746,0.8789063 0.035156,0.1171875 0.035156,0.140625 0.035156,0.4921875 v 1.96875 c 0,0.421875 0,0.7382812 0.46875,1.125 0.3984375,0.2929687 1.0546875,0.4101562 1.4414062,0.4101562 0.1054688,0 0.1875,0 0.1875,-0.1171875 0,-0.09375 -0.058594,-0.09375 -0.1640625,-0.1054687 C 3.4686797,2.2259375 2.9764922,1.9095312 2.8475859,1.405625 2.8241484,1.311875 2.8241484,1.3001562 2.8241484,0.936875 v -2.0976563 c 0,-0.4570312 -0.082031,-0.6210937 -0.3984375,-0.9375 C 2.2147734,-2.3092188 1.9218047,-2.4146875 1.6405547,-2.4967188 2.4608672,-2.719375 2.8241484,-3.1764063 2.8241484,-3.750625 Z m 0,0"
       style="fill:#000000;fill-opacity:1;fill-rule:nonzero;stroke:none"
       aria-label="{"
       transform="matrix(1.3333333,0,0,1.3333333,133.504,59.313333)" />
    <path
       id="path12"
       d="m 3.3275234,-3.0123438 c 0.058594,-0.2578125 0.2929688,-1.171875 0.984375,-1.171875 0.046875,0 0.2929688,0 0.5039063,0.1289063 -0.28125,0.046875 -0.4804688,0.3046875 -0.4804688,0.5390625 0,0.1640625 0.1054688,0.3515625 0.375,0.3515625 0.2226563,0 0.5390625,-0.1875 0.5390625,-0.5859375 0,-0.515625 -0.5859375,-0.65625 -0.9257812,-0.65625 -0.5742188,0 -0.9257813,0.5273437 -1.0429688,0.7617187 -0.2578125,-0.65625 -0.7851562,-0.7617187 -1.078125,-0.7617187 -1.0429687,0 -1.60546871,1.2890625 -1.60546871,1.5351562 0,0.1054688 0.10546875,0.1054688 0.1171875,0.1054688 0.0820313,0 0.1171875,-0.023437 0.12890625,-0.1171875 0.33984376,-1.0546875 0.99609376,-1.3007813 1.33593746,-1.3007813 0.1875,0 0.5390625,0.09375 0.5390625,0.6679688 0,0.3046875 -0.1640625,0.9726562 -0.5390625,2.3671875 -0.1523437,0.62109375 -0.5039062,1.04296875 -0.9492187,1.04296875 -0.058594,0 -0.28125001,0 -0.49218751,-0.12890625 0.24609375,-0.0585938 0.46875001,-0.26953125 0.46875001,-0.5390625 0,-0.2695313 -0.22265626,-0.3515625 -0.37500001,-0.3515625 -0.29296875,0 -0.5390625,0.2578125 -0.5390625,0.57421875 0,0.45703125 0.4921875,0.65625 0.93750001,0.65625 0.65625,0 1.0078125,-0.69140625 1.0429687,-0.75 0.1171875,0.36328125 0.4804688,0.75 1.078125,0.75 1.0195313,0 1.59375,-1.27734375 1.59375,-1.53515625 0,-0.09375 -0.09375,-0.09375 -0.1289062,-0.09375 -0.082031,0 -0.1054688,0.035156 -0.1289063,0.1054687 -0.328125,1.0664063 -0.9960937,1.31250005 -1.3242187,1.31250005 -0.3867188,0 -0.5390625,-0.328125 -0.5390625,-0.65625 0,-0.22265625 0.058594,-0.44531255 0.1640625,-0.87890625 z m 0,0"
       style="fill:#000000;fill-opacity:1;fill-rule:nonzero;stroke:none"
       aria-label="x"
       transform="matrix(1.3333333,0,0,1.3333333,140.14533,59.313333)" />
    <path
       id="path13"
       d="m 5.4622031,-2.2975 c 0.1640625,0 0.3515625,0 0.3515625,-0.1992188 0,-0.1992187 -0.1875,-0.1992187 -0.3515625,-0.1992187 H 1.2317344 c 0.1289062,-1.3242188 1.265625,-2.2851563 2.671875,-2.2851563 h 1.5585937 c 0.1640625,0 0.3515625,0 0.3515625,-0.1992187 0,-0.1992188 -0.1875,-0.1992188 -0.3515625,-0.1992188 H 3.8918906 c -1.7109375,0 -3.05859372,1.2890625 -3.05859372,2.8828125 0,1.59375005 1.34765622,2.8945313 3.05859372,2.8945313 h 1.5703125 c 0.1640625,0 0.3515625,0 0.3515625,-0.19921875 0,-0.19921875 -0.1875,-0.19921875 -0.3515625,-0.19921875 H 3.9036094 c -1.40625,0 -2.5429688,-0.9609375 -2.671875,-2.296875 z m 0,0"
       style="fill:#000000;fill-opacity:1;fill-rule:nonzero;stroke:none"
       aria-label="∈"
       transform="matrix(1.3333333,0,0,1.3333333,151.428,59.313333)" />
    <path
       id="path14"
       d="m 2.6713672,-3.1295313 h 0.3515625 l 1.5,2.3085938 c 0.09375,0.1640625 0.3398437,0.55078125 0.4453125,0.703125 0.070312,0.1171875 0.1054687,0.1171875 0.328125,0.1171875 h 1.3828125 c 0.1757812,0 0.328125,0 0.328125,-0.17578125 0,-0.0820313 -0.070312,-0.15234375 -0.1523438,-0.17578125 -0.375,-0.0820313 -0.8554687,-0.7382813 -1.1015625,-1.0546875 -0.070312,-0.09375 -0.5625,-0.75 -1.2304687,-1.828125 0.890625,-0.1640625 1.7460937,-0.5390625 1.7460937,-1.7226563 0,-1.3828125 -1.4648437,-1.8632812 -2.6484375,-1.8632812 H 0.50339844 c -0.1875,0 -0.33984375,0 -0.33984375,0.1757812 0,0.1640625 0.1875,0.1640625 0.26953125,0.1640625 0.5625,0 0.60937496,0.070312 0.60937496,0.5742188 v 4.9921875 c 0,0.4921875 -0.046875,0.5625 -0.60937496,0.5625 -0.0820313,0 -0.26953125,0 -0.26953125,0.17578125 0,0.17578125 0.15234375,0.17578125 0.33984375,0.17578125 H 3.2221484 c 0.1875,0 0.328125,0 0.328125,-0.17578125 0,-0.17578125 -0.1640625,-0.17578125 -0.2695312,-0.17578125 -0.5742188,0 -0.609375,-0.0820313 -0.609375,-0.5625 z m 1.921875,-0.4921875 c 0.28125,-0.3632812 0.3046875,-0.890625 0.3046875,-1.3242187 0,-0.4804688 -0.058594,-1.0078125 -0.375,-1.4179688 0.4101562,0.082031 1.3945312,0.3984375 1.3945312,1.40625 0,0.6445313 -0.3046875,1.1484375 -1.3242187,1.3359375 z m -1.921875,-2.3203125 c 0,-0.1992187 0,-0.5390625 0.6210937,-0.5390625 0.84375,0 1.2539063,0.3515625 1.2539063,1.5351563 0,1.2773437 -0.3046875,1.4648437 -1.875,1.4648437 z m -1.359375,5.5898438 c 0.082031,-0.17578125 0.082031,-0.45703125 0.082031,-0.55078125 V -5.9303125 c 0,-0.09375 0,-0.3632813 -0.082031,-0.5507813 h 1.1367187 c -0.1289062,0.1640625 -0.1289062,0.3632813 -0.1289062,0.515625 v 5.06250005 c 0,0.10546875 0,0.375 0.082031,0.55078125 z m 2.1210937,-2.7773438 c 0.070312,-0.011719 0.1171875,-0.023437 0.1875,-0.023437 0.1523438,0 0.375,-0.011719 0.5273438,-0.035156 0.140625,0.234375 1.21875,2.015625 2.0507812,2.8359375 H 5.2260547 Z m 0,0"
       style="fill:#000000;fill-opacity:1;fill-rule:nonzero;stroke:none"
       aria-label="R"
       transform="matrix(1.3333333,0,0,1.3333333,163.97333,59.313333)" />
    <path
       id="path15"
       d="m 1.5833906,-7.1139063 c 0,-0.1757812 0,-0.3632812 -0.1992187,-0.3632812 -0.1992188,0 -0.1992188,0.1875 -0.1992188,0.3632812 v 9.2460938 c 0,0.1757812 0,0.3632812 0.1992188,0.3632812 0.1992187,0 0.1992187,-0.1875 0.1992187,-0.3632812 z m 0,0"
       style="fill:#000000;fill-opacity:1;fill-rule:nonzero;stroke:none"
       aria-label="|"
       transform="matrix(1.3333333,0,0,1.3333333,177.256,59.313333)" />
    <path
       id="path16"
       d="m 3.7153828,-3.7623438 c -0.1757812,-0.375 -0.46875,-0.6445312 -0.9140625,-0.6445312 -1.171875,0 -2.40234374,1.4648437 -2.40234374,2.9179687 0,0.93750005 0.55078125,1.59375005 1.32421874,1.59375005 0.1992188,0 0.703125,-0.03515625 1.3007813,-0.73828125 0.070312,0.41015625 0.421875,0.73828125 0.9023437,0.73828125 0.3515625,0 0.5742188,-0.22265625 0.7382813,-0.5390625 C 4.8286641,-0.7975 4.9575703,-1.406875 4.9575703,-1.4303125 c 0,-0.09375 -0.082031,-0.09375 -0.1171875,-0.09375 -0.09375,0 -0.1054687,0.035156 -0.140625,0.1757812 -0.1640625,0.6445313 -0.3515625,1.24218755 -0.75,1.24218755 -0.2695312,0 -0.3046875,-0.2578125 -0.3046875,-0.45703125 0,-0.22265625 0.023437,-0.3046875 0.1289063,-0.7382813 C 3.8911641,-1.7232813 3.9028828,-1.82875 3.9966328,-2.20375 l 0.3515625,-1.3945313 c 0.070312,-0.28125 0.070312,-0.2929687 0.070312,-0.3398437 0,-0.1640625 -0.1171875,-0.2695313 -0.28125,-0.2695313 -0.2460937,0 -0.3867187,0.2226563 -0.4218745,0.4453125 z m -0.6445312,2.578125 c -0.046875,0.1757813 -0.046875,0.1992188 -0.1992188,0.3632813 -0.4453125,0.55078125 -0.84375,0.71484375 -1.125,0.71484375 -0.5039062,0 -0.6445312,-0.55078125 -0.6445312,-0.93750005 0,-0.5039062 0.328125,-1.7226562 0.5507812,-2.1796875 0.3046875,-0.5976562 0.7617188,-0.9609375 1.1601563,-0.9609375 0.6445312,0 0.7851562,0.8203125 0.7851562,0.8789063 0,0.058594 -0.023437,0.1171875 -0.035156,0.1640625 z m 0,0"
       style="fill:#000000;fill-opacity:1;fill-rule:nonzero;stroke:none"
       aria-label="a"
       transform="matrix(1.3333333,0,0,1.3333333,184.636,59.313333)" />
    <path
       id="path17"
       d="m 6.7273047,-5.9185938 c 0.1054687,-0.046875 0.1875,-0.09375 0.1875,-0.2226562 0,-0.1054688 -0.082031,-0.1992188 -0.1992188,-0.1992188 -0.046875,0 -0.140625,0.046875 -0.1757812,0.058594 l -5.5078125,2.6015625 c -0.17578126,0.082031 -0.19921876,0.1523437 -0.19921876,0.234375 0,0.09375 0.0585938,0.1523437 0.19921876,0.2226562 l 5.5078125,2.5898438 c 0.1289062,0.0703125 0.140625,0.0703125 0.1757812,0.0703125 0.1054688,0 0.1992188,-0.09375 0.1992188,-0.19921875 0,-0.09375 -0.035156,-0.15234375 -0.2109375,-0.234375 L 1.5007422,-3.4459375 Z M 6.5632422,1.35875 c 0.1757812,0 0.3515625,0 0.3515625,-0.1992188 0,-0.1992187 -0.2109375,-0.1992187 -0.3632813,-0.1992187 H 1.1843359 c -0.1523437,0 -0.35156246,0 -0.35156246,0.1992187 0,0.1992188 0.17578126,0.1992188 0.33984376,0.1992188 z m 0,0"
       style="fill:#000000;fill-opacity:1;fill-rule:nonzero;stroke:none"
       aria-label="≤"
       transform="matrix(1.3333333,0,0,1.3333333,195.34667,59.313333)" />
    <path
       id="path18"
       d="m 3.3275156,-3.0123438 c 0.058594,-0.2578125 0.2929688,-1.171875 0.984375,-1.171875 0.046875,0 0.2929688,0 0.5039063,0.1289063 -0.28125,0.046875 -0.4804688,0.3046875 -0.4804688,0.5390625 0,0.1640625 0.1054688,0.3515625 0.375,0.3515625 0.2226563,0 0.5390625,-0.1875 0.5390625,-0.5859375 0,-0.515625 -0.5859375,-0.65625 -0.9257812,-0.65625 -0.5742188,0 -0.9257813,0.5273437 -1.0429688,0.7617187 -0.2578125,-0.65625 -0.7851562,-0.7617187 -1.078125,-0.7617187 -1.0429687,0 -1.60546872,1.2890625 -1.60546872,1.5351562 0,0.1054688 0.10546875,0.1054688 0.1171875,0.1054688 0.0820313,0 0.1171875,-0.023437 0.12890625,-0.1171875 0.33984377,-1.0546875 0.99609377,-1.3007813 1.33593747,-1.3007813 0.1875,0 0.5390625,0.09375 0.5390625,0.6679688 0,0.3046875 -0.1640625,0.9726562 -0.5390625,2.3671875 -0.1523437,0.62109375 -0.5039062,1.04296875 -0.9492187,1.04296875 -0.058594,0 -0.28125002,0 -0.49218752,-0.12890625 0.24609375,-0.0585938 0.46875002,-0.26953125 0.46875002,-0.5390625 0,-0.2695313 -0.22265627,-0.3515625 -0.37500002,-0.3515625 -0.29296875,0 -0.5390625,0.2578125 -0.5390625,0.57421875 0,0.45703125 0.4921875,0.65625 0.93750002,0.65625 0.65625,0 1.0078125,-0.69140625 1.0429687,-0.75 0.1171875,0.36328125 0.4804688,0.75 1.078125,0.75 1.0195313,0 1.59375,-1.27734375 1.59375,-1.53515625 0,-0.09375 -0.09375,-0.09375 -0.1289062,-0.09375 -0.082031,0 -0.1054688,0.035156 -0.1289063,0.1054687 -0.328125,1.0664063 -0.9960937,1.31250005 -1.3242187,1.31250005 -0.3867188,0 -0.5390625,-0.328125 -0.5390625,-0.65625 0,-0.22265625 0.058594,-0.44531255 0.1640625,-0.87890625 z m 0,0"
       style="fill:#000000;fill-opacity:1;fill-rule:nonzero;stroke:none"
       aria-label="x"
       transform="matrix(1.3333333,0,0,1.3333333,209.368,59.313333)" />
    <path
       id="path19"
       d="m 6.7278203,-5.9185938 c 0.1054688,-0.046875 0.1875,-0.09375 0.1875,-0.2226562 0,-0.1054688 -0.082031,-0.1992188 -0.1992187,-0.1992188 -0.046875,0 -0.140625,0.046875 -0.1757813,0.058594 l -5.5078125,2.6015625 c -0.17578124,0.082031 -0.19921874,0.1523437 -0.19921874,0.234375 0,0.09375 0.0585938,0.1523437 0.19921874,0.2226562 l 5.5078125,2.5898438 c 0.1289063,0.0703125 0.140625,0.0703125 0.1757813,0.0703125 0.1054687,0 0.1992187,-0.09375 0.1992187,-0.19921875 0,-0.09375 -0.035156,-0.15234375 -0.2109375,-0.234375 L 1.5012578,-3.4459375 Z M 6.5637578,1.35875 c 0.1757813,0 0.3515625,0 0.3515625,-0.1992188 0,-0.1992187 -0.2109375,-0.1992187 -0.3632812,-0.1992187 H 1.1848516 c -0.1523438,0 -0.35156254,0 -0.35156254,0.1992187 0,0.1992188 0.17578124,0.1992188 0.33984374,0.1992188 z m 0,0"
       style="fill:#000000;fill-opacity:1;fill-rule:nonzero;stroke:none"
       aria-label="≤"
       transform="matrix(1.3333333,0,0,1.3333333,220.65067,59.313333)" />
    <path
       id="path20"
       d="m 2.3788125,-6.8092188 c 0,0 0,-0.1054687 -0.1289062,-0.1054687 -0.2226563,0 -0.9492188,0.082031 -1.21875,0.1054687 -0.0703125,0 -0.18750005,0.011719 -0.18750005,0.1992188 0,0.1171875 0.09375,0.1171875 0.24609375,0.1171875 0.46875,0 0.4921875,0.070312 0.4921875,0.1640625 0,0.070312 -0.082031,0.4101562 -0.140625,0.6210937 l -0.80859375,3.2460938 c -0.12890625,0.5039062 -0.1640625,0.65625 -0.1640625,1.0078125 0,0.94921875 0.52734375,1.55859375 1.26562505,1.55859375 1.171875,0 2.4023437,-1.47656255 2.4023437,-2.91796875 0,-0.9023438 -0.5273437,-1.59375 -1.3242187,-1.59375 -0.4570313,0 -0.8671875,0.2929687 -1.171875,0.5976562 z m -0.9375,3.7734375 c 0.058594,-0.2226562 0.058594,-0.2460937 0.1523438,-0.3515625 0.4921875,-0.6445312 0.9375,-0.796875 1.1953125,-0.796875 0.3632812,0 0.6328125,0.2929688 0.6328125,0.9375 0,0.5859375 -0.328125,1.734375 -0.515625,2.109375 -0.328125,0.6679688 -0.7851563,1.03125005 -1.171875,1.03125005 -0.3398438,0 -0.6679688,-0.26953125 -0.6679688,-1.00781255 0,-0.1875 0,-0.3867187 0.1640625,-1.0078125 z m 0,0"
       style="fill:#000000;fill-opacity:1;fill-rule:nonzero;stroke:none"
       aria-label="b"
       transform="matrix(1.3333333,0,0,1.3333333,234.672,59.313333)" />
    <path
       id="path21"
       d="m 2.1555703,1.1595312 c 0,0.3984375 -0.2578125,1.0429688 -1.34765624,1.1132813 -0.046875,0.011719 -0.09375,0.046875 -0.09375,0.1054687 0,0.1171875 0.1171875,0.1171875 0.19921875,0.1171875 0.97265629,0 1.89843749,-0.4921875 1.91015629,-1.2539062 V -1.031875 c 0,-0.3867188 0,-0.703125 0.3984375,-1.03125 0.3398437,-0.2929688 0.7265625,-0.3046875 0.9375,-0.3164063 0.058594,-0.011719 0.09375,-0.046875 0.09375,-0.1171875 0,-0.09375 -0.058594,-0.09375 -0.1640625,-0.1054687 -0.65625,-0.035156 -1.1367188,-0.3984375 -1.2421875,-0.890625 -0.023437,-0.1054688 -0.023437,-0.1289063 -0.023437,-0.4804688 v -1.96875 c 0,-0.421875 0,-0.7382812 -0.4804688,-1.125 -0.3984375,-0.3046875 -1.0898437,-0.4101562 -1.42968749,-0.4101562 -0.0820313,0 -0.19921875,0 -0.19921875,0.1171875 0,0.09375 0.0585938,0.09375 0.1640625,0.1054687 0.62109374,0.046875 1.11328124,0.3632813 1.24218754,0.8671875 0.035156,0.09375 0.035156,0.1054688 0.035156,0.46875 v 2.0976563 c 0,0.4570312 0.070312,0.6210937 0.3984375,0.9375 0.1992188,0.2109375 0.4921875,0.3164062 0.7734375,0.3867187 -0.8203125,0.234375 -1.171875,0.6914063 -1.171875,1.265625 z m 0,0"
       style="fill:#000000;fill-opacity:1;fill-rule:nonzero;stroke:none"
       aria-label="}"
       transform="matrix(1.3333333,0,0,1.3333333,240.372,59.313333)" />
    <path
       id="path22"
       d="M 6.10043,0 H 49.85016"
       style="fill:none;stroke:#000000;stroke-width:0.3985;stroke-linecap:butt;stroke-linejoin:miter;stroke-miterlimit:10;stroke-dasharray:none;stroke-opacity:1"
       transform="matrix(1.3333333,0,0,-1.3333333,16.422667,55.992)" />
    <path
       id="path23"
       d="M -1.19551,1.59401 C -1.09587,0.99626 0,0.09961 0.29886,0 0,-0.09961 -1.09587,-0.99626 -1.19551,-1.59401"
       style="fill:none;stroke:#000000;stroke-width:0.31879;stroke-linecap:round;stroke-linejoin:round;stroke-miterlimit:10;stroke-dasharray:none;stroke-opacity:1"
       transform="matrix(1.3333333,0,0,-1.3333333,82.889547,55.992)" />
  </g>
</svg>
